G04 #@! TF.FileFunction,Soldermask,Bot*
%FSLAX46Y46*%
G04 Gerber Fmt 4.6, Leading zero omitted, Abs format (unit mm)*
G04 Created by KiCad (PCBNEW 4.0.7) date Thursday, May 03, 2018 'PMt' 01:10:52 PM*
%MOMM*%
%LPD*%
G01*
G04 APERTURE LIST*
%ADD10C,0.020000*%
%ADD11C,0.150000*%
%ADD12C,1.720800*%
%ADD13C,2.400000*%
%ADD14C,4.210000*%
%ADD15C,1.543000*%
%ADD16C,2.686000*%
%ADD17R,2.100000X2.100000*%
%ADD18O,2.100000X2.100000*%
%ADD19C,1.900000*%
G04 APERTURE END LIST*
D10*
D11*
X253270000Y-85852000D02*
G75*
G03X250730000Y-83312000I-2540000J0D01*
G01*
X166878000Y-83312000D02*
G75*
G03X164338000Y-85852000I0J-2540000D01*
G01*
X164370000Y-217932000D02*
G75*
G03X166910000Y-220472000I2540000J0D01*
G01*
X250730000Y-220472000D02*
G75*
G03X253270000Y-217932000I0J2540000D01*
G01*
X166878000Y-83312000D02*
X250730000Y-83312000D01*
X164370000Y-217932000D02*
X164338000Y-85852000D01*
X250730000Y-220472000D02*
X166910000Y-220472000D01*
X253270000Y-85852000D02*
X253270000Y-217932000D01*
D12*
X184690000Y-126746000D03*
X192056000Y-126746000D03*
X171228000Y-126492000D03*
X171228000Y-120650000D03*
X179356000Y-115062000D03*
X171228000Y-115062000D03*
X171228000Y-108712000D03*
X177324000Y-110236000D03*
X250730000Y-207772000D03*
X250476000Y-192532000D03*
X252000000Y-146812000D03*
X230410000Y-206756000D03*
X187230000Y-207264000D03*
X198406000Y-200914000D03*
X231172000Y-193548000D03*
X214408000Y-193548000D03*
X198152000Y-193548000D03*
X178848000Y-194056000D03*
X241586000Y-169926000D03*
X225076000Y-169926000D03*
X175546000Y-169926000D03*
X192056000Y-169926000D03*
X208566000Y-169926000D03*
X235490000Y-146304000D03*
X220250000Y-146304000D03*
X202470000Y-146304000D03*
X187230000Y-146304000D03*
X166910000Y-146304000D03*
X198406000Y-122174000D03*
X187230000Y-93472000D03*
X192310000Y-111252000D03*
X179610000Y-130556000D03*
X238030000Y-106172000D03*
X238030000Y-116332000D03*
X238030000Y-126492000D03*
X227870000Y-126492000D03*
X229394000Y-110744000D03*
X210598000Y-115316000D03*
X215170000Y-110744000D03*
X206026000Y-110744000D03*
X210598000Y-106172000D03*
D13*
X221996000Y-175768000D03*
X221996000Y-180848000D03*
X221996000Y-185928000D03*
X221996000Y-191008000D03*
X205486000Y-150876000D03*
X205486000Y-155956000D03*
X205486000Y-161036000D03*
X205486000Y-166116000D03*
D12*
X168180000Y-92202000D03*
X168180000Y-89662000D03*
X168180000Y-87122000D03*
X227108000Y-100838000D03*
X225838000Y-118110000D03*
X218218000Y-126492000D03*
X211360000Y-126746000D03*
X186722000Y-120396000D03*
D14*
X167418000Y-198882000D03*
X250222000Y-198882000D03*
X243110000Y-88392000D03*
X187230000Y-88392000D03*
D15*
X224060000Y-97536000D03*
D13*
X195326000Y-173228000D03*
X195326000Y-178308000D03*
X195326000Y-183388000D03*
X195326000Y-188468000D03*
X188976000Y-175768000D03*
X188976000Y-180848000D03*
X188976000Y-185928000D03*
X188976000Y-191008000D03*
X178816000Y-173228000D03*
X178816000Y-178308000D03*
X178816000Y-183388000D03*
X178816000Y-188468000D03*
X172466000Y-175721306D03*
X172466000Y-180801306D03*
X172466000Y-185881306D03*
X172466000Y-190961306D03*
D16*
X178816000Y-148336000D03*
D13*
X178816000Y-153416000D03*
X178816000Y-158496000D03*
X178816000Y-163576000D03*
X172466000Y-150876000D03*
X172466000Y-155956000D03*
X172466000Y-161036000D03*
X172466000Y-166116000D03*
X195326000Y-148336000D03*
X195326000Y-153416000D03*
X195326000Y-158496000D03*
X195326000Y-163576000D03*
X188976000Y-150867808D03*
X188976000Y-155947808D03*
X188976000Y-161027808D03*
X188976000Y-166107808D03*
X211836000Y-148336000D03*
X211836000Y-153416000D03*
X211836000Y-158496000D03*
X211836000Y-163576000D03*
X211836000Y-173228000D03*
X211836000Y-178308000D03*
X211836000Y-183388000D03*
X211836000Y-188468000D03*
X205486000Y-175768000D03*
X205486000Y-180848000D03*
X205486000Y-185928000D03*
X205486000Y-191008000D03*
X228346000Y-148336000D03*
X228346000Y-153416000D03*
X228346000Y-158496000D03*
X228346000Y-163576000D03*
X221996000Y-150876000D03*
X221996000Y-155956000D03*
X221996000Y-161036000D03*
X221996000Y-166116000D03*
X228346000Y-173228000D03*
X228346000Y-178308000D03*
X228346000Y-183388000D03*
X228346000Y-188468000D03*
X244856000Y-148336000D03*
X244856000Y-153416000D03*
X244856000Y-158496000D03*
X244856000Y-163576000D03*
X238506000Y-150876000D03*
X238506000Y-155956000D03*
X238506000Y-161036000D03*
X238506000Y-166116000D03*
X244856000Y-173228000D03*
X244856000Y-178308000D03*
X244856000Y-183388000D03*
X244856000Y-188468000D03*
X238506000Y-175768000D03*
X238506000Y-180848000D03*
X238506000Y-185928000D03*
X238506000Y-191008000D03*
D17*
X174784000Y-88392000D03*
D18*
X177324000Y-88392000D03*
D17*
X192278000Y-88392000D03*
D18*
X194818000Y-88392000D03*
X197358000Y-88392000D03*
X199898000Y-88392000D03*
X202438000Y-88392000D03*
X204978000Y-88392000D03*
D17*
X171395092Y-207264000D03*
D18*
X173935092Y-207264000D03*
X176475092Y-207264000D03*
X179015092Y-207264000D03*
X181555092Y-207264000D03*
D17*
X171450000Y-202438000D03*
D18*
X173990000Y-202438000D03*
X176530000Y-202438000D03*
X179070000Y-202438000D03*
X181610000Y-202438000D03*
D17*
X235966000Y-207264000D03*
D18*
X238506000Y-207264000D03*
X241046000Y-207264000D03*
X243586000Y-207264000D03*
X246126000Y-207264000D03*
D17*
X235966000Y-202438000D03*
D18*
X238506000Y-202438000D03*
X241046000Y-202438000D03*
X243586000Y-202438000D03*
X246126000Y-202438000D03*
D17*
X222758000Y-90932000D03*
D18*
X222758000Y-88392000D03*
X225298000Y-90932000D03*
X225298000Y-88392000D03*
X227838000Y-90932000D03*
X227838000Y-88392000D03*
X230378000Y-90932000D03*
X230378000Y-88392000D03*
X232918000Y-90932000D03*
X232918000Y-88392000D03*
X235458000Y-90932000D03*
X235458000Y-88392000D03*
D19*
X206870000Y-216662000D03*
X171870000Y-216662000D03*
X171870000Y-214122000D03*
X206870000Y-214122000D03*
X211870000Y-216662000D03*
X246870000Y-216662000D03*
X246870000Y-214122000D03*
X211870000Y-214122000D03*
M02*
