G04 #@! TF.FileFunction,Paste,Top*
%FSLAX46Y46*%
G04 Gerber Fmt 4.6, Leading zero omitted, Abs format (unit mm)*
G04 Created by KiCad (PCBNEW 4.0.7) date Monday, June 18, 2018 'PMt' 04:21:03 PM*
%MOMM*%
%LPD*%
G01*
G04 APERTURE LIST*
%ADD10C,0.020000*%
%ADD11C,0.100000*%
%ADD12O,1.524000X5.080000*%
%ADD13R,2.500000X2.000000*%
%ADD14R,0.750000X1.200000*%
%ADD15R,2.000000X2.500000*%
%ADD16R,1.200000X0.750000*%
%ADD17R,0.900000X1.200000*%
%ADD18R,0.450000X1.500000*%
%ADD19R,1.500000X0.300000*%
%ADD20R,0.300000X1.500000*%
%ADD21R,0.650000X0.300000*%
%ADD22R,0.465000X0.744000*%
%ADD23R,0.600000X0.350000*%
%ADD24R,2.000000X1.700000*%
%ADD25R,0.700000X0.250000*%
%ADD26R,0.384000X0.720000*%
%ADD27R,0.700000X1.300000*%
%ADD28R,1.600000X3.500000*%
%ADD29R,1.600000X1.000000*%
G04 APERTURE END LIST*
D10*
D11*
X36068000Y-88900000D02*
X49530000Y-88900000D01*
X34798000Y-83820000D02*
X34798000Y-87630000D01*
X-33528000Y-82550000D02*
X33528000Y-82550000D01*
X-34798000Y-83820000D02*
X-34798000Y-87630000D01*
X34798000Y-83820000D02*
G75*
G03X33528000Y-82550000I-1270000J0D01*
G01*
X34798000Y-87630000D02*
G75*
G03X36068000Y-88900000I1270000J0D01*
G01*
X-33530217Y-82550002D02*
G75*
G03X-34798000Y-83820000I2217J-1269998D01*
G01*
X-34798000Y-87630000D02*
G75*
G02X-36068000Y-88900000I-1270000J0D01*
G01*
X-50800000Y-3175000D02*
G75*
G02X-49530000Y-1905000I1270000J0D01*
G01*
X-49530000Y-1905000D02*
X-48895000Y-1905000D01*
X-48895000Y1905000D02*
G75*
G02X-48895000Y-1905000I0J-1905000D01*
G01*
X-48895000Y1905000D02*
X-49530000Y1905000D01*
X-49530000Y1905000D02*
G75*
G02X-50800000Y3175000I0J1270000D01*
G01*
X-50800000Y52070000D02*
X-50800000Y3175000D01*
X-50800000Y52070000D02*
G75*
G02X-49530000Y53340000I1270000J0D01*
G01*
X11430000Y53340000D02*
X-49530000Y53340000D01*
X11430000Y53340000D02*
G75*
G02X12700000Y52070000I0J-1270000D01*
G01*
X12700000Y52070000D02*
X12700000Y41910000D01*
X13970000Y40640000D02*
G75*
G02X12700000Y41910000I0J1270000D01*
G01*
X13970000Y40640000D02*
X49530000Y40640000D01*
X49530000Y40640000D02*
G75*
G02X50800000Y39370000I0J-1270000D01*
G01*
X50800000Y3175000D02*
X50800000Y39370000D01*
X50800000Y3175000D02*
G75*
G02X49530000Y1905000I-1270000J0D01*
G01*
X48895000Y1905000D02*
X49530000Y1905000D01*
X48895000Y-1905000D02*
G75*
G02X48895000Y1905000I0J1905000D01*
G01*
X49530000Y-1905000D02*
X48895000Y-1905000D01*
X49530000Y-1905000D02*
G75*
G02X50800000Y-3175000I0J-1270000D01*
G01*
X50800000Y-87630000D02*
X50800000Y-3175000D01*
X50800000Y-87630000D02*
G75*
G02X49530000Y-88900000I-1270000J0D01*
G01*
X-49530000Y-88900000D02*
X-36068000Y-88900000D01*
X-49530000Y-88900000D02*
G75*
G02X-50800000Y-87630000I0J1270000D01*
G01*
X-50800000Y-3175000D02*
X-50800000Y-87630000D01*
D12*
X24917400Y-79865198D03*
X22148800Y-79865198D03*
X19380200Y-79865198D03*
X16611600Y-79865198D03*
X13843000Y-79865198D03*
X11074400Y-79865198D03*
X8305800Y-79865198D03*
X5537200Y-79865198D03*
X2768600Y-79865198D03*
X0Y-79865198D03*
X-2768600Y-79865198D03*
X-5537200Y-79865198D03*
X-8305800Y-79865198D03*
X-11074400Y-79865198D03*
X-13843000Y-79865198D03*
X-16611600Y-79865198D03*
X-19380200Y-79865198D03*
X-22148800Y-79865198D03*
X-24917400Y-79865198D03*
D10*
G36*
X42083500Y30736000D02*
X40908500Y31911000D01*
X40908500Y36161000D01*
X42083500Y37336000D01*
X42083500Y30736000D01*
X42083500Y30736000D01*
G37*
G36*
X43208500Y30723500D02*
X42083500Y30723500D01*
X42083500Y31848500D01*
X43208500Y31848500D01*
X43208500Y30723500D01*
X43208500Y30723500D01*
G37*
G36*
X43208500Y36223500D02*
X42083500Y36223500D01*
X42083500Y37348500D01*
X43208500Y37348500D01*
X43208500Y36223500D01*
X43208500Y36223500D01*
G37*
G36*
X42083500Y32960500D02*
X43208500Y31836500D01*
X43208500Y31835500D01*
X42083500Y30711500D01*
X42083500Y32960500D01*
X42083500Y32960500D01*
G37*
G36*
X42083500Y37360500D02*
X43208500Y36236500D01*
X43208500Y36235500D01*
X42083500Y35111500D01*
X42083500Y37360500D01*
X42083500Y37360500D01*
G37*
G36*
X46309101Y37352373D02*
X47484101Y36177373D01*
X47484101Y31927373D01*
X46309101Y30752373D01*
X46309101Y37352373D01*
X46309101Y37352373D01*
G37*
G36*
X45184101Y37364873D02*
X46309101Y37364873D01*
X46309101Y36239873D01*
X45184101Y36239873D01*
X45184101Y37364873D01*
X45184101Y37364873D01*
G37*
G36*
X46309101Y35127873D02*
X45184101Y36251873D01*
X45184101Y36252873D01*
X46309101Y37376873D01*
X46309101Y35127873D01*
X46309101Y35127873D01*
G37*
G36*
X45184101Y31864873D02*
X46309101Y31864873D01*
X46309101Y30739873D01*
X45184101Y30739873D01*
X45184101Y31864873D01*
X45184101Y31864873D01*
G37*
G36*
X46309101Y30727873D02*
X45184101Y31851873D01*
X45184101Y31852873D01*
X46309101Y32976873D01*
X46309101Y30727873D01*
X46309101Y30727873D01*
G37*
D13*
X33274000Y34830000D03*
X33274000Y38830000D03*
X36830000Y30194000D03*
X36830000Y26194000D03*
D14*
X39370000Y30668000D03*
X39370000Y28768000D03*
D15*
X46196000Y28194000D03*
X42196000Y28194000D03*
D13*
X35814000Y11970000D03*
X35814000Y15970000D03*
D16*
X42606000Y9652000D03*
X40706000Y9652000D03*
D13*
X45720000Y12668000D03*
X45720000Y8668000D03*
D17*
X-32058926Y27272670D03*
X-32058926Y25072670D03*
X-30020164Y27272670D03*
X-30020164Y25072670D03*
X-27994926Y27272670D03*
X-27994926Y25072670D03*
X-25962926Y27272670D03*
X-25962926Y25072670D03*
X-23930926Y27272670D03*
X-23930926Y25072670D03*
X-32058926Y21684670D03*
X-32058926Y19484670D03*
X-30026926Y21684670D03*
X-30026926Y19484670D03*
X-27988164Y21684670D03*
X-27988164Y19484670D03*
X-25962926Y21684670D03*
X-25962926Y19484670D03*
X-23930926Y21684670D03*
X-23930926Y19484670D03*
D18*
X-28205000Y11840000D03*
X-28855000Y11840000D03*
X-29505000Y11840000D03*
X-30155000Y11840000D03*
X-30805000Y11840000D03*
X-31455000Y11840000D03*
X-32105000Y11840000D03*
X-32755000Y11840000D03*
X-32755000Y5940000D03*
X-32105000Y5940000D03*
X-31455000Y5940000D03*
X-30805000Y5940000D03*
X-30155000Y5940000D03*
X-29505000Y5940000D03*
X-28855000Y5940000D03*
X-28205000Y5940000D03*
D19*
X4398000Y19654000D03*
X4398000Y20154000D03*
X4398000Y20654000D03*
X4398000Y21154000D03*
X4398000Y21654000D03*
X4398000Y22154000D03*
X4398000Y22654000D03*
X4398000Y23154000D03*
X4398000Y23654000D03*
X4398000Y24154000D03*
X4398000Y24654000D03*
X4398000Y25154000D03*
X4398000Y25654000D03*
X4398000Y26154000D03*
X4398000Y26654000D03*
X4398000Y27154000D03*
X4398000Y27654000D03*
X4398000Y28154000D03*
X4398000Y28654000D03*
X4398000Y29154000D03*
X4398000Y29654000D03*
X4398000Y30154000D03*
X4398000Y30654000D03*
X4398000Y31154000D03*
X4398000Y31654000D03*
D20*
X2698000Y33354000D03*
X2198000Y33354000D03*
X1698000Y33354000D03*
X1198000Y33354000D03*
X698000Y33354000D03*
X198000Y33354000D03*
X-302000Y33354000D03*
X-802000Y33354000D03*
X-1302000Y33354000D03*
X-1802000Y33354000D03*
X-2302000Y33354000D03*
X-2802000Y33354000D03*
X-3302000Y33354000D03*
X-3802000Y33354000D03*
X-4302000Y33354000D03*
X-4802000Y33354000D03*
X-5302000Y33354000D03*
X-5802000Y33354000D03*
X-6302000Y33354000D03*
X-6802000Y33354000D03*
X-7302000Y33354000D03*
X-7802000Y33354000D03*
X-8302000Y33354000D03*
X-8802000Y33354000D03*
X-9302000Y33354000D03*
D19*
X-11002000Y31654000D03*
X-11002000Y31154000D03*
X-11002000Y30654000D03*
X-11002000Y30154000D03*
X-11002000Y29654000D03*
X-11002000Y29154000D03*
X-11002000Y28654000D03*
X-11002000Y28154000D03*
X-11002000Y27654000D03*
X-11002000Y27154000D03*
X-11002000Y26654000D03*
X-11002000Y26154000D03*
X-11002000Y25654000D03*
X-11002000Y25154000D03*
X-11002000Y24654000D03*
X-11002000Y24154000D03*
X-11002000Y23654000D03*
X-11002000Y23154000D03*
X-11002000Y22654000D03*
X-11002000Y22154000D03*
X-11002000Y21654000D03*
X-11002000Y21154000D03*
X-11002000Y20654000D03*
X-11002000Y20154000D03*
X-11002000Y19654000D03*
D20*
X-9302000Y17954000D03*
X-8802000Y17954000D03*
X-8302000Y17954000D03*
X-7802000Y17954000D03*
X-7302000Y17954000D03*
X-6802000Y17954000D03*
X-6302000Y17954000D03*
X-5802000Y17954000D03*
X-5302000Y17954000D03*
X-4802000Y17954000D03*
X-4302000Y17954000D03*
X-3802000Y17954000D03*
X-3302000Y17954000D03*
X-2802000Y17954000D03*
X-2302000Y17954000D03*
X-1802000Y17954000D03*
X-1302000Y17954000D03*
X-802000Y17954000D03*
X-302000Y17954000D03*
X198000Y17954000D03*
X698000Y17954000D03*
X1198000Y17954000D03*
X1698000Y17954000D03*
X2198000Y17954000D03*
X2698000Y17954000D03*
D18*
X-20585000Y11840000D03*
X-21235000Y11840000D03*
X-21885000Y11840000D03*
X-22535000Y11840000D03*
X-23185000Y11840000D03*
X-23835000Y11840000D03*
X-24485000Y11840000D03*
X-25135000Y11840000D03*
X-25135000Y5940000D03*
X-24485000Y5940000D03*
X-23835000Y5940000D03*
X-23185000Y5940000D03*
X-22535000Y5940000D03*
X-21885000Y5940000D03*
X-21235000Y5940000D03*
X-20585000Y5940000D03*
X-5345000Y11840000D03*
X-5995000Y11840000D03*
X-6645000Y11840000D03*
X-7295000Y11840000D03*
X-7945000Y11840000D03*
X-8595000Y11840000D03*
X-9245000Y11840000D03*
X-9895000Y11840000D03*
X-9895000Y5940000D03*
X-9245000Y5940000D03*
X-8595000Y5940000D03*
X-7945000Y5940000D03*
X-7295000Y5940000D03*
X-6645000Y5940000D03*
X-5995000Y5940000D03*
X-5345000Y5940000D03*
D21*
X39223500Y13684000D03*
X39223500Y13184000D03*
X39223500Y12684000D03*
X39223500Y12184000D03*
X39223500Y11684000D03*
X42323500Y11684000D03*
X42323500Y12184000D03*
X42323500Y12684000D03*
X42323500Y13184000D03*
X42323500Y13684000D03*
D22*
X41161000Y12064000D03*
X41161000Y13304000D03*
X40386000Y12064000D03*
X40386000Y13304000D03*
D23*
X-19888079Y25174000D03*
X-18288079Y25174000D03*
X-19888079Y25674000D03*
X-18288079Y25674000D03*
X-19888079Y26174000D03*
X-18288079Y26174000D03*
X-19888079Y26674000D03*
X-18288079Y26674000D03*
X-19888079Y27174000D03*
X-18288079Y27174000D03*
X-19888079Y27674000D03*
X-18288079Y27674000D03*
X-19888079Y28174000D03*
X-18288079Y28174000D03*
X-19888079Y28674000D03*
X-18288079Y28674000D03*
X-19888000Y19344000D03*
X-18288000Y19344000D03*
X-19888000Y19844000D03*
X-18288000Y19844000D03*
X-19888000Y20344000D03*
X-18288000Y20344000D03*
X-19888000Y20844000D03*
X-18288000Y20844000D03*
X-19888000Y21344000D03*
X-18288000Y21344000D03*
X-19888000Y21844000D03*
X-18288000Y21844000D03*
X-19888000Y22344000D03*
X-18288000Y22344000D03*
X-19888000Y22844000D03*
X-18288000Y22844000D03*
D24*
X39846000Y38862000D03*
X35846000Y38862000D03*
D25*
X36758000Y36036000D03*
X36758000Y35536000D03*
X36758000Y35036000D03*
X36758000Y34536000D03*
X36758000Y34036000D03*
X38608000Y34036000D03*
X38608000Y34536000D03*
X38608000Y35036000D03*
X38608000Y35536000D03*
X38608000Y36036000D03*
D26*
X37683000Y34436000D03*
X37683000Y35636000D03*
D27*
X34290000Y32004000D03*
X32390000Y32004000D03*
X32390000Y29718000D03*
X34290000Y29718000D03*
X43754000Y16002000D03*
X45654000Y16002000D03*
X40198000Y16002000D03*
X42098000Y16002000D03*
D18*
X2275000Y11840000D03*
X1625000Y11840000D03*
X975000Y11840000D03*
X325000Y11840000D03*
X-325000Y11840000D03*
X-975000Y11840000D03*
X-1625000Y11840000D03*
X-2275000Y11840000D03*
X-2275000Y5940000D03*
X-1625000Y5940000D03*
X-975000Y5940000D03*
X-325000Y5940000D03*
X325000Y5940000D03*
X975000Y5940000D03*
X1625000Y5940000D03*
X2275000Y5940000D03*
X17515000Y11840000D03*
X16865000Y11840000D03*
X16215000Y11840000D03*
X15565000Y11840000D03*
X14915000Y11840000D03*
X14265000Y11840000D03*
X13615000Y11840000D03*
X12965000Y11840000D03*
X12965000Y5940000D03*
X13615000Y5940000D03*
X14265000Y5940000D03*
X14915000Y5940000D03*
X15565000Y5940000D03*
X16215000Y5940000D03*
X16865000Y5940000D03*
X17515000Y5940000D03*
X25135000Y11840000D03*
X24485000Y11840000D03*
X23835000Y11840000D03*
X23185000Y11840000D03*
X22535000Y11840000D03*
X21885000Y11840000D03*
X21235000Y11840000D03*
X20585000Y11840000D03*
X20585000Y5940000D03*
X21235000Y5940000D03*
X21885000Y5940000D03*
X22535000Y5940000D03*
X23185000Y5940000D03*
X23835000Y5940000D03*
X24485000Y5940000D03*
X25135000Y5940000D03*
D10*
G36*
X18461500Y26164000D02*
X17286500Y27339000D01*
X17286500Y31589000D01*
X18461500Y32764000D01*
X18461500Y26164000D01*
X18461500Y26164000D01*
G37*
G36*
X19586500Y26151500D02*
X18461500Y26151500D01*
X18461500Y27276500D01*
X19586500Y27276500D01*
X19586500Y26151500D01*
X19586500Y26151500D01*
G37*
G36*
X19586500Y31651500D02*
X18461500Y31651500D01*
X18461500Y32776500D01*
X19586500Y32776500D01*
X19586500Y31651500D01*
X19586500Y31651500D01*
G37*
G36*
X18461500Y28388500D02*
X19586500Y27264500D01*
X19586500Y27263500D01*
X18461500Y26139500D01*
X18461500Y28388500D01*
X18461500Y28388500D01*
G37*
G36*
X18461500Y32788500D02*
X19586500Y31664500D01*
X19586500Y31663500D01*
X18461500Y30539500D01*
X18461500Y32788500D01*
X18461500Y32788500D01*
G37*
G36*
X22687101Y32780373D02*
X23862101Y31605373D01*
X23862101Y27355373D01*
X22687101Y26180373D01*
X22687101Y32780373D01*
X22687101Y32780373D01*
G37*
G36*
X21562101Y32792873D02*
X22687101Y32792873D01*
X22687101Y31667873D01*
X21562101Y31667873D01*
X21562101Y32792873D01*
X21562101Y32792873D01*
G37*
G36*
X22687101Y30555873D02*
X21562101Y31679873D01*
X21562101Y31680873D01*
X22687101Y32804873D01*
X22687101Y30555873D01*
X22687101Y30555873D01*
G37*
G36*
X21562101Y27292873D02*
X22687101Y27292873D01*
X22687101Y26167873D01*
X21562101Y26167873D01*
X21562101Y27292873D01*
X21562101Y27292873D01*
G37*
G36*
X22687101Y26155873D02*
X21562101Y27279873D01*
X21562101Y27280873D01*
X22687101Y28404873D01*
X22687101Y26155873D01*
X22687101Y26155873D01*
G37*
G36*
X18461500Y33427627D02*
X17286500Y34602627D01*
X17286500Y38852627D01*
X18461500Y40027627D01*
X18461500Y33427627D01*
X18461500Y33427627D01*
G37*
G36*
X19586500Y33415127D02*
X18461500Y33415127D01*
X18461500Y34540127D01*
X19586500Y34540127D01*
X19586500Y33415127D01*
X19586500Y33415127D01*
G37*
G36*
X19586500Y38915127D02*
X18461500Y38915127D01*
X18461500Y40040127D01*
X19586500Y40040127D01*
X19586500Y38915127D01*
X19586500Y38915127D01*
G37*
G36*
X18461500Y35652127D02*
X19586500Y34528127D01*
X19586500Y34527127D01*
X18461500Y33403127D01*
X18461500Y35652127D01*
X18461500Y35652127D01*
G37*
G36*
X18461500Y40052127D02*
X19586500Y38928127D01*
X19586500Y38927127D01*
X18461500Y37803127D01*
X18461500Y40052127D01*
X18461500Y40052127D01*
G37*
G36*
X22687101Y40044000D02*
X23862101Y38869000D01*
X23862101Y34619000D01*
X22687101Y33444000D01*
X22687101Y40044000D01*
X22687101Y40044000D01*
G37*
G36*
X21562101Y40056500D02*
X22687101Y40056500D01*
X22687101Y38931500D01*
X21562101Y38931500D01*
X21562101Y40056500D01*
X21562101Y40056500D01*
G37*
G36*
X22687101Y37819500D02*
X21562101Y38943500D01*
X21562101Y38944500D01*
X22687101Y40068500D01*
X22687101Y37819500D01*
X22687101Y37819500D01*
G37*
G36*
X21562101Y34556500D02*
X22687101Y34556500D01*
X22687101Y33431500D01*
X21562101Y33431500D01*
X21562101Y34556500D01*
X21562101Y34556500D01*
G37*
G36*
X22687101Y33419500D02*
X21562101Y34543500D01*
X21562101Y34544500D01*
X22687101Y35668500D01*
X22687101Y33419500D01*
X22687101Y33419500D01*
G37*
D28*
X13208000Y32700000D03*
X13208000Y38100000D03*
X30480000Y9746000D03*
X30480000Y15146000D03*
X27940000Y32766000D03*
X27940000Y38166000D03*
D29*
X19050000Y7656000D03*
X19050000Y10256000D03*
X11430000Y7590000D03*
X11430000Y10190000D03*
X-3810000Y7590000D03*
X-3810000Y10190000D03*
X-11430000Y7590000D03*
X-11430000Y10190000D03*
X-26670000Y7590000D03*
X-26670000Y10190000D03*
X-34290000Y7590000D03*
X-34290000Y10190000D03*
M02*
