G04 #@! TF.FileFunction,Soldermask,Bot*
%FSLAX46Y46*%
G04 Gerber Fmt 4.6, Leading zero omitted, Abs format (unit mm)*
G04 Created by KiCad (PCBNEW 4.0.7) date Monday, June 18, 2018 'PMt' 04:15:24 PM*
%MOMM*%
%LPD*%
G01*
G04 APERTURE LIST*
%ADD10C,0.020000*%
%ADD11C,0.100000*%
%ADD12C,2.940000*%
%ADD13O,1.924000X5.480000*%
%ADD14C,1.060400*%
%ADD15C,2.400000*%
%ADD16R,2.127200X2.127200*%
%ADD17O,2.127200X2.127200*%
%ADD18R,2.100000X2.100000*%
%ADD19O,2.100000X2.100000*%
%ADD20R,1.400000X2.000000*%
%ADD21R,2.000000X1.400000*%
G04 APERTURE END LIST*
D10*
D11*
X36068000Y-88900000D02*
X49530000Y-88900000D01*
X34798000Y-83820000D02*
X34798000Y-87630000D01*
X-33528000Y-82550000D02*
X33528000Y-82550000D01*
X-34798000Y-83820000D02*
X-34798000Y-87630000D01*
X34798000Y-83820000D02*
G75*
G03X33528000Y-82550000I-1270000J0D01*
G01*
X34798000Y-87630000D02*
G75*
G03X36068000Y-88900000I1270000J0D01*
G01*
X-33530217Y-82550002D02*
G75*
G03X-34798000Y-83820000I2217J-1269998D01*
G01*
X-34798000Y-87630000D02*
G75*
G02X-36068000Y-88900000I-1270000J0D01*
G01*
X-50800000Y-3175000D02*
G75*
G02X-49530000Y-1905000I1270000J0D01*
G01*
X-49530000Y-1905000D02*
X-48895000Y-1905000D01*
X-48895000Y1905000D02*
G75*
G02X-48895000Y-1905000I0J-1905000D01*
G01*
X-48895000Y1905000D02*
X-49530000Y1905000D01*
X-49530000Y1905000D02*
G75*
G02X-50800000Y3175000I0J1270000D01*
G01*
X-50800000Y52070000D02*
X-50800000Y3175000D01*
X-50800000Y52070000D02*
G75*
G02X-49530000Y53340000I1270000J0D01*
G01*
X11430000Y53340000D02*
X-49530000Y53340000D01*
X11430000Y53340000D02*
G75*
G02X12700000Y52070000I0J-1270000D01*
G01*
X12700000Y52070000D02*
X12700000Y41910000D01*
X13970000Y40640000D02*
G75*
G02X12700000Y41910000I0J1270000D01*
G01*
X13970000Y40640000D02*
X49530000Y40640000D01*
X49530000Y40640000D02*
G75*
G02X50800000Y39370000I0J-1270000D01*
G01*
X50800000Y3175000D02*
X50800000Y39370000D01*
X50800000Y3175000D02*
G75*
G02X49530000Y1905000I-1270000J0D01*
G01*
X48895000Y1905000D02*
X49530000Y1905000D01*
X48895000Y-1905000D02*
G75*
G02X48895000Y1905000I0J1905000D01*
G01*
X49530000Y-1905000D02*
X48895000Y-1905000D01*
X49530000Y-1905000D02*
G75*
G02X50800000Y-3175000I0J-1270000D01*
G01*
X50800000Y-87630000D02*
X50800000Y-3175000D01*
X50800000Y-87630000D02*
G75*
G02X49530000Y-88900000I-1270000J0D01*
G01*
X-49530000Y-88900000D02*
X-36068000Y-88900000D01*
X-49530000Y-88900000D02*
G75*
G02X-50800000Y-87630000I0J1270000D01*
G01*
X-50800000Y-3175000D02*
X-50800000Y-87630000D01*
D12*
X-33020000Y-79375000D03*
X-29210000Y-79375000D03*
X33020000Y-79375000D03*
X29210000Y-79375000D03*
D13*
X15227300Y-79862766D03*
X23533100Y-79862766D03*
X20764500Y-79862766D03*
X17995900Y-79862766D03*
X12458700Y-79862766D03*
X1384300Y-79862766D03*
X9690100Y-79862766D03*
X6921500Y-79862766D03*
X4152900Y-79862766D03*
X-1384300Y-79862766D03*
X-12458700Y-79862766D03*
X-4152900Y-79862766D03*
X-6921500Y-79862766D03*
X-9690100Y-79862766D03*
X-15227300Y-79862766D03*
X-23533100Y-79862766D03*
X-17995900Y-79862766D03*
X-20764500Y-79862766D03*
D14*
X38354000Y33020000D03*
X37846000Y38100000D03*
X37846000Y36830000D03*
X37338000Y32258000D03*
X36830000Y8890000D03*
X-12700000Y34290000D03*
X-43180000Y8890000D03*
X-39370000Y8890000D03*
X-39370000Y12700000D03*
X-43180000Y12700000D03*
X-39370000Y33020000D03*
X-43180000Y36830000D03*
X-39370000Y36830000D03*
X-43180000Y33020000D03*
X-5080000Y46990000D03*
X2540000Y46990000D03*
X6350000Y46990000D03*
X-8890000Y46990000D03*
X-1270000Y46990000D03*
X-35560000Y46990000D03*
X-31750000Y46990000D03*
X-39370000Y46990000D03*
X-27940000Y46990000D03*
X-20320000Y46990000D03*
X-43180000Y46990000D03*
X-24130000Y46990000D03*
X-12700000Y46990000D03*
X-16510000Y46990000D03*
X6350000Y50800000D03*
X2540000Y50800000D03*
X-5080000Y50800000D03*
X-8890000Y50800000D03*
X-12700000Y50800000D03*
X-16510000Y50800000D03*
X-1270000Y50800000D03*
X-20320000Y50800000D03*
X-24130000Y50800000D03*
X-27940000Y50800000D03*
X-31750000Y50800000D03*
X-35560000Y50800000D03*
X-39370000Y50800000D03*
X-43180000Y50800000D03*
X10668000Y27940000D03*
X25400000Y15240000D03*
X27940000Y15240000D03*
X46990000Y19050000D03*
X46990000Y21590000D03*
X46990000Y24130000D03*
X46990000Y39370000D03*
X43180000Y39370000D03*
X26670000Y27940000D03*
X33020000Y25400000D03*
X-7112000Y29210000D03*
X254000Y29210000D03*
X254000Y21844000D03*
X-7112000Y21844000D03*
D15*
X12700000Y-40640000D03*
X12700000Y-35560000D03*
X12700000Y-30480000D03*
X12700000Y-25400000D03*
X7620000Y-40640000D03*
X7620000Y-35560000D03*
X7620000Y-30480000D03*
X7620000Y-25400000D03*
X-2540000Y-25400000D03*
X-2540000Y-30480000D03*
X-2540000Y-35560000D03*
X-2540000Y-40640000D03*
X2540000Y-40640000D03*
X2540000Y-35560000D03*
X2540000Y-30480000D03*
X2540000Y-25400000D03*
D16*
X30480000Y-27940000D03*
D17*
X30480000Y-25400000D03*
X33020000Y-27940000D03*
X33020000Y-25400000D03*
X35560000Y-27940000D03*
X35560000Y-25400000D03*
X38100000Y-27940000D03*
X38100000Y-25400000D03*
D16*
X-38100000Y-27940000D03*
D17*
X-38100000Y-25400000D03*
X-35560000Y-27940000D03*
X-35560000Y-25400000D03*
X-33020000Y-27940000D03*
X-33020000Y-25400000D03*
X-30480000Y-27940000D03*
X-30480000Y-25400000D03*
D15*
X-43180000Y-13970000D03*
X-43180000Y-8890000D03*
X-43180000Y-3810000D03*
X-43180000Y1270000D03*
X-7620000Y-13970000D03*
X-7620000Y-8890000D03*
X-7620000Y-3810000D03*
X-7620000Y1270000D03*
X7620000Y-13970000D03*
X7620000Y-8890000D03*
X7620000Y-3810000D03*
X7620000Y1270000D03*
X2540000Y-13970000D03*
X2540000Y-8890000D03*
X2540000Y-3810000D03*
X2540000Y1270000D03*
X33020000Y-13970000D03*
X33020000Y-8890000D03*
X33020000Y-3810000D03*
X33020000Y1270000D03*
X27940000Y-13970000D03*
X27940000Y-8890000D03*
X27940000Y-3810000D03*
X27940000Y1270000D03*
X43180000Y-13970000D03*
X43180000Y-8890000D03*
X43180000Y-3810000D03*
X43180000Y1270000D03*
X38100000Y-13970000D03*
X38100000Y-8890000D03*
X38100000Y-3810000D03*
X38100000Y1270000D03*
X17780000Y-13970000D03*
X17780000Y-8890000D03*
X17780000Y-3810000D03*
X17780000Y1270000D03*
X12700000Y-13970000D03*
X12700000Y-8890000D03*
X12700000Y-3810000D03*
X12700000Y1270000D03*
X-2540000Y-13970000D03*
X-2540000Y-8890000D03*
X-2540000Y-3810000D03*
X-2540000Y1270000D03*
X-12700000Y-13970000D03*
X-12700000Y-8890000D03*
X-12700000Y-3810000D03*
X-12700000Y1270000D03*
X-17780000Y-13970000D03*
X-17780000Y-8890000D03*
X-17780000Y-3810000D03*
X-17780000Y1270000D03*
X-27940000Y-13970000D03*
X-27940000Y-8890000D03*
X-27940000Y-3810000D03*
X-27940000Y1270000D03*
X-33020000Y-13970000D03*
X-33020000Y-8890000D03*
X-33020000Y-3810000D03*
X-33020000Y1270000D03*
X-38100000Y-13970000D03*
X-38100000Y-8890000D03*
X-38100000Y-3810000D03*
X-38100000Y1270000D03*
X-17780000Y-25400000D03*
X-17780000Y-30480000D03*
X-17780000Y-35560000D03*
X-17780000Y-40640000D03*
X-12700000Y-25400000D03*
X-12700000Y-30480000D03*
X-12700000Y-35560000D03*
X-12700000Y-40640000D03*
X-7620000Y-25400000D03*
X-7620000Y-30480000D03*
X-7620000Y-35560000D03*
X-7620000Y-40640000D03*
D18*
X-40640000Y29210000D03*
D19*
X-40640000Y26670000D03*
X-40640000Y24130000D03*
X-40640000Y21590000D03*
X-40640000Y19050000D03*
X-40640000Y16510000D03*
D15*
X17780000Y-40640000D03*
X17780000Y-35560000D03*
X17780000Y-30480000D03*
X17780000Y-25400000D03*
X43180000Y-52070000D03*
X43180000Y-57150000D03*
X43180000Y-62230000D03*
X43180000Y-67310000D03*
X38100000Y-52070000D03*
X38100000Y-57150000D03*
X38100000Y-62230000D03*
X38100000Y-67310000D03*
X33020000Y-52070000D03*
X33020000Y-57150000D03*
X33020000Y-62230000D03*
X33020000Y-67310000D03*
X27940000Y-52070000D03*
X27940000Y-57150000D03*
X27940000Y-62230000D03*
X27940000Y-67310000D03*
X17780000Y-52070000D03*
X17780000Y-57150000D03*
X17780000Y-62230000D03*
X17780000Y-67310000D03*
X12700000Y-52070000D03*
X12700000Y-57150000D03*
X12700000Y-62230000D03*
X12700000Y-67310000D03*
X7620000Y-52070000D03*
X7620000Y-57150000D03*
X7620000Y-62230000D03*
X7620000Y-67310000D03*
X2540000Y-52070000D03*
X2540000Y-57150000D03*
X2540000Y-62230000D03*
X2540000Y-67310000D03*
X-2540000Y-52070000D03*
X-2540000Y-57150000D03*
X-2540000Y-62230000D03*
X-2540000Y-67310000D03*
X-7620000Y-52070000D03*
X-7620000Y-57150000D03*
X-7620000Y-62230000D03*
X-7620000Y-67310000D03*
X-12700000Y-52070000D03*
X-12700000Y-57150000D03*
X-12700000Y-62230000D03*
X-12700000Y-67310000D03*
X-17780000Y-52070000D03*
X-17780000Y-57150000D03*
X-17780000Y-62230000D03*
X-17780000Y-67310000D03*
X-27940000Y-52070000D03*
X-27940000Y-57150000D03*
X-27940000Y-62230000D03*
X-27940000Y-67310000D03*
X-33020000Y-52070000D03*
X-33020000Y-57150000D03*
X-33020000Y-62230000D03*
X-33020000Y-67310000D03*
X-38100000Y-52070000D03*
X-38100000Y-57150000D03*
X-38100000Y-62230000D03*
X-38100000Y-67310000D03*
X-43180000Y-52070000D03*
X-43180000Y-57150000D03*
X-43180000Y-62230000D03*
X-43180000Y-67310000D03*
D16*
X-40640000Y39992300D03*
D17*
X-40640000Y42532300D03*
X-38100000Y39992300D03*
X-38100000Y42532300D03*
X-35560000Y39992300D03*
X-35560000Y42532300D03*
X-33020000Y39992300D03*
X-33020000Y42532300D03*
X-30480000Y39992300D03*
X-30480000Y42532300D03*
X-27940000Y39992300D03*
X-27940000Y42532300D03*
X-25400000Y39992300D03*
X-25400000Y42532300D03*
X-22860000Y39992300D03*
X-22860000Y42532300D03*
X-20320000Y39992300D03*
X-20320000Y42532300D03*
X-17780000Y39992300D03*
X-17780000Y42532300D03*
X-15240000Y39992300D03*
X-15240000Y42532300D03*
X-12700000Y39992300D03*
X-12700000Y42532300D03*
X-10160000Y39992300D03*
X-10160000Y42532300D03*
X-7620000Y39992300D03*
X-7620000Y42532300D03*
X-5080000Y39992300D03*
X-5080000Y42532300D03*
X-2540000Y39992300D03*
X-2540000Y42532300D03*
X0Y39992300D03*
X0Y42532300D03*
X2540000Y39992300D03*
X2540000Y42532300D03*
X5080000Y39992300D03*
X5080000Y42532300D03*
X7620000Y39992300D03*
X7620000Y42532300D03*
D18*
X-35560000Y32766000D03*
D19*
X-35560000Y35306000D03*
X-33020000Y32766000D03*
X-33020000Y35306000D03*
X-30480000Y32766000D03*
X-30480000Y35306000D03*
X-27940000Y32766000D03*
X-27940000Y35306000D03*
X-25400000Y32766000D03*
X-25400000Y35306000D03*
X-22860000Y32766000D03*
X-22860000Y35306000D03*
X-20320000Y32766000D03*
X-20320000Y35306000D03*
X-17780000Y32766000D03*
X-17780000Y35306000D03*
D16*
X-38100000Y-40640000D03*
D17*
X-38100000Y-38100000D03*
X-35560000Y-40640000D03*
X-35560000Y-38100000D03*
X-33020000Y-40640000D03*
X-33020000Y-38100000D03*
X-30480000Y-40640000D03*
X-30480000Y-38100000D03*
D16*
X30480000Y-40640000D03*
D17*
X30480000Y-38100000D03*
X33020000Y-40640000D03*
X33020000Y-38100000D03*
X35560000Y-40640000D03*
X35560000Y-38100000D03*
X38100000Y-40640000D03*
X38100000Y-38100000D03*
D18*
X33020000Y5080000D03*
D19*
X30480000Y5080000D03*
D18*
X7605000Y5080000D03*
D19*
X5065000Y5080000D03*
D18*
X-12700000Y5080000D03*
D19*
X-15240000Y5080000D03*
D18*
X-38100000Y5080000D03*
D19*
X-40640000Y5080000D03*
D18*
X33020000Y-71120000D03*
D19*
X30480000Y-71120000D03*
D18*
X7620000Y-71120000D03*
D19*
X5080000Y-71120000D03*
D18*
X-12700000Y-71120000D03*
D19*
X-15240000Y-71120000D03*
D18*
X-38100000Y-71120000D03*
D19*
X-40640000Y-71120000D03*
D18*
X12700000Y19050000D03*
D19*
X12700000Y21590000D03*
X15240000Y19050000D03*
X15240000Y21590000D03*
X17780000Y19050000D03*
X17780000Y21590000D03*
X20320000Y19050000D03*
X20320000Y21590000D03*
X22860000Y19050000D03*
X22860000Y21590000D03*
X25400000Y19050000D03*
X25400000Y21590000D03*
X27940000Y19050000D03*
X27940000Y21590000D03*
X30480000Y19050000D03*
X30480000Y21590000D03*
X33020000Y19050000D03*
X33020000Y21590000D03*
X35560000Y19050000D03*
X35560000Y21590000D03*
X38100000Y19050000D03*
X38100000Y21590000D03*
X40640000Y19050000D03*
X40640000Y21590000D03*
X43180000Y19050000D03*
X43180000Y21590000D03*
D14*
X-3302000Y25654000D03*
D20*
X6574000Y21590000D03*
X9174000Y21590000D03*
D21*
X1778000Y15778000D03*
X1778000Y13178000D03*
D20*
X6574000Y29210000D03*
X9174000Y29210000D03*
D21*
X-3048000Y15778000D03*
X-3048000Y13178000D03*
X-3302000Y35530000D03*
X-3302000Y38130000D03*
D20*
X-13178000Y31496000D03*
X-15778000Y31496000D03*
X1554000Y31496000D03*
X-1046000Y31496000D03*
X-13178000Y28702000D03*
X-15778000Y28702000D03*
M02*
