M48
;DRILL file {KiCad 4.0.7} date Monday, June 18, 2018 'PMt' 04:15:27 PM
;FORMAT={-:-/ absolute / metric / decimal}
FMAT,2
METRIC,TZ
T1C0.305
T2C0.800
T3C1.000
T4C1.016
T5C1.270
%
G90
G05
M71
T1
X-43.18Y50.8
X-43.18Y46.99
X-43.18Y36.83
X-43.18Y33.02
X-43.18Y12.7
X-43.18Y8.89
X-39.37Y50.8
X-39.37Y46.99
X-39.37Y36.83
X-39.37Y33.02
X-39.37Y12.7
X-39.37Y8.89
X-39.261Y-48.208
X-37.343Y20.872
X-35.56Y50.8
X-35.56Y46.99
X-35.492Y-20.224
X-34.29Y11.684
X-33.547Y25.068
X-33.534Y19.474
X-33.231Y3.81
X-33.02Y-19.126
X-32.51Y9.379
X-31.75Y50.8
X-31.75Y46.99
X-31.629Y3.959
X-30.726Y4.194
X-29.598Y3.346
X-29.239Y4.187
X-29.135Y-46.938
X-28.194Y4.508
X-27.94Y50.8
X-27.94Y46.99
X-26.67Y11.684
X-26.67Y5.842
X-25.01Y9.386
X-24.895Y-77.014
X-24.865Y4.042
X-24.13Y50.8
X-24.13Y46.99
X-23.957Y4.322
X-23.52Y-77.014
X-22.873Y3.773
X-22.535Y4.643
X-22.128Y-77.014
X-21.484Y2.614
X-20.976Y3.431
X-20.75Y-77.014
X-20.32Y50.8
X-20.32Y46.99
X-19.38Y-77.216
X-19.304Y5.842
X-17.98Y-77.038
X-17.78Y-19.126
X-16.881Y-45.799
X-16.51Y50.8
X-16.51Y46.99
X-15.197Y-77.014
X-12.7Y50.8
X-12.7Y46.99
X-12.7Y34.29
X-12.673Y-20.194
X-12.446Y31.496
X-12.446Y28.702
X-12.443Y-77.014
X-11.43Y11.684
X-11.329Y-46.879
X-9.69Y-77.014
X-9.636Y4.33
X-9.631Y9.415
X-8.89Y50.8
X-8.89Y46.99
X-8.744Y4.296
X-8.484Y35.052
X-7.874Y36.449
X-7.842Y4.536
X-7.625Y-46.848
X-7.517Y30.85
X-7.366Y34.798
X-7.112Y29.21
X-7.112Y21.844
X-6.899Y-77.014
X-6.858Y35.56
X-6.856Y4.032
X-6.79Y-20.164
X-5.921Y37.104
X-5.631Y3.86
X-5.588Y16.002
X-5.564Y-77.043
X-5.187Y37.841
X-5.08Y50.8
X-5.08Y46.99
X-4.707Y36.264
X-4.554Y4.323
X-4.151Y-77.014
X-4.117Y5.294
X-3.81Y11.684
X-3.302Y34.798
X-3.302Y25.654
X-3.142Y16.442
X-2.562Y-45.745
X-2.362Y4.545
X-2.147Y9.393
X-1.392Y-77.014
X-1.27Y50.8
X-1.27Y46.99
X-0.927Y4.65
X-0.168Y4.361
X0.254Y29.21
X0.254Y21.844
X0.699Y4.71
X0.926Y7.435
X1.535Y-77.025
X1.55Y30.043
X1.718Y7.786
X1.808Y16.51
X2.518Y-45.745
X2.533Y-19.065
X2.54Y50.8
X2.54Y46.99
X2.836Y8.065
X4.669Y35.167
X4.696Y32.815
X4.739Y34.036
X5.434Y33.257
X5.449Y35.492
X5.475Y-77.149
X5.516Y34.375
X5.842Y29.261
X5.948Y21.441
X6.096Y-1.524
X6.16Y35.887
X6.35Y50.8
X6.35Y46.99
X6.972Y35.915
X8.354Y-77.138
X10.668Y27.94
X11.143Y-77.174
X11.43Y11.684
X11.684Y4.064
X12.7Y-20.195
X12.7Y-46.931
X13.305Y9.086
X13.81Y3.578
X13.848Y-77.162
X14.685Y4.098
X15.915Y3.263
X16.671Y-77.187
X17.902Y4.255
X18.533Y4.952
X18.542Y5.842
X18.673Y-32.955
X19.05Y11.684
X19.414Y-77.226
X19.651Y-33.905
X20.678Y8.996
X21.082Y4.064
X22.157Y-77.269
X22.606Y4.318
X22.606Y3.302
X23.868Y4.103
X24.892Y4.318
X24.974Y-77.235
X25.4Y15.24
X26.67Y27.94
X27.404Y-45.745
X27.572Y-37.411
X27.631Y-35.558
X27.94Y15.24
X27.94Y-19.05
X30.48Y32.766
X30.502Y37.73
X30.755Y-20.801
X33.019Y11.936
X33.02Y25.4
X36.067Y32.761
X36.83Y8.89
X37.244Y-46.977
X37.338Y32.258
X37.846Y38.1
X37.846Y36.83
X38.104Y23.895
X38.354Y33.02
X39.862Y35.036
X42.926Y16.002
X43.18Y39.37
X43.382Y13.543
X43.434Y12.192
X43.815Y25.76
X46.99Y39.37
X46.99Y24.13
X46.99Y21.59
X46.99Y19.05
T2
X-43.18Y1.27
X-43.18Y-3.81
X-43.18Y-8.89
X-43.18Y-13.97
X-43.18Y-52.07
X-43.18Y-57.15
X-43.18Y-62.23
X-43.18Y-67.31
X-38.1Y1.27
X-38.1Y-3.81
X-38.1Y-8.89
X-38.1Y-13.97
X-38.1Y-52.07
X-38.1Y-57.15
X-38.1Y-62.23
X-38.1Y-67.31
X-33.02Y1.27
X-33.02Y-3.81
X-33.02Y-8.89
X-33.02Y-13.97
X-33.02Y-52.07
X-33.02Y-57.15
X-33.02Y-62.23
X-33.02Y-67.31
X-27.94Y1.27
X-27.94Y-3.81
X-27.94Y-8.89
X-27.94Y-13.97
X-27.94Y-52.07
X-27.94Y-57.15
X-27.94Y-62.23
X-27.94Y-67.31
X-17.78Y1.27
X-17.78Y-3.81
X-17.78Y-8.89
X-17.78Y-13.97
X-17.78Y-25.4
X-17.78Y-30.48
X-17.78Y-35.56
X-17.78Y-40.64
X-17.78Y-52.07
X-17.78Y-57.15
X-17.78Y-62.23
X-17.78Y-67.31
X-12.7Y1.27
X-12.7Y-3.81
X-12.7Y-8.89
X-12.7Y-13.97
X-12.7Y-25.4
X-12.7Y-30.48
X-12.7Y-35.56
X-12.7Y-40.64
X-12.7Y-52.07
X-12.7Y-57.15
X-12.7Y-62.23
X-12.7Y-67.31
X-7.62Y1.27
X-7.62Y-3.81
X-7.62Y-8.89
X-7.62Y-13.97
X-7.62Y-25.4
X-7.62Y-30.48
X-7.62Y-35.56
X-7.62Y-40.64
X-7.62Y-52.07
X-7.62Y-57.15
X-7.62Y-62.23
X-7.62Y-67.31
X-2.54Y1.27
X-2.54Y-3.81
X-2.54Y-8.89
X-2.54Y-13.97
X-2.54Y-25.4
X-2.54Y-30.48
X-2.54Y-35.56
X-2.54Y-40.64
X-2.54Y-52.07
X-2.54Y-57.15
X-2.54Y-62.23
X-2.54Y-67.31
X2.54Y1.27
X2.54Y-3.81
X2.54Y-8.89
X2.54Y-13.97
X2.54Y-25.4
X2.54Y-30.48
X2.54Y-35.56
X2.54Y-40.64
X2.54Y-52.07
X2.54Y-57.15
X2.54Y-62.23
X2.54Y-67.31
X7.62Y1.27
X7.62Y-3.81
X7.62Y-8.89
X7.62Y-13.97
X7.62Y-25.4
X7.62Y-30.48
X7.62Y-35.56
X7.62Y-40.64
X7.62Y-52.07
X7.62Y-57.15
X7.62Y-62.23
X7.62Y-67.31
X12.7Y1.27
X12.7Y-3.81
X12.7Y-8.89
X12.7Y-13.97
X12.7Y-25.4
X12.7Y-30.48
X12.7Y-35.56
X12.7Y-40.64
X12.7Y-52.07
X12.7Y-57.15
X12.7Y-62.23
X12.7Y-67.31
X17.78Y1.27
X17.78Y-3.81
X17.78Y-8.89
X17.78Y-13.97
X17.78Y-25.4
X17.78Y-30.48
X17.78Y-35.56
X17.78Y-40.64
X17.78Y-52.07
X17.78Y-57.15
X17.78Y-62.23
X17.78Y-67.31
X27.94Y1.27
X27.94Y-3.81
X27.94Y-8.89
X27.94Y-13.97
X27.94Y-52.07
X27.94Y-57.15
X27.94Y-62.23
X27.94Y-67.31
X33.02Y1.27
X33.02Y-3.81
X33.02Y-8.89
X33.02Y-13.97
X33.02Y-52.07
X33.02Y-57.15
X33.02Y-62.23
X33.02Y-67.31
X38.1Y1.27
X38.1Y-3.81
X38.1Y-8.89
X38.1Y-13.97
X38.1Y-52.07
X38.1Y-57.15
X38.1Y-62.23
X38.1Y-67.31
X43.18Y1.27
X43.18Y-3.81
X43.18Y-8.89
X43.18Y-13.97
X43.18Y-52.07
X43.18Y-57.15
X43.18Y-62.23
X43.18Y-67.31
T3
X-40.64Y29.21
X-40.64Y26.67
X-40.64Y24.13
X-40.64Y21.59
X-40.64Y19.05
X-40.64Y16.51
X-40.64Y5.08
X-40.64Y-71.12
X-38.1Y5.08
X-38.1Y-71.12
X-35.56Y35.306
X-35.56Y32.766
X-33.02Y35.306
X-33.02Y32.766
X-30.48Y35.306
X-30.48Y32.766
X-27.94Y35.306
X-27.94Y32.766
X-25.4Y35.306
X-25.4Y32.766
X-22.86Y35.306
X-22.86Y32.766
X-20.32Y35.306
X-20.32Y32.766
X-17.78Y35.306
X-17.78Y32.766
X-15.24Y5.08
X-15.24Y-71.12
X-12.7Y5.08
X-12.7Y-71.12
X5.065Y5.08
X5.08Y-71.12
X7.605Y5.08
X7.62Y-71.12
X12.7Y21.59
X12.7Y19.05
X15.24Y21.59
X15.24Y19.05
X17.78Y21.59
X17.78Y19.05
X20.32Y21.59
X20.32Y19.05
X22.86Y21.59
X22.86Y19.05
X25.4Y21.59
X25.4Y19.05
X27.94Y21.59
X27.94Y19.05
X30.48Y21.59
X30.48Y19.05
X30.48Y5.08
X30.48Y-71.12
X33.02Y21.59
X33.02Y19.05
X33.02Y5.08
X33.02Y-71.12
X35.56Y21.59
X35.56Y19.05
X38.1Y21.59
X38.1Y19.05
X40.64Y21.59
X40.64Y19.05
X43.18Y21.59
X43.18Y19.05
T4
X-40.64Y42.532
X-40.64Y39.992
X-38.1Y42.532
X-38.1Y39.992
X-38.1Y-25.4
X-38.1Y-27.94
X-38.1Y-38.1
X-38.1Y-40.64
X-35.56Y42.532
X-35.56Y39.992
X-35.56Y-25.4
X-35.56Y-27.94
X-35.56Y-38.1
X-35.56Y-40.64
X-33.02Y42.532
X-33.02Y39.992
X-33.02Y-25.4
X-33.02Y-27.94
X-33.02Y-38.1
X-33.02Y-40.64
X-30.48Y42.532
X-30.48Y39.992
X-30.48Y-25.4
X-30.48Y-27.94
X-30.48Y-38.1
X-30.48Y-40.64
X-27.94Y42.532
X-27.94Y39.992
X-25.4Y42.532
X-25.4Y39.992
X-22.86Y42.532
X-22.86Y39.992
X-20.32Y42.532
X-20.32Y39.992
X-17.78Y42.532
X-17.78Y39.992
X-15.24Y42.532
X-15.24Y39.992
X-12.7Y42.532
X-12.7Y39.992
X-10.16Y42.532
X-10.16Y39.992
X-7.62Y42.532
X-7.62Y39.992
X-5.08Y42.532
X-5.08Y39.992
X-2.54Y42.532
X-2.54Y39.992
X0.Y42.532
X0.Y39.992
X2.54Y42.532
X2.54Y39.992
X5.08Y42.532
X5.08Y39.992
X7.62Y42.532
X7.62Y39.992
X30.48Y-25.4
X30.48Y-27.94
X30.48Y-38.1
X30.48Y-40.64
X33.02Y-25.4
X33.02Y-27.94
X33.02Y-38.1
X33.02Y-40.64
X35.56Y-25.4
X35.56Y-27.94
X35.56Y-38.1
X35.56Y-40.64
X38.1Y-25.4
X38.1Y-27.94
X38.1Y-38.1
X38.1Y-40.64
T5
X-33.02Y-79.375
X-30.562Y-17.242
X-29.21Y-79.375
X-27.956Y-22.076
X-18.434Y-48.733
X-13.506Y-43.923
X-8.001Y-17.074
X-2.562Y-22.02
X17.786Y-22.054
X27.835Y-33.282
X29.21Y-79.375
X30.284Y-44.985
X31.242Y-17.162
X33.02Y-79.375
T0
M30
