G04 #@! TF.FileFunction,Profile,NP*
%FSLAX46Y46*%
G04 Gerber Fmt 4.6, Leading zero omitted, Abs format (unit mm)*
G04 Created by KiCad (PCBNEW 4.0.7) date Monday, June 18, 2018 'PMt' 03:40:44 PM*
%MOMM*%
%LPD*%
G01*
G04 APERTURE LIST*
%ADD10C,0.020000*%
%ADD11C,0.100000*%
G04 APERTURE END LIST*
D10*
D11*
X36068000Y-88900000D02*
X49530000Y-88900000D01*
X34798000Y-83820000D02*
X34798000Y-87630000D01*
X-33528000Y-82550000D02*
X33528000Y-82550000D01*
X-34798000Y-83820000D02*
X-34798000Y-87630000D01*
X34798000Y-83820000D02*
G75*
G03X33528000Y-82550000I-1270000J0D01*
G01*
X34798000Y-87630000D02*
G75*
G03X36068000Y-88900000I1270000J0D01*
G01*
X-33530217Y-82550002D02*
G75*
G03X-34798000Y-83820000I2217J-1269998D01*
G01*
X-34798000Y-87630000D02*
G75*
G02X-36068000Y-88900000I-1270000J0D01*
G01*
X-50800000Y-3175000D02*
G75*
G02X-49530000Y-1905000I1270000J0D01*
G01*
X-49530000Y-1905000D02*
X-48895000Y-1905000D01*
X-48895000Y1905000D02*
G75*
G02X-48895000Y-1905000I0J-1905000D01*
G01*
X-48895000Y1905000D02*
X-49530000Y1905000D01*
X-49530000Y1905000D02*
G75*
G02X-50800000Y3175000I0J1270000D01*
G01*
X-50800000Y52070000D02*
X-50800000Y3175000D01*
X-50800000Y52070000D02*
G75*
G02X-49530000Y53340000I1270000J0D01*
G01*
X11430000Y53340000D02*
X-49530000Y53340000D01*
X11430000Y53340000D02*
G75*
G02X12700000Y52070000I0J-1270000D01*
G01*
X12700000Y52070000D02*
X12700000Y41910000D01*
X13970000Y40640000D02*
G75*
G02X12700000Y41910000I0J1270000D01*
G01*
X13970000Y40640000D02*
X49530000Y40640000D01*
X49530000Y40640000D02*
G75*
G02X50800000Y39370000I0J-1270000D01*
G01*
X50800000Y3175000D02*
X50800000Y39370000D01*
X50800000Y3175000D02*
G75*
G02X49530000Y1905000I-1270000J0D01*
G01*
X48895000Y1905000D02*
X49530000Y1905000D01*
X48895000Y-1905000D02*
G75*
G02X48895000Y1905000I0J1905000D01*
G01*
X49530000Y-1905000D02*
X48895000Y-1905000D01*
X49530000Y-1905000D02*
G75*
G02X50800000Y-3175000I0J-1270000D01*
G01*
X50800000Y-87630000D02*
X50800000Y-3175000D01*
X50800000Y-87630000D02*
G75*
G02X49530000Y-88900000I-1270000J0D01*
G01*
X-49530000Y-88900000D02*
X-36068000Y-88900000D01*
X-49530000Y-88900000D02*
G75*
G02X-50800000Y-87630000I0J1270000D01*
G01*
X-50800000Y-3175000D02*
X-50800000Y-87630000D01*
M02*
