G04 #@! TF.FileFunction,Legend,Top*
%FSLAX46Y46*%
G04 Gerber Fmt 4.6, Leading zero omitted, Abs format (unit mm)*
G04 Created by KiCad (PCBNEW 4.0.7) date Friday, April 27, 2018 'PMt' 12:19:07 PM*
%MOMM*%
%LPD*%
G01*
G04 APERTURE LIST*
%ADD10C,0.100000*%
%ADD11C,0.120000*%
%ADD12C,0.150000*%
G04 APERTURE END LIST*
D10*
D11*
X168983219Y-92202000D02*
G75*
G03X168983219Y-92202000I-803219J0D01*
G01*
X168983219Y-89662000D02*
G75*
G03X168983219Y-89662000I-803219J0D01*
G01*
X168983219Y-87122000D02*
G75*
G03X168983219Y-87122000I-803219J0D01*
G01*
X227911219Y-100838000D02*
G75*
G03X227911219Y-100838000I-803219J0D01*
G01*
X231467219Y-113284000D02*
G75*
G03X231467219Y-113284000I-803219J0D01*
G01*
X219021219Y-127762000D02*
G75*
G03X219021219Y-127762000I-803219J0D01*
G01*
X219021219Y-127762000D02*
G75*
G03X219021219Y-127762000I-803219J0D01*
G01*
X203527219Y-127762000D02*
G75*
G03X203527219Y-127762000I-803219J0D01*
G01*
X182953219Y-130556000D02*
G75*
G03X182953219Y-130556000I-803219J0D01*
G01*
X180413219Y-130556000D02*
G75*
G03X180413219Y-130556000I-803219J0D01*
G01*
X177873219Y-130556000D02*
G75*
G03X177873219Y-130556000I-803219J0D01*
G01*
X175333219Y-130556000D02*
G75*
G03X175333219Y-130556000I-803219J0D01*
G01*
X172793219Y-130556000D02*
G75*
G03X172793219Y-130556000I-803219J0D01*
G01*
X187525219Y-120396000D02*
G75*
G03X187525219Y-120396000I-803219J0D01*
G01*
X168221219Y-198882000D02*
G75*
G03X168221219Y-198882000I-803219J0D01*
G01*
X251025219Y-198882000D02*
G75*
G03X251025219Y-198882000I-803219J0D01*
G01*
X243913219Y-88392000D02*
G75*
G03X243913219Y-88392000I-803219J0D01*
G01*
X188033219Y-88392000D02*
G75*
G03X188033219Y-88392000I-803219J0D01*
G01*
X224863219Y-97536000D02*
G75*
G03X224863219Y-97536000I-803219J0D01*
G01*
X187525219Y-117602000D02*
G75*
G03X187525219Y-117602000I-803219J0D01*
G01*
D12*
X198146000Y-170948000D02*
X198146000Y-190748000D01*
X198146000Y-190748000D02*
X192506000Y-190748000D01*
X192506000Y-190748000D02*
X192506000Y-170948000D01*
X192506000Y-170948000D02*
X198146000Y-170948000D01*
X198146000Y-175768000D02*
X192506000Y-175768000D01*
X191796000Y-173488000D02*
X191796000Y-193288000D01*
X191796000Y-193288000D02*
X186156000Y-193288000D01*
X186156000Y-193288000D02*
X186156000Y-173488000D01*
X186156000Y-173488000D02*
X191796000Y-173488000D01*
X191796000Y-178308000D02*
X186156000Y-178308000D01*
X181636000Y-170948000D02*
X181636000Y-190748000D01*
X181636000Y-190748000D02*
X175996000Y-190748000D01*
X175996000Y-190748000D02*
X175996000Y-170948000D01*
X175996000Y-170948000D02*
X181636000Y-170948000D01*
X181636000Y-175768000D02*
X175996000Y-175768000D01*
X175286000Y-173441306D02*
X175286000Y-193241306D01*
X175286000Y-193241306D02*
X169646000Y-193241306D01*
X169646000Y-193241306D02*
X169646000Y-173441306D01*
X169646000Y-173441306D02*
X175286000Y-173441306D01*
X175286000Y-178261306D02*
X169646000Y-178261306D01*
X181636000Y-146056000D02*
X181636000Y-165856000D01*
X181636000Y-165856000D02*
X175996000Y-165856000D01*
X175996000Y-165856000D02*
X175996000Y-146056000D01*
X175996000Y-146056000D02*
X181636000Y-146056000D01*
X181636000Y-150876000D02*
X175996000Y-150876000D01*
X175286000Y-148596000D02*
X175286000Y-168396000D01*
X175286000Y-168396000D02*
X169646000Y-168396000D01*
X169646000Y-168396000D02*
X169646000Y-148596000D01*
X169646000Y-148596000D02*
X175286000Y-148596000D01*
X175286000Y-153416000D02*
X169646000Y-153416000D01*
X198146000Y-146056000D02*
X198146000Y-165856000D01*
X198146000Y-165856000D02*
X192506000Y-165856000D01*
X192506000Y-165856000D02*
X192506000Y-146056000D01*
X192506000Y-146056000D02*
X198146000Y-146056000D01*
X198146000Y-150876000D02*
X192506000Y-150876000D01*
D11*
X225536000Y-108708000D02*
X223536000Y-108708000D01*
X223536000Y-110748000D02*
X225536000Y-110748000D01*
X201978000Y-102112000D02*
X203978000Y-102112000D01*
X203978000Y-100072000D02*
X201978000Y-100072000D01*
X209673000Y-95933000D02*
X209673000Y-97933000D01*
X211713000Y-97933000D02*
X211713000Y-95933000D01*
X222996000Y-102358000D02*
X220996000Y-102358000D01*
X220996000Y-104398000D02*
X222996000Y-104398000D01*
X199914000Y-119384000D02*
X201914000Y-119384000D01*
X201914000Y-117344000D02*
X199914000Y-117344000D01*
X190242000Y-134350000D02*
X190242000Y-136350000D01*
X192282000Y-136350000D02*
X192282000Y-134350000D01*
X177054000Y-97580000D02*
X175054000Y-97580000D01*
X175054000Y-100540000D02*
X177054000Y-100540000D01*
X175248000Y-109458000D02*
X175248000Y-107458000D01*
X172288000Y-107458000D02*
X172288000Y-109458000D01*
X180210000Y-107788000D02*
X180210000Y-108488000D01*
X179010000Y-108488000D02*
X179010000Y-107788000D01*
X182674000Y-111970000D02*
X184674000Y-111970000D01*
X184674000Y-109010000D02*
X182674000Y-109010000D01*
X225536000Y-114296000D02*
X223536000Y-114296000D01*
X223536000Y-116336000D02*
X225536000Y-116336000D01*
X205248000Y-124464000D02*
X207248000Y-124464000D01*
X207248000Y-122424000D02*
X205248000Y-122424000D01*
X203958000Y-134414000D02*
X203958000Y-136414000D01*
X205998000Y-136414000D02*
X205998000Y-134414000D01*
X215884000Y-122424000D02*
X213884000Y-122424000D01*
X213884000Y-124464000D02*
X215884000Y-124464000D01*
X182669009Y-115780000D02*
X184669009Y-115780000D01*
X184669009Y-112820000D02*
X182669009Y-112820000D01*
X177228000Y-112430000D02*
X177928000Y-112430000D01*
X177928000Y-113630000D02*
X177228000Y-113630000D01*
X180446009Y-120718215D02*
X178446009Y-120718215D01*
X178446009Y-123678215D02*
X180446009Y-123678215D01*
X217420000Y-134350000D02*
X217420000Y-136350000D01*
X219460000Y-136350000D02*
X219460000Y-134350000D01*
X171864000Y-92074000D02*
X171864000Y-93944000D01*
X171864000Y-98934000D02*
X171864000Y-97064000D01*
X180244000Y-99694000D02*
X180244000Y-97064000D01*
X180244000Y-91314000D02*
X180244000Y-93944000D01*
X180244000Y-99694000D02*
X172624000Y-99694000D01*
X172624000Y-99694000D02*
X171864000Y-98934000D01*
X171864000Y-92074000D02*
X172624000Y-91314000D01*
X172624000Y-91314000D02*
X180244000Y-91314000D01*
X243691000Y-93557000D02*
X243691000Y-94657000D01*
X243691000Y-94657000D02*
X246291000Y-94657000D01*
X243691000Y-93557000D02*
X246291000Y-93557000D01*
X243691000Y-95462000D02*
X243691000Y-96562000D01*
X243691000Y-96562000D02*
X246291000Y-96562000D01*
X243691000Y-95462000D02*
X246291000Y-95462000D01*
X243691000Y-97367000D02*
X243691000Y-98467000D01*
X243691000Y-98467000D02*
X246291000Y-98467000D01*
X243691000Y-97367000D02*
X246291000Y-97367000D01*
X243691000Y-99272000D02*
X243691000Y-100372000D01*
X243691000Y-100372000D02*
X246291000Y-100372000D01*
X243691000Y-99272000D02*
X246291000Y-99272000D01*
X243691000Y-102193000D02*
X243691000Y-103293000D01*
X243691000Y-103293000D02*
X246291000Y-103293000D01*
X243691000Y-102193000D02*
X246291000Y-102193000D01*
X243691000Y-104098000D02*
X243691000Y-105198000D01*
X243691000Y-105198000D02*
X246291000Y-105198000D01*
X243691000Y-104098000D02*
X246291000Y-104098000D01*
X243691000Y-106003000D02*
X243691000Y-107103000D01*
X243691000Y-107103000D02*
X246291000Y-107103000D01*
X243691000Y-106003000D02*
X246291000Y-106003000D01*
X243691000Y-107908000D02*
X243691000Y-109008000D01*
X243691000Y-109008000D02*
X246291000Y-109008000D01*
X243691000Y-107908000D02*
X246291000Y-107908000D01*
X243691000Y-110829000D02*
X243691000Y-111929000D01*
X243691000Y-111929000D02*
X246291000Y-111929000D01*
X243691000Y-110829000D02*
X246291000Y-110829000D01*
X243691000Y-112734000D02*
X243691000Y-113834000D01*
X243691000Y-113834000D02*
X246291000Y-113834000D01*
X243691000Y-112734000D02*
X246291000Y-112734000D01*
X243691000Y-114639000D02*
X243691000Y-115739000D01*
X243691000Y-115739000D02*
X246291000Y-115739000D01*
X243691000Y-114639000D02*
X246291000Y-114639000D01*
X243691000Y-116544000D02*
X243691000Y-117644000D01*
X243691000Y-117644000D02*
X246291000Y-117644000D01*
X243691000Y-116544000D02*
X246291000Y-116544000D01*
X243691000Y-119465000D02*
X243691000Y-120565000D01*
X243691000Y-120565000D02*
X246291000Y-120565000D01*
X243691000Y-119465000D02*
X246291000Y-119465000D01*
X243691000Y-121370000D02*
X243691000Y-122470000D01*
X243691000Y-122470000D02*
X246291000Y-122470000D01*
X243691000Y-121370000D02*
X246291000Y-121370000D01*
X243691000Y-123275000D02*
X243691000Y-124375000D01*
X243691000Y-124375000D02*
X246291000Y-124375000D01*
X243691000Y-123275000D02*
X246291000Y-123275000D01*
X243691000Y-125180000D02*
X243691000Y-126280000D01*
X243691000Y-126280000D02*
X246291000Y-126280000D01*
X243691000Y-125180000D02*
X246291000Y-125180000D01*
X243691000Y-128101000D02*
X243691000Y-129201000D01*
X243691000Y-129201000D02*
X246291000Y-129201000D01*
X243691000Y-128101000D02*
X246291000Y-128101000D01*
X243691000Y-130006000D02*
X243691000Y-131106000D01*
X243691000Y-131106000D02*
X246291000Y-131106000D01*
X243691000Y-130006000D02*
X246291000Y-130006000D01*
X243691000Y-131911000D02*
X243691000Y-133011000D01*
X243691000Y-133011000D02*
X246291000Y-133011000D01*
X243691000Y-131911000D02*
X246291000Y-131911000D01*
X243691000Y-133816000D02*
X243691000Y-134916000D01*
X243691000Y-134916000D02*
X246291000Y-134916000D01*
X243691000Y-133816000D02*
X246291000Y-133816000D01*
X170266000Y-96504000D02*
X170266000Y-98504000D01*
X168126000Y-98504000D02*
X168126000Y-96504000D01*
X170266000Y-103140000D02*
X170266000Y-105140000D01*
X168126000Y-105140000D02*
X168126000Y-103140000D01*
X173836009Y-120753215D02*
X173836009Y-118753215D01*
X175976009Y-118753215D02*
X175976009Y-120753215D01*
X175716009Y-114143215D02*
X177716009Y-114143215D01*
X177716009Y-116283215D02*
X175716009Y-116283215D01*
D12*
X191796000Y-148587808D02*
X191796000Y-168387808D01*
X191796000Y-168387808D02*
X186156000Y-168387808D01*
X186156000Y-168387808D02*
X186156000Y-148587808D01*
X186156000Y-148587808D02*
X191796000Y-148587808D01*
X191796000Y-153407808D02*
X186156000Y-153407808D01*
X214656000Y-146056000D02*
X214656000Y-165856000D01*
X214656000Y-165856000D02*
X209016000Y-165856000D01*
X209016000Y-165856000D02*
X209016000Y-146056000D01*
X209016000Y-146056000D02*
X214656000Y-146056000D01*
X214656000Y-150876000D02*
X209016000Y-150876000D01*
X208306000Y-148596000D02*
X208306000Y-168396000D01*
X208306000Y-168396000D02*
X202666000Y-168396000D01*
X202666000Y-168396000D02*
X202666000Y-148596000D01*
X202666000Y-148596000D02*
X208306000Y-148596000D01*
X208306000Y-153416000D02*
X202666000Y-153416000D01*
X214656000Y-170948000D02*
X214656000Y-190748000D01*
X214656000Y-190748000D02*
X209016000Y-190748000D01*
X209016000Y-190748000D02*
X209016000Y-170948000D01*
X209016000Y-170948000D02*
X214656000Y-170948000D01*
X214656000Y-175768000D02*
X209016000Y-175768000D01*
X208306000Y-173488000D02*
X208306000Y-193288000D01*
X208306000Y-193288000D02*
X202666000Y-193288000D01*
X202666000Y-193288000D02*
X202666000Y-173488000D01*
X202666000Y-173488000D02*
X208306000Y-173488000D01*
X208306000Y-178308000D02*
X202666000Y-178308000D01*
X231166000Y-146056000D02*
X231166000Y-165856000D01*
X231166000Y-165856000D02*
X225526000Y-165856000D01*
X225526000Y-165856000D02*
X225526000Y-146056000D01*
X225526000Y-146056000D02*
X231166000Y-146056000D01*
X231166000Y-150876000D02*
X225526000Y-150876000D01*
X224816000Y-148596000D02*
X224816000Y-168396000D01*
X224816000Y-168396000D02*
X219176000Y-168396000D01*
X219176000Y-168396000D02*
X219176000Y-148596000D01*
X219176000Y-148596000D02*
X224816000Y-148596000D01*
X224816000Y-153416000D02*
X219176000Y-153416000D01*
X231166000Y-170948000D02*
X231166000Y-190748000D01*
X231166000Y-190748000D02*
X225526000Y-190748000D01*
X225526000Y-190748000D02*
X225526000Y-170948000D01*
X225526000Y-170948000D02*
X231166000Y-170948000D01*
X231166000Y-175768000D02*
X225526000Y-175768000D01*
X224816000Y-173488000D02*
X224816000Y-193288000D01*
X224816000Y-193288000D02*
X219176000Y-193288000D01*
X219176000Y-193288000D02*
X219176000Y-173488000D01*
X219176000Y-173488000D02*
X224816000Y-173488000D01*
X224816000Y-178308000D02*
X219176000Y-178308000D01*
X247676000Y-146056000D02*
X247676000Y-165856000D01*
X247676000Y-165856000D02*
X242036000Y-165856000D01*
X242036000Y-165856000D02*
X242036000Y-146056000D01*
X242036000Y-146056000D02*
X247676000Y-146056000D01*
X247676000Y-150876000D02*
X242036000Y-150876000D01*
X241326000Y-148596000D02*
X241326000Y-168396000D01*
X241326000Y-168396000D02*
X235686000Y-168396000D01*
X235686000Y-168396000D02*
X235686000Y-148596000D01*
X235686000Y-148596000D02*
X241326000Y-148596000D01*
X241326000Y-153416000D02*
X235686000Y-153416000D01*
X247676000Y-170948000D02*
X247676000Y-190748000D01*
X247676000Y-190748000D02*
X242036000Y-190748000D01*
X242036000Y-190748000D02*
X242036000Y-170948000D01*
X242036000Y-170948000D02*
X247676000Y-170948000D01*
X247676000Y-175768000D02*
X242036000Y-175768000D01*
X241326000Y-173488000D02*
X241326000Y-193288000D01*
X241326000Y-193288000D02*
X235686000Y-193288000D01*
X235686000Y-193288000D02*
X235686000Y-173488000D01*
X235686000Y-173488000D02*
X241326000Y-173488000D01*
X241326000Y-178308000D02*
X235686000Y-178308000D01*
X193628000Y-133026000D02*
X193628000Y-137426000D01*
X199153000Y-131451000D02*
X199153000Y-137426000D01*
X176822500Y-106537000D02*
X179272500Y-106537000D01*
X176097500Y-103237000D02*
X179272500Y-103237000D01*
X210568000Y-120864982D02*
X211080652Y-120352330D01*
X200421018Y-110718000D02*
X200986703Y-110152315D01*
X210568000Y-100571018D02*
X210002315Y-101136703D01*
X220714982Y-110718000D02*
X220149297Y-111283685D01*
X210568000Y-120864982D02*
X210002315Y-120299297D01*
X220714982Y-110718000D02*
X220149297Y-110152315D01*
X210568000Y-100571018D02*
X211133685Y-101136703D01*
X200421018Y-110718000D02*
X200986703Y-111283685D01*
X211080652Y-120352330D02*
X211982214Y-121253891D01*
X207211500Y-133026000D02*
X207211500Y-137426000D01*
X212736500Y-131451000D02*
X212736500Y-137426000D01*
X220795000Y-133026000D02*
X220795000Y-137426000D01*
X226320000Y-131451000D02*
X226320000Y-137426000D01*
X180576009Y-116738215D02*
X178126009Y-116738215D01*
X181301009Y-120038215D02*
X178126009Y-120038215D01*
D11*
X178654000Y-89722000D02*
X178654000Y-87062000D01*
X176054000Y-89722000D02*
X178654000Y-89722000D01*
X176054000Y-87062000D02*
X178654000Y-87062000D01*
X176054000Y-89722000D02*
X176054000Y-87062000D01*
X174784000Y-89722000D02*
X173454000Y-89722000D01*
X173454000Y-89722000D02*
X173454000Y-88392000D01*
X206308000Y-89722000D02*
X206308000Y-87062000D01*
X193548000Y-89722000D02*
X206308000Y-89722000D01*
X193548000Y-87062000D02*
X206308000Y-87062000D01*
X193548000Y-89722000D02*
X193548000Y-87062000D01*
X192278000Y-89722000D02*
X190948000Y-89722000D01*
X190948000Y-89722000D02*
X190948000Y-88392000D01*
X182885092Y-208594000D02*
X182885092Y-205934000D01*
X172665092Y-208594000D02*
X182885092Y-208594000D01*
X172665092Y-205934000D02*
X182885092Y-205934000D01*
X172665092Y-208594000D02*
X172665092Y-205934000D01*
X171395092Y-208594000D02*
X170065092Y-208594000D01*
X170065092Y-208594000D02*
X170065092Y-207264000D01*
X182940000Y-203768000D02*
X182940000Y-201108000D01*
X172720000Y-203768000D02*
X182940000Y-203768000D01*
X172720000Y-201108000D02*
X182940000Y-201108000D01*
X172720000Y-203768000D02*
X172720000Y-201108000D01*
X171450000Y-203768000D02*
X170120000Y-203768000D01*
X170120000Y-203768000D02*
X170120000Y-202438000D01*
X247456000Y-208594000D02*
X247456000Y-205934000D01*
X237236000Y-208594000D02*
X247456000Y-208594000D01*
X237236000Y-205934000D02*
X247456000Y-205934000D01*
X237236000Y-208594000D02*
X237236000Y-205934000D01*
X235966000Y-208594000D02*
X234636000Y-208594000D01*
X234636000Y-208594000D02*
X234636000Y-207264000D01*
X247456000Y-203768000D02*
X247456000Y-201108000D01*
X237236000Y-203768000D02*
X247456000Y-203768000D01*
X237236000Y-201108000D02*
X247456000Y-201108000D01*
X237236000Y-203768000D02*
X237236000Y-201108000D01*
X235966000Y-203768000D02*
X234636000Y-203768000D01*
X234636000Y-203768000D02*
X234636000Y-202438000D01*
X236788000Y-92262000D02*
X236788000Y-87062000D01*
X224028000Y-92262000D02*
X236788000Y-92262000D01*
X221428000Y-87062000D02*
X236788000Y-87062000D01*
X224028000Y-92262000D02*
X224028000Y-89662000D01*
X224028000Y-89662000D02*
X221428000Y-89662000D01*
X221428000Y-89662000D02*
X221428000Y-87062000D01*
X222758000Y-92262000D02*
X221428000Y-92262000D01*
X221428000Y-92262000D02*
X221428000Y-90932000D01*
X187230000Y-104394000D02*
X181642000Y-104394000D01*
X181642000Y-98806000D02*
X187230000Y-98806000D01*
X229168000Y-208594000D02*
X229168000Y-205934000D01*
X191008000Y-208594000D02*
X229168000Y-208594000D01*
X191008000Y-205934000D02*
X229168000Y-205934000D01*
X191008000Y-208594000D02*
X191008000Y-205934000D01*
X189738000Y-208594000D02*
X188408000Y-208594000D01*
X188408000Y-208594000D02*
X188408000Y-207264000D01*
X175022000Y-103178000D02*
X173022000Y-103178000D01*
X173022000Y-101038000D02*
X175022000Y-101038000D01*
D12*
X170953048Y-99425429D02*
X171714953Y-99425429D01*
X171334001Y-99806381D02*
X171334001Y-99044476D01*
M02*
