G04 #@! TF.FileFunction,Copper,L1,Top,Signal*
%FSLAX46Y46*%
G04 Gerber Fmt 4.6, Leading zero omitted, Abs format (unit mm)*
G04 Created by KiCad (PCBNEW 4.0.7) date Wednesday, April 25, 2018 'PMt' 03:38:07 PM*
%MOMM*%
%LPD*%
G01*
G04 APERTURE LIST*
%ADD10C,0.100000*%
%ADD11R,2.000000X1.600000*%
%ADD12R,1.600000X2.000000*%
%ADD13R,2.500000X2.000000*%
%ADD14R,0.750000X1.200000*%
%ADD15R,1.200000X0.750000*%
%ADD16R,2.000000X2.500000*%
%ADD17R,2.500000X4.000000*%
%ADD18R,1.200000X0.900000*%
%ADD19R,2.000000X1.700000*%
%ADD20R,1.700000X2.000000*%
%ADD21C,2.000000*%
%ADD22R,0.450000X1.500000*%
%ADD23R,0.650000X0.300000*%
%ADD24R,0.775000X1.240000*%
%ADD25R,1.700000X1.700000*%
%ADD26O,1.700000X1.700000*%
%ADD27R,0.600000X0.350000*%
%ADD28R,5.900000X1.600000*%
%ADD29C,1.270000*%
%ADD30C,0.152400*%
G04 APERTURE END LIST*
D10*
D11*
X223298000Y-104140000D03*
X227298000Y-104140000D03*
X199485000Y-102235000D03*
X195485000Y-102235000D03*
D12*
X211455000Y-93345000D03*
X211455000Y-89345000D03*
D11*
X220758000Y-97536000D03*
X224758000Y-97536000D03*
X203676000Y-112776000D03*
X199676000Y-112776000D03*
D12*
X187706000Y-131762000D03*
X187706000Y-127762000D03*
D13*
X172085000Y-102140000D03*
X172085000Y-106140000D03*
X175260000Y-102140000D03*
X175260000Y-106140000D03*
D14*
X185420000Y-100970000D03*
X185420000Y-102870000D03*
D13*
X182245000Y-94710000D03*
X182245000Y-90710000D03*
D11*
X223298000Y-109728000D03*
X227298000Y-109728000D03*
X209010000Y-117856000D03*
X205010000Y-117856000D03*
D12*
X205740000Y-131826000D03*
X205740000Y-127826000D03*
D11*
X213646000Y-117856000D03*
X217646000Y-117856000D03*
D13*
X176530000Y-114840000D03*
X176530000Y-118840000D03*
D15*
X184465000Y-121285000D03*
X182565000Y-121285000D03*
D16*
X183515000Y-112395000D03*
X179515000Y-112395000D03*
D12*
X223520000Y-131762000D03*
X223520000Y-127762000D03*
D17*
X175895000Y-95760000D03*
X175895000Y-89660000D03*
D18*
X245153000Y-88519000D03*
X247353000Y-88519000D03*
X245153000Y-90424000D03*
X247353000Y-90424000D03*
X245153000Y-92329000D03*
X247353000Y-92329000D03*
X245153000Y-94234000D03*
X247353000Y-94234000D03*
X245153000Y-97155000D03*
X247353000Y-97155000D03*
X245153000Y-99060000D03*
X247353000Y-99060000D03*
X245153000Y-100965000D03*
X247353000Y-100965000D03*
X245153000Y-102870000D03*
X247353000Y-102870000D03*
X245153000Y-105791000D03*
X247353000Y-105791000D03*
X245153000Y-107696000D03*
X247353000Y-107696000D03*
X245153000Y-109601000D03*
X247353000Y-109601000D03*
X245153000Y-111506000D03*
X247353000Y-111506000D03*
X245153000Y-114427000D03*
X247353000Y-114427000D03*
X245153000Y-116332000D03*
X247353000Y-116332000D03*
X245153000Y-118237000D03*
X247353000Y-118237000D03*
X245153000Y-120142000D03*
X247353000Y-120142000D03*
X245153000Y-123063000D03*
X247353000Y-123063000D03*
X245153000Y-124968000D03*
X247353000Y-124968000D03*
X245153000Y-126873000D03*
X247353000Y-126873000D03*
X245153000Y-128778000D03*
X247353000Y-128778000D03*
D19*
X177800000Y-99060000D03*
X173800000Y-99060000D03*
D20*
X178435000Y-106140000D03*
X178435000Y-102140000D03*
X186055000Y-116840000D03*
X186055000Y-112840000D03*
D19*
X182245000Y-119380000D03*
X186245000Y-119380000D03*
D21*
X172720000Y-158487808D03*
X172720000Y-153407808D03*
X172720000Y-148327808D03*
X172720000Y-143247808D03*
X179070000Y-158487808D03*
X179070000Y-153407808D03*
X179070000Y-148327808D03*
X179070000Y-143247808D03*
X172720000Y-180077808D03*
X172720000Y-174997808D03*
X172720000Y-169917808D03*
X172720000Y-164837808D03*
X179070000Y-180077808D03*
X179070000Y-174997808D03*
X179070000Y-169917808D03*
X179070000Y-164837808D03*
X189230000Y-158487808D03*
X189230000Y-153407808D03*
X189230000Y-148327808D03*
X189230000Y-143247808D03*
X195580000Y-158487808D03*
X195580000Y-153407808D03*
X195580000Y-148327808D03*
X195580000Y-143247808D03*
X189230000Y-180077808D03*
X189230000Y-174997808D03*
X189230000Y-169917808D03*
X189230000Y-164837808D03*
X195580000Y-180077808D03*
X195580000Y-174997808D03*
X195580000Y-169917808D03*
X195580000Y-164837808D03*
X205740000Y-158487808D03*
X205740000Y-153407808D03*
X205740000Y-148327808D03*
X205740000Y-143247808D03*
X212090000Y-158487808D03*
X212090000Y-153407808D03*
X212090000Y-148327808D03*
X212090000Y-143247808D03*
X205740000Y-180077808D03*
X205740000Y-174997808D03*
X205740000Y-169917808D03*
X205740000Y-164837808D03*
X212090000Y-180077808D03*
X212090000Y-174997808D03*
X212090000Y-169917808D03*
X212090000Y-164837808D03*
X222250000Y-158487808D03*
X222250000Y-153407808D03*
X222250000Y-148327808D03*
X222250000Y-143247808D03*
X228600000Y-158487808D03*
X228600000Y-153407808D03*
X228600000Y-148327808D03*
X228600000Y-143247808D03*
X222250000Y-180077808D03*
X222250000Y-174997808D03*
X222250000Y-169917808D03*
X222250000Y-164837808D03*
X228600000Y-180077808D03*
X228600000Y-174997808D03*
X228600000Y-169917808D03*
X228600000Y-164837808D03*
X240030000Y-158487808D03*
X240030000Y-153407808D03*
X240030000Y-148327808D03*
X240030000Y-143247808D03*
X246380000Y-158487808D03*
X246380000Y-153407808D03*
X246380000Y-148327808D03*
X246380000Y-143247808D03*
X240030000Y-180077808D03*
X240030000Y-174997808D03*
X240030000Y-169917808D03*
X240030000Y-164837808D03*
X246380000Y-180077808D03*
X246380000Y-174997808D03*
X246380000Y-169917808D03*
X246380000Y-164837808D03*
D22*
X195072000Y-126688000D03*
X194422000Y-126688000D03*
X193772000Y-126688000D03*
X193122000Y-126688000D03*
X192472000Y-126688000D03*
X191822000Y-126688000D03*
X191172000Y-126688000D03*
X190522000Y-126688000D03*
X190522000Y-132588000D03*
X191172000Y-132588000D03*
X191822000Y-132588000D03*
X192472000Y-132588000D03*
X193122000Y-132588000D03*
X193772000Y-132588000D03*
X194422000Y-132588000D03*
X195072000Y-132588000D03*
D23*
X180307500Y-98045000D03*
X180307500Y-98545000D03*
X180307500Y-99045000D03*
X180307500Y-99545000D03*
X180307500Y-100045000D03*
X183407500Y-100045000D03*
X183407500Y-99545000D03*
X183407500Y-99045000D03*
X183407500Y-98545000D03*
X183407500Y-98045000D03*
D24*
X182245000Y-99665000D03*
X182245000Y-98425000D03*
X181470000Y-99665000D03*
X181470000Y-98425000D03*
D10*
G36*
X213168478Y-115241627D02*
X212956346Y-115453759D01*
X211895686Y-114393099D01*
X212107818Y-114180967D01*
X213168478Y-115241627D01*
X213168478Y-115241627D01*
G37*
G36*
X213522031Y-114888074D02*
X213309899Y-115100206D01*
X212249239Y-114039546D01*
X212461371Y-113827414D01*
X213522031Y-114888074D01*
X213522031Y-114888074D01*
G37*
G36*
X213875584Y-114534520D02*
X213663452Y-114746652D01*
X212602792Y-113685992D01*
X212814924Y-113473860D01*
X213875584Y-114534520D01*
X213875584Y-114534520D01*
G37*
G36*
X214229138Y-114180967D02*
X214017006Y-114393099D01*
X212956346Y-113332439D01*
X213168478Y-113120307D01*
X214229138Y-114180967D01*
X214229138Y-114180967D01*
G37*
G36*
X214582691Y-113827413D02*
X214370559Y-114039545D01*
X213309899Y-112978885D01*
X213522031Y-112766753D01*
X214582691Y-113827413D01*
X214582691Y-113827413D01*
G37*
G36*
X214936244Y-113473860D02*
X214724112Y-113685992D01*
X213663452Y-112625332D01*
X213875584Y-112413200D01*
X214936244Y-113473860D01*
X214936244Y-113473860D01*
G37*
G36*
X215289798Y-113120307D02*
X215077666Y-113332439D01*
X214017006Y-112271779D01*
X214229138Y-112059647D01*
X215289798Y-113120307D01*
X215289798Y-113120307D01*
G37*
G36*
X215643351Y-112766753D02*
X215431219Y-112978885D01*
X214370559Y-111918225D01*
X214582691Y-111706093D01*
X215643351Y-112766753D01*
X215643351Y-112766753D01*
G37*
G36*
X215996905Y-112413200D02*
X215784773Y-112625332D01*
X214724113Y-111564672D01*
X214936245Y-111352540D01*
X215996905Y-112413200D01*
X215996905Y-112413200D01*
G37*
G36*
X216350458Y-112059646D02*
X216138326Y-112271778D01*
X215077666Y-111211118D01*
X215289798Y-110998986D01*
X216350458Y-112059646D01*
X216350458Y-112059646D01*
G37*
G36*
X216704011Y-111706093D02*
X216491879Y-111918225D01*
X215431219Y-110857565D01*
X215643351Y-110645433D01*
X216704011Y-111706093D01*
X216704011Y-111706093D01*
G37*
G36*
X217057565Y-111352540D02*
X216845433Y-111564672D01*
X215784773Y-110504012D01*
X215996905Y-110291880D01*
X217057565Y-111352540D01*
X217057565Y-111352540D01*
G37*
G36*
X217411118Y-110998986D02*
X217198986Y-111211118D01*
X216138326Y-110150458D01*
X216350458Y-109938326D01*
X217411118Y-110998986D01*
X217411118Y-110998986D01*
G37*
G36*
X217764672Y-110645433D02*
X217552540Y-110857565D01*
X216491880Y-109796905D01*
X216704012Y-109584773D01*
X217764672Y-110645433D01*
X217764672Y-110645433D01*
G37*
G36*
X218118225Y-110291879D02*
X217906093Y-110504011D01*
X216845433Y-109443351D01*
X217057565Y-109231219D01*
X218118225Y-110291879D01*
X218118225Y-110291879D01*
G37*
G36*
X218471778Y-109938326D02*
X218259646Y-110150458D01*
X217198986Y-109089798D01*
X217411118Y-108877666D01*
X218471778Y-109938326D01*
X218471778Y-109938326D01*
G37*
G36*
X218825332Y-109584773D02*
X218613200Y-109796905D01*
X217552540Y-108736245D01*
X217764672Y-108524113D01*
X218825332Y-109584773D01*
X218825332Y-109584773D01*
G37*
G36*
X219178885Y-109231219D02*
X218966753Y-109443351D01*
X217906093Y-108382691D01*
X218118225Y-108170559D01*
X219178885Y-109231219D01*
X219178885Y-109231219D01*
G37*
G36*
X219532439Y-108877666D02*
X219320307Y-109089798D01*
X218259647Y-108029138D01*
X218471779Y-107817006D01*
X219532439Y-108877666D01*
X219532439Y-108877666D01*
G37*
G36*
X219885992Y-108524112D02*
X219673860Y-108736244D01*
X218613200Y-107675584D01*
X218825332Y-107463452D01*
X219885992Y-108524112D01*
X219885992Y-108524112D01*
G37*
G36*
X220239545Y-108170559D02*
X220027413Y-108382691D01*
X218966753Y-107322031D01*
X219178885Y-107109899D01*
X220239545Y-108170559D01*
X220239545Y-108170559D01*
G37*
G36*
X220593099Y-107817006D02*
X220380967Y-108029138D01*
X219320307Y-106968478D01*
X219532439Y-106756346D01*
X220593099Y-107817006D01*
X220593099Y-107817006D01*
G37*
G36*
X220946652Y-107463452D02*
X220734520Y-107675584D01*
X219673860Y-106614924D01*
X219885992Y-106402792D01*
X220946652Y-107463452D01*
X220946652Y-107463452D01*
G37*
G36*
X221300206Y-107109899D02*
X221088074Y-107322031D01*
X220027414Y-106261371D01*
X220239546Y-106049239D01*
X221300206Y-107109899D01*
X221300206Y-107109899D01*
G37*
G36*
X221653759Y-106756346D02*
X221441627Y-106968478D01*
X220380967Y-105907818D01*
X220593099Y-105695686D01*
X221653759Y-106756346D01*
X221653759Y-106756346D01*
G37*
G36*
X221441627Y-103291522D02*
X221653759Y-103503654D01*
X220593099Y-104564314D01*
X220380967Y-104352182D01*
X221441627Y-103291522D01*
X221441627Y-103291522D01*
G37*
G36*
X221088074Y-102937969D02*
X221300206Y-103150101D01*
X220239546Y-104210761D01*
X220027414Y-103998629D01*
X221088074Y-102937969D01*
X221088074Y-102937969D01*
G37*
G36*
X220734520Y-102584416D02*
X220946652Y-102796548D01*
X219885992Y-103857208D01*
X219673860Y-103645076D01*
X220734520Y-102584416D01*
X220734520Y-102584416D01*
G37*
G36*
X220380967Y-102230862D02*
X220593099Y-102442994D01*
X219532439Y-103503654D01*
X219320307Y-103291522D01*
X220380967Y-102230862D01*
X220380967Y-102230862D01*
G37*
G36*
X220027413Y-101877309D02*
X220239545Y-102089441D01*
X219178885Y-103150101D01*
X218966753Y-102937969D01*
X220027413Y-101877309D01*
X220027413Y-101877309D01*
G37*
G36*
X219673860Y-101523756D02*
X219885992Y-101735888D01*
X218825332Y-102796548D01*
X218613200Y-102584416D01*
X219673860Y-101523756D01*
X219673860Y-101523756D01*
G37*
G36*
X219320307Y-101170202D02*
X219532439Y-101382334D01*
X218471779Y-102442994D01*
X218259647Y-102230862D01*
X219320307Y-101170202D01*
X219320307Y-101170202D01*
G37*
G36*
X218966753Y-100816649D02*
X219178885Y-101028781D01*
X218118225Y-102089441D01*
X217906093Y-101877309D01*
X218966753Y-100816649D01*
X218966753Y-100816649D01*
G37*
G36*
X218613200Y-100463095D02*
X218825332Y-100675227D01*
X217764672Y-101735887D01*
X217552540Y-101523755D01*
X218613200Y-100463095D01*
X218613200Y-100463095D01*
G37*
G36*
X218259646Y-100109542D02*
X218471778Y-100321674D01*
X217411118Y-101382334D01*
X217198986Y-101170202D01*
X218259646Y-100109542D01*
X218259646Y-100109542D01*
G37*
G36*
X217906093Y-99755989D02*
X218118225Y-99968121D01*
X217057565Y-101028781D01*
X216845433Y-100816649D01*
X217906093Y-99755989D01*
X217906093Y-99755989D01*
G37*
G36*
X217552540Y-99402435D02*
X217764672Y-99614567D01*
X216704012Y-100675227D01*
X216491880Y-100463095D01*
X217552540Y-99402435D01*
X217552540Y-99402435D01*
G37*
G36*
X217198986Y-99048882D02*
X217411118Y-99261014D01*
X216350458Y-100321674D01*
X216138326Y-100109542D01*
X217198986Y-99048882D01*
X217198986Y-99048882D01*
G37*
G36*
X216845433Y-98695328D02*
X217057565Y-98907460D01*
X215996905Y-99968120D01*
X215784773Y-99755988D01*
X216845433Y-98695328D01*
X216845433Y-98695328D01*
G37*
G36*
X216491879Y-98341775D02*
X216704011Y-98553907D01*
X215643351Y-99614567D01*
X215431219Y-99402435D01*
X216491879Y-98341775D01*
X216491879Y-98341775D01*
G37*
G36*
X216138326Y-97988222D02*
X216350458Y-98200354D01*
X215289798Y-99261014D01*
X215077666Y-99048882D01*
X216138326Y-97988222D01*
X216138326Y-97988222D01*
G37*
G36*
X215784773Y-97634668D02*
X215996905Y-97846800D01*
X214936245Y-98907460D01*
X214724113Y-98695328D01*
X215784773Y-97634668D01*
X215784773Y-97634668D01*
G37*
G36*
X215431219Y-97281115D02*
X215643351Y-97493247D01*
X214582691Y-98553907D01*
X214370559Y-98341775D01*
X215431219Y-97281115D01*
X215431219Y-97281115D01*
G37*
G36*
X215077666Y-96927561D02*
X215289798Y-97139693D01*
X214229138Y-98200353D01*
X214017006Y-97988221D01*
X215077666Y-96927561D01*
X215077666Y-96927561D01*
G37*
G36*
X214724112Y-96574008D02*
X214936244Y-96786140D01*
X213875584Y-97846800D01*
X213663452Y-97634668D01*
X214724112Y-96574008D01*
X214724112Y-96574008D01*
G37*
G36*
X214370559Y-96220455D02*
X214582691Y-96432587D01*
X213522031Y-97493247D01*
X213309899Y-97281115D01*
X214370559Y-96220455D01*
X214370559Y-96220455D01*
G37*
G36*
X214017006Y-95866901D02*
X214229138Y-96079033D01*
X213168478Y-97139693D01*
X212956346Y-96927561D01*
X214017006Y-95866901D01*
X214017006Y-95866901D01*
G37*
G36*
X213663452Y-95513348D02*
X213875584Y-95725480D01*
X212814924Y-96786140D01*
X212602792Y-96574008D01*
X213663452Y-95513348D01*
X213663452Y-95513348D01*
G37*
G36*
X213309899Y-95159794D02*
X213522031Y-95371926D01*
X212461371Y-96432586D01*
X212249239Y-96220454D01*
X213309899Y-95159794D01*
X213309899Y-95159794D01*
G37*
G36*
X212956346Y-94806241D02*
X213168478Y-95018373D01*
X212107818Y-96079033D01*
X211895686Y-95866901D01*
X212956346Y-94806241D01*
X212956346Y-94806241D01*
G37*
G36*
X210764314Y-95866901D02*
X210552182Y-96079033D01*
X209491522Y-95018373D01*
X209703654Y-94806241D01*
X210764314Y-95866901D01*
X210764314Y-95866901D01*
G37*
G36*
X210410761Y-96220454D02*
X210198629Y-96432586D01*
X209137969Y-95371926D01*
X209350101Y-95159794D01*
X210410761Y-96220454D01*
X210410761Y-96220454D01*
G37*
G36*
X210057208Y-96574008D02*
X209845076Y-96786140D01*
X208784416Y-95725480D01*
X208996548Y-95513348D01*
X210057208Y-96574008D01*
X210057208Y-96574008D01*
G37*
G36*
X209703654Y-96927561D02*
X209491522Y-97139693D01*
X208430862Y-96079033D01*
X208642994Y-95866901D01*
X209703654Y-96927561D01*
X209703654Y-96927561D01*
G37*
G36*
X209350101Y-97281115D02*
X209137969Y-97493247D01*
X208077309Y-96432587D01*
X208289441Y-96220455D01*
X209350101Y-97281115D01*
X209350101Y-97281115D01*
G37*
G36*
X208996548Y-97634668D02*
X208784416Y-97846800D01*
X207723756Y-96786140D01*
X207935888Y-96574008D01*
X208996548Y-97634668D01*
X208996548Y-97634668D01*
G37*
G36*
X208642994Y-97988221D02*
X208430862Y-98200353D01*
X207370202Y-97139693D01*
X207582334Y-96927561D01*
X208642994Y-97988221D01*
X208642994Y-97988221D01*
G37*
G36*
X208289441Y-98341775D02*
X208077309Y-98553907D01*
X207016649Y-97493247D01*
X207228781Y-97281115D01*
X208289441Y-98341775D01*
X208289441Y-98341775D01*
G37*
G36*
X207935887Y-98695328D02*
X207723755Y-98907460D01*
X206663095Y-97846800D01*
X206875227Y-97634668D01*
X207935887Y-98695328D01*
X207935887Y-98695328D01*
G37*
G36*
X207582334Y-99048882D02*
X207370202Y-99261014D01*
X206309542Y-98200354D01*
X206521674Y-97988222D01*
X207582334Y-99048882D01*
X207582334Y-99048882D01*
G37*
G36*
X207228781Y-99402435D02*
X207016649Y-99614567D01*
X205955989Y-98553907D01*
X206168121Y-98341775D01*
X207228781Y-99402435D01*
X207228781Y-99402435D01*
G37*
G36*
X206875227Y-99755988D02*
X206663095Y-99968120D01*
X205602435Y-98907460D01*
X205814567Y-98695328D01*
X206875227Y-99755988D01*
X206875227Y-99755988D01*
G37*
G36*
X206521674Y-100109542D02*
X206309542Y-100321674D01*
X205248882Y-99261014D01*
X205461014Y-99048882D01*
X206521674Y-100109542D01*
X206521674Y-100109542D01*
G37*
G36*
X206168120Y-100463095D02*
X205955988Y-100675227D01*
X204895328Y-99614567D01*
X205107460Y-99402435D01*
X206168120Y-100463095D01*
X206168120Y-100463095D01*
G37*
G36*
X205814567Y-100816649D02*
X205602435Y-101028781D01*
X204541775Y-99968121D01*
X204753907Y-99755989D01*
X205814567Y-100816649D01*
X205814567Y-100816649D01*
G37*
G36*
X205461014Y-101170202D02*
X205248882Y-101382334D01*
X204188222Y-100321674D01*
X204400354Y-100109542D01*
X205461014Y-101170202D01*
X205461014Y-101170202D01*
G37*
G36*
X205107460Y-101523755D02*
X204895328Y-101735887D01*
X203834668Y-100675227D01*
X204046800Y-100463095D01*
X205107460Y-101523755D01*
X205107460Y-101523755D01*
G37*
G36*
X204753907Y-101877309D02*
X204541775Y-102089441D01*
X203481115Y-101028781D01*
X203693247Y-100816649D01*
X204753907Y-101877309D01*
X204753907Y-101877309D01*
G37*
G36*
X204400353Y-102230862D02*
X204188221Y-102442994D01*
X203127561Y-101382334D01*
X203339693Y-101170202D01*
X204400353Y-102230862D01*
X204400353Y-102230862D01*
G37*
G36*
X204046800Y-102584416D02*
X203834668Y-102796548D01*
X202774008Y-101735888D01*
X202986140Y-101523756D01*
X204046800Y-102584416D01*
X204046800Y-102584416D01*
G37*
G36*
X203693247Y-102937969D02*
X203481115Y-103150101D01*
X202420455Y-102089441D01*
X202632587Y-101877309D01*
X203693247Y-102937969D01*
X203693247Y-102937969D01*
G37*
G36*
X203339693Y-103291522D02*
X203127561Y-103503654D01*
X202066901Y-102442994D01*
X202279033Y-102230862D01*
X203339693Y-103291522D01*
X203339693Y-103291522D01*
G37*
G36*
X202986140Y-103645076D02*
X202774008Y-103857208D01*
X201713348Y-102796548D01*
X201925480Y-102584416D01*
X202986140Y-103645076D01*
X202986140Y-103645076D01*
G37*
G36*
X202632586Y-103998629D02*
X202420454Y-104210761D01*
X201359794Y-103150101D01*
X201571926Y-102937969D01*
X202632586Y-103998629D01*
X202632586Y-103998629D01*
G37*
G36*
X202279033Y-104352182D02*
X202066901Y-104564314D01*
X201006241Y-103503654D01*
X201218373Y-103291522D01*
X202279033Y-104352182D01*
X202279033Y-104352182D01*
G37*
G36*
X202066901Y-105695686D02*
X202279033Y-105907818D01*
X201218373Y-106968478D01*
X201006241Y-106756346D01*
X202066901Y-105695686D01*
X202066901Y-105695686D01*
G37*
G36*
X202420454Y-106049239D02*
X202632586Y-106261371D01*
X201571926Y-107322031D01*
X201359794Y-107109899D01*
X202420454Y-106049239D01*
X202420454Y-106049239D01*
G37*
G36*
X202774008Y-106402792D02*
X202986140Y-106614924D01*
X201925480Y-107675584D01*
X201713348Y-107463452D01*
X202774008Y-106402792D01*
X202774008Y-106402792D01*
G37*
G36*
X203127561Y-106756346D02*
X203339693Y-106968478D01*
X202279033Y-108029138D01*
X202066901Y-107817006D01*
X203127561Y-106756346D01*
X203127561Y-106756346D01*
G37*
G36*
X203481115Y-107109899D02*
X203693247Y-107322031D01*
X202632587Y-108382691D01*
X202420455Y-108170559D01*
X203481115Y-107109899D01*
X203481115Y-107109899D01*
G37*
G36*
X203834668Y-107463452D02*
X204046800Y-107675584D01*
X202986140Y-108736244D01*
X202774008Y-108524112D01*
X203834668Y-107463452D01*
X203834668Y-107463452D01*
G37*
G36*
X204188221Y-107817006D02*
X204400353Y-108029138D01*
X203339693Y-109089798D01*
X203127561Y-108877666D01*
X204188221Y-107817006D01*
X204188221Y-107817006D01*
G37*
G36*
X204541775Y-108170559D02*
X204753907Y-108382691D01*
X203693247Y-109443351D01*
X203481115Y-109231219D01*
X204541775Y-108170559D01*
X204541775Y-108170559D01*
G37*
G36*
X204895328Y-108524113D02*
X205107460Y-108736245D01*
X204046800Y-109796905D01*
X203834668Y-109584773D01*
X204895328Y-108524113D01*
X204895328Y-108524113D01*
G37*
G36*
X205248882Y-108877666D02*
X205461014Y-109089798D01*
X204400354Y-110150458D01*
X204188222Y-109938326D01*
X205248882Y-108877666D01*
X205248882Y-108877666D01*
G37*
G36*
X205602435Y-109231219D02*
X205814567Y-109443351D01*
X204753907Y-110504011D01*
X204541775Y-110291879D01*
X205602435Y-109231219D01*
X205602435Y-109231219D01*
G37*
G36*
X205955988Y-109584773D02*
X206168120Y-109796905D01*
X205107460Y-110857565D01*
X204895328Y-110645433D01*
X205955988Y-109584773D01*
X205955988Y-109584773D01*
G37*
G36*
X206309542Y-109938326D02*
X206521674Y-110150458D01*
X205461014Y-111211118D01*
X205248882Y-110998986D01*
X206309542Y-109938326D01*
X206309542Y-109938326D01*
G37*
G36*
X206663095Y-110291880D02*
X206875227Y-110504012D01*
X205814567Y-111564672D01*
X205602435Y-111352540D01*
X206663095Y-110291880D01*
X206663095Y-110291880D01*
G37*
G36*
X207016649Y-110645433D02*
X207228781Y-110857565D01*
X206168121Y-111918225D01*
X205955989Y-111706093D01*
X207016649Y-110645433D01*
X207016649Y-110645433D01*
G37*
G36*
X207370202Y-110998986D02*
X207582334Y-111211118D01*
X206521674Y-112271778D01*
X206309542Y-112059646D01*
X207370202Y-110998986D01*
X207370202Y-110998986D01*
G37*
G36*
X207723755Y-111352540D02*
X207935887Y-111564672D01*
X206875227Y-112625332D01*
X206663095Y-112413200D01*
X207723755Y-111352540D01*
X207723755Y-111352540D01*
G37*
G36*
X208077309Y-111706093D02*
X208289441Y-111918225D01*
X207228781Y-112978885D01*
X207016649Y-112766753D01*
X208077309Y-111706093D01*
X208077309Y-111706093D01*
G37*
G36*
X208430862Y-112059647D02*
X208642994Y-112271779D01*
X207582334Y-113332439D01*
X207370202Y-113120307D01*
X208430862Y-112059647D01*
X208430862Y-112059647D01*
G37*
G36*
X208784416Y-112413200D02*
X208996548Y-112625332D01*
X207935888Y-113685992D01*
X207723756Y-113473860D01*
X208784416Y-112413200D01*
X208784416Y-112413200D01*
G37*
G36*
X209137969Y-112766753D02*
X209350101Y-112978885D01*
X208289441Y-114039545D01*
X208077309Y-113827413D01*
X209137969Y-112766753D01*
X209137969Y-112766753D01*
G37*
G36*
X209491522Y-113120307D02*
X209703654Y-113332439D01*
X208642994Y-114393099D01*
X208430862Y-114180967D01*
X209491522Y-113120307D01*
X209491522Y-113120307D01*
G37*
G36*
X209845076Y-113473860D02*
X210057208Y-113685992D01*
X208996548Y-114746652D01*
X208784416Y-114534520D01*
X209845076Y-113473860D01*
X209845076Y-113473860D01*
G37*
G36*
X210198629Y-113827414D02*
X210410761Y-114039546D01*
X209350101Y-115100206D01*
X209137969Y-114888074D01*
X210198629Y-113827414D01*
X210198629Y-113827414D01*
G37*
G36*
X210552182Y-114180967D02*
X210764314Y-114393099D01*
X209703654Y-115453759D01*
X209491522Y-115241627D01*
X210552182Y-114180967D01*
X210552182Y-114180967D01*
G37*
D22*
X212973500Y-126688000D03*
X212323500Y-126688000D03*
X211673500Y-126688000D03*
X211023500Y-126688000D03*
X210373500Y-126688000D03*
X209723500Y-126688000D03*
X209073500Y-126688000D03*
X208423500Y-126688000D03*
X208423500Y-132588000D03*
X209073500Y-132588000D03*
X209723500Y-132588000D03*
X210373500Y-132588000D03*
X211023500Y-132588000D03*
X211673500Y-132588000D03*
X212323500Y-132588000D03*
X212973500Y-132588000D03*
X230875000Y-126688000D03*
X230225000Y-126688000D03*
X229575000Y-126688000D03*
X228925000Y-126688000D03*
X228275000Y-126688000D03*
X227625000Y-126688000D03*
X226975000Y-126688000D03*
X226325000Y-126688000D03*
X226325000Y-132588000D03*
X226975000Y-132588000D03*
X227625000Y-132588000D03*
X228275000Y-132588000D03*
X228925000Y-132588000D03*
X229575000Y-132588000D03*
X230225000Y-132588000D03*
X230875000Y-132588000D03*
D23*
X180060000Y-115205000D03*
X180060000Y-115705000D03*
X180060000Y-116205000D03*
X180060000Y-116705000D03*
X180060000Y-117205000D03*
X183160000Y-117205000D03*
X183160000Y-116705000D03*
X183160000Y-116205000D03*
X183160000Y-115705000D03*
X183160000Y-115205000D03*
D24*
X181997500Y-116825000D03*
X181997500Y-115585000D03*
X181222500Y-116825000D03*
X181222500Y-115585000D03*
D25*
X174625000Y-79375000D03*
D26*
X172085000Y-79375000D03*
D25*
X205740000Y-80772000D03*
D26*
X208280000Y-80772000D03*
X210820000Y-80772000D03*
X213360000Y-80772000D03*
X215900000Y-80772000D03*
X218440000Y-80772000D03*
D25*
X173206364Y-188337516D03*
D26*
X173206364Y-190877516D03*
X173206364Y-193417516D03*
X173206364Y-195957516D03*
X173206364Y-198497516D03*
D25*
X181610000Y-188534043D03*
D26*
X181610000Y-191074043D03*
X181610000Y-193614043D03*
X181610000Y-196154043D03*
X181610000Y-198694043D03*
D25*
X239395000Y-187763473D03*
D26*
X239395000Y-190303473D03*
X239395000Y-192843473D03*
X239395000Y-195383473D03*
X239395000Y-197923473D03*
D25*
X247650000Y-187763473D03*
D26*
X247650000Y-190303473D03*
X247650000Y-192843473D03*
X247650000Y-195383473D03*
X247650000Y-197923473D03*
D25*
X190500000Y-198120000D03*
D26*
X193040000Y-198120000D03*
X195580000Y-198120000D03*
X198120000Y-198120000D03*
X200660000Y-198120000D03*
X203200000Y-198120000D03*
X205740000Y-198120000D03*
X208280000Y-198120000D03*
X210820000Y-198120000D03*
X213360000Y-198120000D03*
X215900000Y-198120000D03*
X218440000Y-198120000D03*
X220980000Y-198120000D03*
X223520000Y-198120000D03*
X226060000Y-198120000D03*
X228600000Y-198120000D03*
D25*
X241300000Y-79375000D03*
D26*
X241300000Y-81915000D03*
X238760000Y-79375000D03*
X238760000Y-81915000D03*
X236220000Y-79375000D03*
X236220000Y-81915000D03*
X233680000Y-79375000D03*
X233680000Y-81915000D03*
X231140000Y-79375000D03*
X231140000Y-81915000D03*
X228600000Y-79375000D03*
X228600000Y-81915000D03*
D27*
X239090000Y-93655000D03*
X237490000Y-93655000D03*
X239090000Y-94155000D03*
X237490000Y-94155000D03*
X239090000Y-94655000D03*
X237490000Y-94655000D03*
X239090000Y-95155000D03*
X237490000Y-95155000D03*
X239090000Y-95655000D03*
X237490000Y-95655000D03*
X239090000Y-96155000D03*
X237490000Y-96155000D03*
X239090000Y-96655000D03*
X237490000Y-96655000D03*
X239090000Y-97155000D03*
X237490000Y-97155000D03*
X239090000Y-103420000D03*
X237490000Y-103420000D03*
X239090000Y-103920000D03*
X237490000Y-103920000D03*
X239090000Y-104420000D03*
X237490000Y-104420000D03*
X239090000Y-104920000D03*
X237490000Y-104920000D03*
X239090000Y-105420000D03*
X237490000Y-105420000D03*
X239090000Y-105920000D03*
X237490000Y-105920000D03*
X239090000Y-106420000D03*
X237490000Y-106420000D03*
X239090000Y-106920000D03*
X237490000Y-106920000D03*
X239090000Y-113185000D03*
X237490000Y-113185000D03*
X239090000Y-113685000D03*
X237490000Y-113685000D03*
X239090000Y-114185000D03*
X237490000Y-114185000D03*
X239090000Y-114685000D03*
X237490000Y-114685000D03*
X239090000Y-115185000D03*
X237490000Y-115185000D03*
X239090000Y-115685000D03*
X237490000Y-115685000D03*
X239090000Y-116185000D03*
X237490000Y-116185000D03*
X239090000Y-116685000D03*
X237490000Y-116685000D03*
D28*
X187960000Y-98235000D03*
X187960000Y-93535000D03*
D29*
X213382963Y-91437643D03*
D30*
X221017363Y-103927918D02*
X223085918Y-103927918D01*
X223085918Y-103927918D02*
X223298000Y-104140000D01*
X209420812Y-114110256D02*
X208564240Y-114966828D01*
X208564240Y-114966828D02*
X208564240Y-116457840D01*
X208564240Y-116457840D02*
X209010000Y-116903600D01*
X209010000Y-116903600D02*
X209010000Y-117856000D01*
X210127918Y-95442637D02*
X210127918Y-93719682D01*
X210127918Y-93719682D02*
X210502600Y-93345000D01*
X210502600Y-93345000D02*
X211455000Y-93345000D01*
X219249596Y-108099848D02*
X220877748Y-109728000D01*
X220877748Y-109728000D02*
X223298000Y-109728000D01*
X220758000Y-97536000D02*
X218924000Y-97536000D01*
X218924000Y-97536000D02*
X217908000Y-98552000D01*
X217908000Y-98552000D02*
X216774722Y-99685278D01*
X205885278Y-110574722D02*
X203684000Y-112776000D01*
X203684000Y-112776000D02*
X203676000Y-112776000D01*
X213646000Y-117856000D02*
X213646000Y-116903600D01*
X213646000Y-116903600D02*
X214749758Y-115799842D01*
X214749758Y-115799842D02*
X214749758Y-114206612D01*
X214749758Y-114206612D02*
X213946295Y-113403149D01*
X239090000Y-93655000D02*
X242739618Y-93655000D01*
X242739618Y-93655000D02*
X243093919Y-93300699D01*
X243093919Y-93300699D02*
X243093919Y-90424000D01*
X243093919Y-90424000D02*
X244998919Y-88519000D01*
X244998919Y-88519000D02*
X245153000Y-88519000D01*
X201524385Y-111689699D02*
X202665830Y-110548254D01*
X203790426Y-110548254D02*
X204824618Y-109514062D01*
X191172000Y-124137010D02*
X201524385Y-113784625D01*
X201524385Y-113784625D02*
X201524385Y-111689699D01*
X191172000Y-126688000D02*
X191172000Y-124137010D01*
X202665830Y-110548254D02*
X203790426Y-110548254D01*
X245003000Y-90424000D02*
X245153000Y-90424000D01*
X243476503Y-91950497D02*
X245003000Y-90424000D01*
X243476503Y-93349182D02*
X243476503Y-91950497D01*
X242670685Y-94155000D02*
X243476503Y-93349182D01*
X239090000Y-94155000D02*
X242670685Y-94155000D01*
X202792085Y-110853065D02*
X201829196Y-111815954D01*
X201829196Y-111815954D02*
X201829196Y-113910881D01*
X201829196Y-113910881D02*
X191822000Y-123918079D01*
X204192721Y-110853065D02*
X202792085Y-110853065D01*
X191822000Y-125785600D02*
X191822000Y-126688000D01*
X205178171Y-109867615D02*
X204192721Y-110853065D01*
X191822000Y-123918079D02*
X191822000Y-125785600D01*
X245003000Y-92329000D02*
X242677000Y-94655000D01*
X239542400Y-94655000D02*
X239090000Y-94655000D01*
X242677000Y-94655000D02*
X239542400Y-94655000D01*
X245153000Y-92329000D02*
X245003000Y-92329000D01*
X204595017Y-111157876D02*
X204930684Y-110822209D01*
X202134007Y-114037137D02*
X202134007Y-111942209D01*
X192472000Y-126688000D02*
X192472000Y-123699145D01*
X202134007Y-111942209D02*
X202918340Y-111157876D01*
X202918340Y-111157876D02*
X204595017Y-111157876D01*
X204930684Y-110822209D02*
X205531724Y-110221169D01*
X192472000Y-123699145D02*
X202134007Y-114037137D01*
X245153000Y-94234000D02*
X243579138Y-94234000D01*
X242658138Y-95155000D02*
X239542400Y-95155000D01*
X243579138Y-94234000D02*
X242658138Y-95155000D01*
X239542400Y-95155000D02*
X239090000Y-95155000D01*
X193122000Y-125785600D02*
X193122000Y-126688000D01*
X205148433Y-113778594D02*
X204709323Y-114217704D01*
X204709323Y-114217704D02*
X202384507Y-114217704D01*
X202384507Y-114217704D02*
X193122000Y-123480211D01*
X193122000Y-123480211D02*
X193122000Y-125785600D01*
X206238831Y-110928276D02*
X205148433Y-112018674D01*
X205148433Y-112018674D02*
X205148433Y-113778594D01*
X245153000Y-97155000D02*
X243939099Y-97155000D01*
X239542400Y-95655000D02*
X239090000Y-95655000D01*
X243939099Y-97155000D02*
X242439099Y-95655000D01*
X242439099Y-95655000D02*
X239542400Y-95655000D01*
X205453244Y-112420970D02*
X205453244Y-113904849D01*
X205453244Y-113904849D02*
X204835578Y-114522515D01*
X204835578Y-114522515D02*
X202510763Y-114522515D01*
X202510763Y-114522515D02*
X193772000Y-123261278D01*
X193772000Y-123261278D02*
X193772000Y-125785600D01*
X193772000Y-125785600D02*
X193772000Y-126688000D01*
X206592385Y-111281829D02*
X205453244Y-112420970D01*
X245153000Y-99060000D02*
X245003000Y-99060000D01*
X245003000Y-99060000D02*
X243682906Y-97739906D01*
X243682906Y-97739906D02*
X243682906Y-97378767D01*
X243682906Y-97378767D02*
X242459139Y-96155000D01*
X242459139Y-96155000D02*
X239542400Y-96155000D01*
X239542400Y-96155000D02*
X239090000Y-96155000D01*
X194422000Y-123042345D02*
X194422000Y-125785600D01*
X194422000Y-125785600D02*
X194422000Y-126688000D01*
X202637019Y-114827326D02*
X194422000Y-123042345D01*
X204961833Y-114827326D02*
X202637019Y-114827326D01*
X205758055Y-114031104D02*
X204961833Y-114827326D01*
X206945938Y-111635382D02*
X205758055Y-112823265D01*
X205758055Y-112823265D02*
X205758055Y-114031104D01*
X245003000Y-100965000D02*
X245153000Y-100965000D01*
X243365521Y-99327521D02*
X245003000Y-100965000D01*
X243365521Y-97492449D02*
X243365521Y-99327521D01*
X242528072Y-96655000D02*
X243365521Y-97492449D01*
X239090000Y-96655000D02*
X242528072Y-96655000D01*
X207299491Y-111988936D02*
X206062866Y-113225561D01*
X206062866Y-113225561D02*
X206062866Y-114157359D01*
X206062866Y-114157359D02*
X205088088Y-115132137D01*
X205088088Y-115132137D02*
X202763275Y-115132137D01*
X202763275Y-115132137D02*
X195072000Y-122823412D01*
X195072000Y-122823412D02*
X195072000Y-126688000D01*
X239090000Y-97155000D02*
X242403989Y-97155000D01*
X242403989Y-97155000D02*
X243060710Y-97811721D01*
X243060710Y-97811721D02*
X243060710Y-100944600D01*
X244986110Y-102870000D02*
X245153000Y-102870000D01*
X243060710Y-100944600D02*
X244986110Y-102870000D01*
X209073500Y-125785600D02*
X209073500Y-126688000D01*
X209073500Y-123193993D02*
X209073500Y-125785600D01*
X206400068Y-120520561D02*
X209073500Y-123193993D01*
X207653045Y-112342489D02*
X206400068Y-113595466D01*
X206400068Y-113595466D02*
X206400068Y-120520561D01*
X245153000Y-105791000D02*
X243381525Y-105791000D01*
X243381525Y-105791000D02*
X241010525Y-103420000D01*
X241010525Y-103420000D02*
X239542400Y-103420000D01*
X239542400Y-103420000D02*
X239090000Y-103420000D01*
X209723500Y-125785600D02*
X209723500Y-126688000D01*
X209723500Y-123412926D02*
X209723500Y-125785600D01*
X206704879Y-120394305D02*
X209723500Y-123412926D01*
X206704879Y-113997762D02*
X206704879Y-120394305D01*
X208006598Y-112696043D02*
X206704879Y-113997762D01*
X245153000Y-107696000D02*
X244835270Y-107696000D01*
X244835270Y-107696000D02*
X241059270Y-103920000D01*
X241059270Y-103920000D02*
X239542400Y-103920000D01*
X239542400Y-103920000D02*
X239090000Y-103920000D01*
X207009690Y-114400058D02*
X207009690Y-120268049D01*
X207009690Y-120268049D02*
X210373500Y-123631859D01*
X210373500Y-123631859D02*
X210373500Y-125785600D01*
X210373500Y-125785600D02*
X210373500Y-126688000D01*
X208360152Y-113049596D02*
X207009690Y-114400058D01*
X245153000Y-109601000D02*
X245003000Y-109601000D01*
X245003000Y-109601000D02*
X244146750Y-108744750D01*
X244146750Y-108744750D02*
X244146750Y-107477614D01*
X244146750Y-107477614D02*
X241089136Y-104420000D01*
X241089136Y-104420000D02*
X239542400Y-104420000D01*
X239542400Y-104420000D02*
X239090000Y-104420000D01*
X208713705Y-113403149D02*
X207314501Y-114802353D01*
X207314501Y-114802353D02*
X207314501Y-120141793D01*
X207314501Y-120141793D02*
X211023500Y-123850792D01*
X211023500Y-123850792D02*
X211023500Y-125785600D01*
X211023500Y-125785600D02*
X211023500Y-126688000D01*
X241158069Y-104920000D02*
X239542400Y-104920000D01*
X243841939Y-107603870D02*
X241158069Y-104920000D01*
X243841939Y-110344939D02*
X243841939Y-107603870D01*
X245003000Y-111506000D02*
X243841939Y-110344939D01*
X245153000Y-111506000D02*
X245003000Y-111506000D01*
X239542400Y-104920000D02*
X239090000Y-104920000D01*
X211673500Y-126688000D02*
X211673500Y-124010740D01*
X211673500Y-124010740D02*
X207619312Y-119956552D01*
X207619312Y-119956552D02*
X207619312Y-115204649D01*
X207619312Y-115204649D02*
X209067258Y-113756703D01*
X245153000Y-113824600D02*
X245153000Y-114427000D01*
X245153000Y-113657933D02*
X245153000Y-113824600D01*
X243537128Y-112042061D02*
X245153000Y-113657933D01*
X239090000Y-105420000D02*
X241227002Y-105420000D01*
X241227002Y-105420000D02*
X243537128Y-107730126D01*
X243537128Y-107730126D02*
X243537128Y-112042061D01*
X215448307Y-120808333D02*
X215448307Y-114198055D01*
X212323500Y-126688000D02*
X212323500Y-123933140D01*
X212323500Y-123933140D02*
X215448307Y-120808333D01*
X215448307Y-114198055D02*
X214299848Y-113049596D01*
X241295935Y-105920000D02*
X243232317Y-107856382D01*
X243232317Y-107856382D02*
X243232317Y-114561317D01*
X243232317Y-114561317D02*
X245003000Y-116332000D01*
X245003000Y-116332000D02*
X245153000Y-116332000D01*
X239090000Y-105920000D02*
X241295935Y-105920000D01*
X212973500Y-124714000D02*
X212973500Y-123773581D01*
X215753118Y-120993963D02*
X215753118Y-113795759D01*
X215753118Y-113795759D02*
X215254442Y-113297083D01*
X212973500Y-123773581D02*
X215753118Y-120993963D01*
X215254442Y-113297083D02*
X214653402Y-112696043D01*
X212973500Y-124714000D02*
X212973500Y-124623679D01*
X212973500Y-126688000D02*
X212973500Y-124714000D01*
X245003000Y-118237000D02*
X245153000Y-118237000D01*
X242927506Y-116161506D02*
X245003000Y-118237000D01*
X242927506Y-107995530D02*
X242927506Y-116161506D01*
X241351976Y-106420000D02*
X242927506Y-107995530D01*
X239090000Y-106420000D02*
X241351976Y-106420000D01*
X215006955Y-112342489D02*
X227625000Y-124960534D01*
X227625000Y-124960534D02*
X227625000Y-126688000D01*
X245153000Y-120142000D02*
X245003000Y-120142000D01*
X245003000Y-120142000D02*
X242622695Y-117761695D01*
X242622695Y-117761695D02*
X242622695Y-108121786D01*
X242622695Y-108121786D02*
X241420909Y-106920000D01*
X241420909Y-106920000D02*
X239090000Y-106920000D01*
X228275000Y-126688000D02*
X228275000Y-124903427D01*
X228275000Y-124903427D02*
X215360509Y-111988936D01*
X245153000Y-123063000D02*
X244226364Y-123063000D01*
X244226364Y-123063000D02*
X242139128Y-120975764D01*
X239699920Y-113185000D02*
X239542400Y-113185000D01*
X239542400Y-113185000D02*
X239090000Y-113185000D01*
X242139128Y-120975764D02*
X242139128Y-115624208D01*
X242139128Y-115624208D02*
X239699920Y-113185000D01*
X215714062Y-111635382D02*
X228925000Y-124846320D01*
X228925000Y-124846320D02*
X228925000Y-126688000D01*
X245153000Y-124968000D02*
X244190683Y-124968000D01*
X244190683Y-124968000D02*
X241834317Y-122611634D01*
X241834317Y-122611634D02*
X241834317Y-115750464D01*
X241834317Y-115750464D02*
X239768853Y-113685000D01*
X239768853Y-113685000D02*
X239542400Y-113685000D01*
X239542400Y-113685000D02*
X239090000Y-113685000D01*
X216067615Y-111281829D02*
X229575000Y-124789214D01*
X229575000Y-124789214D02*
X229575000Y-126688000D01*
X245153000Y-126873000D02*
X244206072Y-126873000D01*
X241529506Y-124196434D02*
X241529506Y-115876720D01*
X241529506Y-115876720D02*
X239837786Y-114185000D01*
X244206072Y-126873000D02*
X241529506Y-124196434D01*
X239837786Y-114185000D02*
X239542400Y-114185000D01*
X239542400Y-114185000D02*
X239090000Y-114185000D01*
X216421169Y-110928276D02*
X230225000Y-124732107D01*
X230225000Y-124732107D02*
X230225000Y-126688000D01*
X245153000Y-128778000D02*
X244195926Y-128778000D01*
X244195926Y-128778000D02*
X241224695Y-125806769D01*
X241224695Y-125806769D02*
X241224695Y-116002976D01*
X241224695Y-116002976D02*
X239906719Y-114685000D01*
X239906719Y-114685000D02*
X239090000Y-114685000D01*
X216774722Y-110574722D02*
X230875000Y-124675000D01*
X230875000Y-124675000D02*
X230875000Y-126688000D01*
X173719999Y-157487809D02*
X172720000Y-158487808D01*
X175514000Y-155693808D02*
X173719999Y-157487809D01*
X175514000Y-138176000D02*
X175514000Y-155693808D01*
X178117473Y-135572527D02*
X175514000Y-138176000D01*
X189089873Y-135572527D02*
X178117473Y-135572527D01*
X191172000Y-133490400D02*
X189089873Y-135572527D01*
X191172000Y-132588000D02*
X191172000Y-133490400D01*
X191822000Y-132588000D02*
X191822000Y-133490400D01*
X191822000Y-133490400D02*
X189168400Y-136144000D01*
X178562000Y-136144000D02*
X176237557Y-138468443D01*
X176237557Y-138468443D02*
X176237557Y-155655365D01*
X189168400Y-136144000D02*
X178562000Y-136144000D01*
X176237557Y-155655365D02*
X178070001Y-157487809D01*
X178070001Y-157487809D02*
X179070000Y-158487808D01*
X208280000Y-82648270D02*
X215852858Y-90221128D01*
X215852858Y-95657394D02*
X214299848Y-97210404D01*
X208280000Y-80772000D02*
X208280000Y-82648270D01*
X215852858Y-90221128D02*
X215852858Y-95657394D01*
X215493601Y-94602438D02*
X214193782Y-95902257D01*
X205740000Y-80772000D02*
X205972664Y-80772000D01*
X205972664Y-80772000D02*
X215493601Y-90292937D01*
X215493601Y-90292937D02*
X215493601Y-94602438D01*
X214193782Y-95902257D02*
X213592742Y-96503297D01*
X213840228Y-91894908D02*
X213382963Y-91437643D01*
X213840228Y-95548704D02*
X213840228Y-91894908D01*
X213239188Y-96149744D02*
X213840228Y-95548704D01*
X210820000Y-80772000D02*
X210820000Y-79569919D01*
X210820000Y-79569919D02*
X209736081Y-78486000D01*
X209736081Y-78486000D02*
X202946000Y-78486000D01*
X202946000Y-78486000D02*
X197772435Y-83659565D01*
X197772435Y-83659565D02*
X197772435Y-107568872D01*
X197772435Y-107568872D02*
X199847610Y-109644047D01*
X199847610Y-109644047D02*
X203280419Y-109644047D01*
X203280419Y-109644047D02*
X204117511Y-108806955D01*
X216421169Y-99331724D02*
X222097893Y-93655000D01*
X222097893Y-93655000D02*
X237037600Y-93655000D01*
X237037600Y-93655000D02*
X237490000Y-93655000D01*
X237037600Y-94155000D02*
X237490000Y-94155000D01*
X230996846Y-94155000D02*
X237037600Y-94155000D01*
X225714055Y-99437791D02*
X230996846Y-94155000D01*
X217128276Y-100038831D02*
X217729316Y-99437791D01*
X217729316Y-99437791D02*
X225714055Y-99437791D01*
X237037600Y-94655000D02*
X237490000Y-94655000D01*
X230927913Y-94655000D02*
X237037600Y-94655000D01*
X225791568Y-99791345D02*
X230927913Y-94655000D01*
X217481829Y-100392385D02*
X218082869Y-99791345D01*
X218082869Y-99791345D02*
X225791568Y-99791345D01*
X237037600Y-95155000D02*
X237490000Y-95155000D01*
X230858980Y-95155000D02*
X237037600Y-95155000D01*
X225869082Y-100144898D02*
X230858980Y-95155000D01*
X217835382Y-100745938D02*
X218436422Y-100144898D01*
X218436422Y-100144898D02*
X225869082Y-100144898D01*
X237037600Y-95655000D02*
X237490000Y-95655000D01*
X218188936Y-101099491D02*
X218789976Y-100498451D01*
X218789976Y-100498451D02*
X225946596Y-100498451D01*
X225946596Y-100498451D02*
X230790047Y-95655000D01*
X230790047Y-95655000D02*
X237037600Y-95655000D01*
X218542489Y-101453045D02*
X219157534Y-100838000D01*
X219157534Y-100838000D02*
X226038114Y-100838000D01*
X226038114Y-100838000D02*
X230721114Y-96155000D01*
X230721114Y-96155000D02*
X237037600Y-96155000D01*
X237037600Y-96155000D02*
X237490000Y-96155000D01*
X237490000Y-96655000D02*
X230652181Y-96655000D01*
X230652181Y-96655000D02*
X226101623Y-101205558D01*
X226101623Y-101205558D02*
X219497083Y-101205558D01*
X219497083Y-101205558D02*
X218896043Y-101806598D01*
X220606485Y-101510369D02*
X226227878Y-101510369D01*
X219603149Y-102513705D02*
X220606485Y-101510369D01*
X226227878Y-101510369D02*
X230583247Y-97155000D01*
X230583247Y-97155000D02*
X237490000Y-97155000D01*
X219956703Y-102867258D02*
X220927476Y-101896485D01*
X220927476Y-101896485D02*
X228356775Y-101896485D01*
X228356775Y-101896485D02*
X229880290Y-103420000D01*
X229880290Y-103420000D02*
X237490000Y-103420000D01*
X220310256Y-103220812D02*
X221329772Y-102201296D01*
X221329772Y-102201296D02*
X228219491Y-102201296D01*
X228219491Y-102201296D02*
X229938194Y-103920000D01*
X229938194Y-103920000D02*
X237037600Y-103920000D01*
X237037600Y-103920000D02*
X237490000Y-103920000D01*
X221732068Y-102506107D02*
X228093235Y-102506107D01*
X220663810Y-103574365D02*
X221732068Y-102506107D01*
X228093235Y-102506107D02*
X230007128Y-104420000D01*
X230007128Y-104420000D02*
X237037600Y-104420000D01*
X237037600Y-104420000D02*
X237490000Y-104420000D01*
X220663810Y-106685635D02*
X221264850Y-107286675D01*
X221264850Y-107286675D02*
X227809874Y-107286675D01*
X227809874Y-107286675D02*
X230176549Y-104920000D01*
X230176549Y-104920000D02*
X237037600Y-104920000D01*
X237037600Y-104920000D02*
X237490000Y-104920000D01*
X237037600Y-105420000D02*
X237490000Y-105420000D01*
X220911296Y-107640228D02*
X227887388Y-107640228D01*
X230107616Y-105420000D02*
X237037600Y-105420000D01*
X227887388Y-107640228D02*
X230107616Y-105420000D01*
X220310256Y-107039188D02*
X220911296Y-107640228D01*
X237037600Y-105920000D02*
X237490000Y-105920000D01*
X230038683Y-105920000D02*
X237037600Y-105920000D01*
X227964901Y-107993782D02*
X230038683Y-105920000D01*
X220557743Y-107993782D02*
X227964901Y-107993782D01*
X219956703Y-107392742D02*
X220557743Y-107993782D01*
X222659830Y-112217189D02*
X229676607Y-112217189D01*
X229676607Y-112217189D02*
X235473796Y-106420000D01*
X235473796Y-106420000D02*
X237037600Y-106420000D01*
X237037600Y-106420000D02*
X237490000Y-106420000D01*
X218896043Y-108453402D02*
X222659830Y-112217189D01*
X237490000Y-106920000D02*
X235404862Y-106920000D01*
X235404862Y-106920000D02*
X229618774Y-112706088D01*
X229618774Y-112706088D02*
X222441622Y-112706088D01*
X222441622Y-112706088D02*
X218542489Y-108806955D01*
X237490000Y-113185000D02*
X222213427Y-113185000D01*
X222213427Y-113185000D02*
X218789976Y-109761549D01*
X218789976Y-109761549D02*
X218188936Y-109160509D01*
X222006320Y-113685000D02*
X237490000Y-113685000D01*
X217835382Y-109514062D02*
X222006320Y-113685000D01*
X217481829Y-109867615D02*
X221799214Y-114185000D01*
X237490000Y-114185000D02*
X222365000Y-114185000D01*
X221799214Y-114185000D02*
X222365000Y-114185000D01*
X236940000Y-114685000D02*
X237490000Y-114685000D01*
X221592107Y-114685000D02*
X236940000Y-114685000D01*
X217128276Y-110221169D02*
X221592107Y-114685000D01*
M02*
