M48
;DRILL file {KiCad 4.0.7} date Wednesday, May 02, 2018 'PMt' 05:12:09 PM
;FORMAT={-:-/ absolute / metric / decimal}
FMAT,2
METRIC,TZ
T1C0.635
T2C0.800
T3C0.813
T4C0.889
T5C1.000
T6C1.524
T7C2.845
%
G90
G05
M71
T1
X224.06Y-97.536
T2
X172.466Y-150.876
X172.466Y-155.956
X172.466Y-161.036
X172.466Y-166.116
X172.466Y-175.721
X172.466Y-180.801
X172.466Y-185.881
X172.466Y-190.961
X178.816Y-153.416
X178.816Y-158.496
X178.816Y-163.576
X178.816Y-173.228
X178.816Y-178.308
X178.816Y-183.388
X178.816Y-188.468
X188.976Y-150.868
X188.976Y-155.948
X188.976Y-161.028
X188.976Y-166.108
X188.976Y-175.768
X188.976Y-180.848
X188.976Y-185.928
X188.976Y-191.008
X195.326Y-148.336
X195.326Y-153.416
X195.326Y-158.496
X195.326Y-163.576
X195.326Y-173.228
X195.326Y-178.308
X195.326Y-183.388
X195.326Y-188.468
X205.486Y-150.876
X205.486Y-155.956
X205.486Y-161.036
X205.486Y-166.116
X205.486Y-175.768
X205.486Y-180.848
X205.486Y-185.928
X205.486Y-191.008
X211.836Y-148.336
X211.836Y-153.416
X211.836Y-158.496
X211.836Y-163.576
X211.836Y-173.228
X211.836Y-178.308
X211.836Y-183.388
X211.836Y-188.468
X221.996Y-150.876
X221.996Y-155.956
X221.996Y-161.036
X221.996Y-166.116
X221.996Y-175.768
X221.996Y-180.848
X221.996Y-185.928
X221.996Y-191.008
X228.346Y-148.336
X228.346Y-153.416
X228.346Y-158.496
X228.346Y-163.576
X228.346Y-173.228
X228.346Y-178.308
X228.346Y-183.388
X228.346Y-188.468
X238.506Y-150.876
X238.506Y-155.956
X238.506Y-161.036
X238.506Y-166.116
X238.506Y-175.768
X238.506Y-180.848
X238.506Y-185.928
X238.506Y-191.008
X244.856Y-148.336
X244.856Y-153.416
X244.856Y-158.496
X244.856Y-163.576
X244.856Y-173.228
X244.856Y-178.308
X244.856Y-183.388
X244.856Y-188.468
T3
X168.18Y-87.122
X168.18Y-89.662
X168.18Y-92.202
X179.61Y-130.556
X182.15Y-130.556
X186.722Y-120.396
X187.23Y-93.472
X192.31Y-111.252
X198.406Y-122.174
X206.026Y-110.744
X210.598Y-106.172
X210.598Y-115.316
X211.36Y-126.746
X215.17Y-110.744
X218.218Y-126.492
X225.838Y-118.11
X227.108Y-100.838
X227.87Y-126.492
X229.394Y-110.744
X238.03Y-106.172
X238.03Y-116.332
X238.03Y-126.492
T4
X175.038Y-124.46
X176.308Y-107.442
X181.356Y-106.352
X184.285Y-196.075
X191.191Y-140.451
X197.348Y-95.993
X198.368Y-109.451
X201.921Y-194.704
X202.572Y-117.832
X203.542Y-207.097
X204.985Y-96.027
X205.002Y-140.451
X205.515Y-208.431
X206.634Y-99.484
X207.178Y-122.661
X207.572Y-207.235
X209.574Y-208.486
X211.263Y-122.297
X211.519Y-207.235
X212.63Y-99.06
X213.576Y-208.459
X213.584Y-197.187
X214.144Y-97.55
X214.163Y-91.795
X218.428Y-140.416
X220.003Y-101.495
X222.536Y-117.094
X222.553Y-111.32
T5
X171.395Y-207.264
X171.45Y-202.438
X173.935Y-207.264
X173.99Y-202.438
X174.784Y-88.392
X176.475Y-207.264
X176.53Y-202.438
X177.324Y-88.392
X179.015Y-207.264
X179.07Y-202.438
X181.555Y-207.264
X181.61Y-202.438
X192.278Y-88.392
X194.818Y-88.392
X197.358Y-88.392
X199.898Y-88.392
X202.438Y-88.392
X204.978Y-88.392
X222.758Y-88.392
X222.758Y-90.932
X225.298Y-88.392
X225.298Y-90.932
X227.838Y-88.392
X227.838Y-90.932
X230.378Y-88.392
X230.378Y-90.932
X232.918Y-88.392
X232.918Y-90.932
X235.458Y-88.392
X235.458Y-90.932
X235.966Y-202.438
X235.966Y-207.264
X238.506Y-202.438
X238.506Y-207.264
X241.046Y-202.438
X241.046Y-207.264
X243.586Y-202.438
X243.586Y-207.264
X246.126Y-202.438
X246.126Y-207.264
T6
X178.816Y-148.336
T7
X167.418Y-198.882
X187.23Y-88.392
X243.11Y-88.392
X250.222Y-198.882
T0
M30
