M48
;DRILL file {KiCad 4.0.7} date Friday, April 27, 2018 'PMt' 02:11:14 PM
;FORMAT={-:-/ absolute / inch / decimal}
FMAT,2
INCH,TZ
T1C0.025
T2C0.031
T3C0.032
T4C0.035
T5C0.039
T6C0.060
T7C0.112
%
G90
G05
M72
T1
X8.8213Y-3.84
T2
X6.79Y-5.94
X6.79Y-6.14
X6.79Y-6.34
X6.79Y-6.54
X6.79Y-6.9182
X6.79Y-7.1182
X6.79Y-7.3182
X6.79Y-7.5182
X7.04Y-6.04
X7.04Y-6.24
X7.04Y-6.44
X7.04Y-6.82
X7.04Y-7.02
X7.04Y-7.22
X7.04Y-7.42
X7.44Y-5.9397
X7.44Y-6.1397
X7.44Y-6.3397
X7.44Y-6.5397
X7.44Y-6.92
X7.44Y-7.12
X7.44Y-7.32
X7.44Y-7.52
X7.69Y-5.84
X7.69Y-6.04
X7.69Y-6.24
X7.69Y-6.44
X7.69Y-6.82
X7.69Y-7.02
X7.69Y-7.22
X7.69Y-7.42
X8.09Y-5.94
X8.09Y-6.14
X8.09Y-6.34
X8.09Y-6.54
X8.09Y-6.92
X8.09Y-7.12
X8.09Y-7.32
X8.09Y-7.52
X8.34Y-5.84
X8.34Y-6.04
X8.34Y-6.24
X8.34Y-6.44
X8.34Y-6.82
X8.34Y-7.02
X8.34Y-7.22
X8.34Y-7.42
X8.74Y-5.94
X8.74Y-6.14
X8.74Y-6.34
X8.74Y-6.54
X8.74Y-6.92
X8.74Y-7.12
X8.74Y-7.32
X8.74Y-7.52
X8.99Y-5.84
X8.99Y-6.04
X8.99Y-6.24
X8.99Y-6.44
X8.99Y-6.82
X8.99Y-7.02
X8.99Y-7.22
X8.99Y-7.42
X9.39Y-5.94
X9.39Y-6.14
X9.39Y-6.34
X9.39Y-6.54
X9.39Y-6.92
X9.39Y-7.12
X9.39Y-7.32
X9.39Y-7.52
X9.64Y-5.84
X9.64Y-6.04
X9.64Y-6.24
X9.64Y-6.44
X9.64Y-6.82
X9.64Y-7.02
X9.64Y-7.22
X9.64Y-7.42
T3
X6.6213Y-3.43
X6.6213Y-3.53
X6.6213Y-3.63
X6.7713Y-5.14
X6.8713Y-5.14
X6.9713Y-5.14
X7.0713Y-5.14
X7.1713Y-5.14
X7.3513Y-4.63
X7.3513Y-4.74
X7.9813Y-5.03
X8.5913Y-5.03
X8.5913Y-5.03
X8.9413Y-3.97
X9.0813Y-4.46
T4
X6.7413Y-4.27
X6.8913Y-4.9
X7.1413Y-4.18
X7.2513Y-7.73
X7.5272Y-5.5296
X7.7696Y-3.7792
X7.8135Y-4.2028
X7.9437Y-7.6919
X7.9613Y-4.729
X8.0315Y-4.06
X8.0703Y-3.7806
X8.0709Y-5.5296
X8.0726Y-8.1437
X8.127Y-8.2032
X8.1763Y-8.1437
X8.2256Y-8.2049
X8.2372Y-4.94
X8.2782Y-8.1437
X8.3174Y-4.8148
X8.3413Y-8.21
X8.3713Y-3.9
X8.4108Y-7.6815
X8.4309Y-3.8405
X8.4316Y-3.614
X8.5995Y-5.5282
X8.6616Y-3.9959
X8.7613Y-4.61
X8.7619Y-4.3827
T5
X6.7478Y-8.16
X6.75Y-7.97
X6.8478Y-8.16
X6.85Y-7.97
X6.8813Y-3.48
X6.9478Y-8.16
X6.95Y-7.97
X6.9813Y-3.48
X7.0478Y-8.16
X7.05Y-7.97
X7.1478Y-8.16
X7.15Y-7.97
X7.57Y-3.48
X7.67Y-3.48
X7.77Y-3.48
X7.87Y-3.48
X7.97Y-3.48
X8.07Y-3.48
X8.77Y-3.48
X8.77Y-3.58
X8.87Y-3.48
X8.87Y-3.58
X8.97Y-3.48
X8.97Y-3.58
X9.07Y-3.48
X9.07Y-3.58
X9.17Y-3.48
X9.17Y-3.58
X9.27Y-3.48
X9.27Y-3.58
X9.29Y-7.97
X9.29Y-8.16
X9.39Y-7.97
X9.39Y-8.16
X9.49Y-7.97
X9.49Y-8.16
X9.59Y-7.97
X9.59Y-8.16
X9.69Y-7.97
X9.69Y-8.16
T6
X7.04Y-5.84
T7
X6.5913Y-7.83
X7.3713Y-3.48
X9.5713Y-3.48
X9.8513Y-7.83
T0
M30
