G04 #@! TF.FileFunction,Copper,L2,Bot,Signal*
%FSLAX45Y45*%
G04 Gerber Fmt 4.5, Leading zero omitted, Abs format (unit mm)*
G04 Created by KiCad (PCBNEW 4.0.7) date Friday, April 27, 2018 'PMt' 02:11:07 PM*
%MOMM*%
%LPD*%
G01*
G04 APERTURE LIST*
%ADD10C,0.100000*%
%ADD11C,0.150000*%
%ADD12C,2.000000*%
%ADD13C,1.320800*%
%ADD14C,3.810000*%
%ADD15C,1.143000*%
%ADD16C,2.286000*%
%ADD17R,1.700000X1.700000*%
%ADD18O,1.700000X1.700000*%
%ADD19C,1.270000*%
%ADD20C,0.254000*%
%ADD21C,0.152400*%
%ADD22C,0.508000*%
G04 APERTURE END LIST*
D10*
D11*
X25323800Y-8585200D02*
G75*
G03X25069800Y-8331200I-254000J0D01*
G01*
X16687800Y-8331200D02*
G75*
G03X16433800Y-8585200I0J-254000D01*
G01*
X16433800Y-20777200D02*
G75*
G03X16687800Y-21031200I254000J0D01*
G01*
X25069800Y-21031200D02*
G75*
G03X25323800Y-20777200I0J254000D01*
G01*
X16687800Y-8331200D02*
X25069800Y-8331200D01*
X16433800Y-20777200D02*
X16433800Y-8585200D01*
X25069800Y-21031200D02*
X16687800Y-21031200D01*
X25323800Y-8585200D02*
X25323800Y-20777200D01*
D12*
X22199600Y-17576800D03*
X22199600Y-18084800D03*
X22199600Y-18592800D03*
X22199600Y-19100800D03*
X20548600Y-15087600D03*
X20548600Y-15595600D03*
X20548600Y-16103600D03*
X20548600Y-16611600D03*
D13*
X16818000Y-9220200D03*
X16818000Y-8966200D03*
X16818000Y-8712200D03*
X22710800Y-10083800D03*
X23066400Y-11328400D03*
X21821800Y-12776200D03*
X21821800Y-12776200D03*
X20272400Y-12776200D03*
X18215000Y-13055600D03*
X17961000Y-13055600D03*
X17707000Y-13055600D03*
X17453000Y-13055600D03*
X17199000Y-13055600D03*
X18672200Y-12039600D03*
D14*
X16741800Y-19888200D03*
X25022200Y-19888200D03*
X24311000Y-8839200D03*
X18723000Y-8839200D03*
D15*
X22406000Y-9753600D03*
D13*
X18672200Y-11760200D03*
D12*
X19532600Y-17322800D03*
X19532600Y-17830800D03*
X19532600Y-18338800D03*
X19532600Y-18846800D03*
X18897600Y-17576800D03*
X18897600Y-18084800D03*
X18897600Y-18592800D03*
X18897600Y-19100800D03*
X17881600Y-17322800D03*
X17881600Y-17830800D03*
X17881600Y-18338800D03*
X17881600Y-18846800D03*
X17246600Y-17572131D03*
X17246600Y-18080131D03*
X17246600Y-18588131D03*
X17246600Y-19096131D03*
D16*
X17881600Y-14833600D03*
D12*
X17881600Y-15341600D03*
X17881600Y-15849600D03*
X17881600Y-16357600D03*
X17246600Y-15087600D03*
X17246600Y-15595600D03*
X17246600Y-16103600D03*
X17246600Y-16611600D03*
X19532600Y-14833600D03*
X19532600Y-15341600D03*
X19532600Y-15849600D03*
X19532600Y-16357600D03*
X18897600Y-15086781D03*
X18897600Y-15594781D03*
X18897600Y-16102781D03*
X18897600Y-16610781D03*
X21183600Y-14833600D03*
X21183600Y-15341600D03*
X21183600Y-15849600D03*
X21183600Y-16357600D03*
X21183600Y-17322800D03*
X21183600Y-17830800D03*
X21183600Y-18338800D03*
X21183600Y-18846800D03*
X20548600Y-17576800D03*
X20548600Y-18084800D03*
X20548600Y-18592800D03*
X20548600Y-19100800D03*
X22834600Y-14833600D03*
X22834600Y-15341600D03*
X22834600Y-15849600D03*
X22834600Y-16357600D03*
X22199600Y-15087600D03*
X22199600Y-15595600D03*
X22199600Y-16103600D03*
X22199600Y-16611600D03*
X22834600Y-17322800D03*
X22834600Y-17830800D03*
X22834600Y-18338800D03*
X22834600Y-18846800D03*
X24485600Y-14833600D03*
X24485600Y-15341600D03*
X24485600Y-15849600D03*
X24485600Y-16357600D03*
X23850600Y-15087600D03*
X23850600Y-15595600D03*
X23850600Y-16103600D03*
X23850600Y-16611600D03*
X24485600Y-17322800D03*
X24485600Y-17830800D03*
X24485600Y-18338800D03*
X24485600Y-18846800D03*
X23850600Y-17576800D03*
X23850600Y-18084800D03*
X23850600Y-18592800D03*
X23850600Y-19100800D03*
D17*
X17478400Y-8839200D03*
D18*
X17732400Y-8839200D03*
D17*
X19227800Y-8839200D03*
D18*
X19481800Y-8839200D03*
X19735800Y-8839200D03*
X19989800Y-8839200D03*
X20243800Y-8839200D03*
X20497800Y-8839200D03*
D17*
X17139509Y-20726400D03*
D18*
X17393509Y-20726400D03*
X17647509Y-20726400D03*
X17901509Y-20726400D03*
X18155509Y-20726400D03*
D17*
X17145000Y-20243800D03*
D18*
X17399000Y-20243800D03*
X17653000Y-20243800D03*
X17907000Y-20243800D03*
X18161000Y-20243800D03*
D17*
X23596600Y-20726400D03*
D18*
X23850600Y-20726400D03*
X24104600Y-20726400D03*
X24358600Y-20726400D03*
X24612600Y-20726400D03*
D17*
X23596600Y-20243800D03*
D18*
X23850600Y-20243800D03*
X24104600Y-20243800D03*
X24358600Y-20243800D03*
X24612600Y-20243800D03*
D17*
X22275800Y-9093200D03*
D18*
X22275800Y-8839200D03*
X22529800Y-9093200D03*
X22529800Y-8839200D03*
X22783800Y-9093200D03*
X22783800Y-8839200D03*
X23037800Y-9093200D03*
X23037800Y-8839200D03*
X23291800Y-9093200D03*
X23291800Y-8839200D03*
X23545800Y-9093200D03*
X23545800Y-8839200D03*
D19*
X22255345Y-11132000D03*
X17503800Y-12446000D03*
X20400000Y-10312400D03*
X18138800Y-10617200D03*
X17122800Y-10845800D03*
X22000346Y-10149479D03*
X22253600Y-11709400D03*
X21263000Y-9906000D03*
X20922600Y-12547600D03*
X20221600Y-12011600D03*
X21842842Y-14041579D03*
X20500198Y-14045076D03*
X19119092Y-14045076D03*
X21126253Y-12229664D03*
X19846211Y-10675007D03*
X20498528Y-9602738D03*
X21416251Y-9179485D03*
X21414411Y-9754987D03*
X19734794Y-9599254D03*
X20504395Y-20685080D03*
X20642535Y-20836171D03*
X18418200Y-19634200D03*
X20767725Y-20685080D03*
X20177031Y-19537446D03*
X20892914Y-20840488D03*
X21026738Y-20685080D03*
X21363416Y-19510891D03*
X21186800Y-20853400D03*
D20*
X20400000Y-10312400D02*
X20400000Y-10313944D01*
X20400000Y-10313944D02*
X21154557Y-11068501D01*
X21154557Y-11068501D02*
X22191845Y-11068501D01*
X22191845Y-11068501D02*
X22255345Y-11132000D01*
X20400000Y-10312400D02*
X18413879Y-10312400D01*
X18413879Y-10312400D02*
X18342600Y-10383679D01*
X18342600Y-10383679D02*
X18342600Y-12369800D01*
X18342600Y-12369800D02*
X18265090Y-12447310D01*
X18265090Y-12447310D02*
X17505110Y-12447310D01*
X17505110Y-12447310D02*
X17503800Y-12446000D01*
X17910200Y-10845800D02*
X18138800Y-10617200D01*
X17212603Y-10845800D02*
X17910200Y-10845800D01*
X17122800Y-10845800D02*
X17212603Y-10845800D01*
D21*
X21126253Y-12139862D02*
X21126253Y-12229664D01*
X19846211Y-10675007D02*
X21126253Y-11955049D01*
X21126253Y-11955049D02*
X21126253Y-12139862D01*
X20497800Y-8839200D02*
X20497800Y-9602010D01*
X20497800Y-9602010D02*
X20498528Y-9602738D01*
X21414411Y-9181325D02*
X21416251Y-9179485D01*
X21414411Y-9754987D02*
X21414411Y-9181325D01*
X19735800Y-9598248D02*
X19734794Y-9599254D01*
X19735800Y-8839200D02*
X19735800Y-9598248D01*
D22*
X16601330Y-19227800D02*
X16601330Y-15416844D01*
X17145000Y-20243800D02*
X17145000Y-19771470D01*
X17145000Y-19771470D02*
X16601330Y-19227800D01*
X16601330Y-15416844D02*
X17184574Y-14833600D01*
X17740179Y-14833600D02*
X17881600Y-14833600D01*
X17184574Y-14833600D02*
X17740179Y-14833600D01*
X17145000Y-20243800D02*
X17145000Y-20720909D01*
X17145000Y-20720909D02*
X17139509Y-20726400D01*
X19532600Y-14833600D02*
X17881600Y-14833600D01*
X21183600Y-14833600D02*
X19532600Y-14833600D01*
X22834600Y-14833600D02*
X22693179Y-14833600D01*
X22693179Y-14833600D02*
X21183600Y-14833600D01*
X24485600Y-14833600D02*
X22834600Y-14833600D01*
X17399000Y-20243800D02*
X17399000Y-19881785D01*
X17146600Y-15187600D02*
X17246600Y-15087600D01*
X16702931Y-15631269D02*
X17146600Y-15187600D01*
X17399000Y-19881785D02*
X16702931Y-19185715D01*
X16702931Y-19185715D02*
X16702931Y-15631269D01*
X17393509Y-20726400D02*
X17393509Y-20249291D01*
X17393509Y-20249291D02*
X17399000Y-20243800D01*
X18897600Y-15086781D02*
X17247419Y-15086781D01*
X17247419Y-15086781D02*
X17246600Y-15087600D01*
X20548600Y-15087600D02*
X18898419Y-15087600D01*
X18898419Y-15087600D02*
X18897600Y-15086781D01*
X22199600Y-15087600D02*
X20548600Y-15087600D01*
X23850600Y-15087600D02*
X22199600Y-15087600D01*
X17063152Y-17322800D02*
X17740179Y-17322800D01*
X17740179Y-17322800D02*
X17881600Y-17322800D01*
X16804532Y-17581420D02*
X17063152Y-17322800D01*
X16804532Y-19143631D02*
X16804532Y-17581420D01*
X17653000Y-20243800D02*
X17653000Y-19992099D01*
X17653000Y-19992099D02*
X16804532Y-19143631D01*
X17653000Y-20243800D02*
X17653000Y-20720909D01*
X17653000Y-20720909D02*
X17647509Y-20726400D01*
X19532600Y-17322800D02*
X17881600Y-17322800D01*
X21183600Y-17322800D02*
X19532600Y-17322800D01*
X22834600Y-17322800D02*
X21183600Y-17322800D01*
X24485600Y-17322800D02*
X22834600Y-17322800D01*
X17146600Y-17672131D02*
X17246600Y-17572131D01*
X16906133Y-17912598D02*
X17146600Y-17672131D01*
X17907000Y-20102413D02*
X16906133Y-19101546D01*
X17907000Y-20243800D02*
X17907000Y-20102413D01*
X16906133Y-19101546D02*
X16906133Y-17912598D01*
X22199600Y-17576800D02*
X23850600Y-17576800D01*
X20548600Y-17576800D02*
X20690021Y-17576800D01*
X20690021Y-17576800D02*
X22199600Y-17576800D01*
X20548600Y-17576800D02*
X18897600Y-17576800D01*
X17246600Y-17572131D02*
X18892931Y-17572131D01*
X18892931Y-17572131D02*
X18897600Y-17576800D01*
X17901509Y-20726400D02*
X17901509Y-20249291D01*
X17901509Y-20249291D02*
X17907000Y-20243800D01*
D20*
X20414592Y-20685080D02*
X20504395Y-20685080D01*
X17881600Y-18846800D02*
X19719880Y-20685080D01*
X19719880Y-20685080D02*
X20414592Y-20685080D01*
X20552733Y-20836171D02*
X20642535Y-20836171D01*
X19620171Y-20836171D02*
X20552733Y-20836171D01*
X18418200Y-19634200D02*
X19620171Y-20836171D01*
X19532600Y-18846800D02*
X19532600Y-19112828D01*
X19532600Y-19112828D02*
X20768408Y-20348636D01*
X20768408Y-20348636D02*
X20768408Y-20684397D01*
X20768408Y-20684397D02*
X20767725Y-20685080D01*
X20240531Y-19600946D02*
X20177031Y-19537446D01*
X20892914Y-20253329D02*
X20240531Y-19600946D01*
X20892914Y-20840488D02*
X20892914Y-20253329D01*
X21183600Y-18846800D02*
X21183600Y-18849127D01*
X21026571Y-19006156D02*
X21026571Y-20684914D01*
X21183600Y-18849127D02*
X21026571Y-19006156D01*
X21026571Y-20684914D02*
X21026738Y-20685080D01*
X21186800Y-20853400D02*
X21186800Y-19685089D01*
X21186800Y-19685089D02*
X21360998Y-19510891D01*
X21360998Y-19510891D02*
X21363416Y-19510891D01*
G36*
X16908685Y-8601030D02*
X16920965Y-8609235D01*
X16929170Y-8621515D01*
X16932300Y-8637251D01*
X16932300Y-13868400D01*
X16932544Y-13870878D01*
X16936411Y-13890318D01*
X16938307Y-13894896D01*
X16949319Y-13911377D01*
X16952823Y-13914881D01*
X16969304Y-13925893D01*
X16973882Y-13927789D01*
X16993322Y-13931656D01*
X16995800Y-13931900D01*
X25020949Y-13931900D01*
X25036685Y-13935030D01*
X25048965Y-13943235D01*
X25057170Y-13955515D01*
X25060300Y-13971251D01*
X25060300Y-18185149D01*
X25057170Y-18200885D01*
X25048965Y-18213165D01*
X25036685Y-18221370D01*
X25020949Y-18224500D01*
X24566632Y-18224500D01*
X24563929Y-18221793D01*
X24513190Y-18200724D01*
X24458251Y-18200676D01*
X24407475Y-18221656D01*
X24404626Y-18224500D01*
X22915632Y-18224500D01*
X22912929Y-18221793D01*
X22862190Y-18200724D01*
X22807251Y-18200676D01*
X22756475Y-18221656D01*
X22753626Y-18224500D01*
X21264632Y-18224500D01*
X21261930Y-18221793D01*
X21211190Y-18200724D01*
X21156251Y-18200676D01*
X21105475Y-18221656D01*
X21102626Y-18224500D01*
X19613632Y-18224500D01*
X19610930Y-18221793D01*
X19560190Y-18200724D01*
X19505251Y-18200676D01*
X19454475Y-18221656D01*
X19451626Y-18224500D01*
X17962632Y-18224500D01*
X17959930Y-18221793D01*
X17909190Y-18200724D01*
X17854251Y-18200676D01*
X17803475Y-18221656D01*
X17800626Y-18224500D01*
X17298651Y-18224500D01*
X17282915Y-18221370D01*
X17276221Y-18216897D01*
X17281081Y-18216649D01*
X17318752Y-18201045D01*
X17327322Y-18186174D01*
X18814186Y-18186174D01*
X18825449Y-18205715D01*
X18877213Y-18224122D01*
X18932081Y-18221318D01*
X18969752Y-18205715D01*
X18981014Y-18186174D01*
X20465186Y-18186174D01*
X20476449Y-18205715D01*
X20528213Y-18224122D01*
X20583081Y-18221318D01*
X20620752Y-18205715D01*
X20632014Y-18186174D01*
X22116186Y-18186174D01*
X22127449Y-18205715D01*
X22179213Y-18224122D01*
X22234081Y-18221318D01*
X22271752Y-18205715D01*
X22283014Y-18186174D01*
X23767186Y-18186174D01*
X23778448Y-18205715D01*
X23830213Y-18224122D01*
X23885081Y-18221318D01*
X23922751Y-18205715D01*
X23934014Y-18186174D01*
X23850600Y-18102761D01*
X23767186Y-18186174D01*
X22283014Y-18186174D01*
X22199600Y-18102761D01*
X22116186Y-18186174D01*
X20632014Y-18186174D01*
X20548600Y-18102761D01*
X20465186Y-18186174D01*
X18981014Y-18186174D01*
X18897600Y-18102761D01*
X18814186Y-18186174D01*
X17327322Y-18186174D01*
X17330014Y-18181505D01*
X17259300Y-18110791D01*
X17259300Y-18080131D01*
X17264561Y-18080131D01*
X17347974Y-18163544D01*
X17367515Y-18152282D01*
X17385922Y-18100518D01*
X17384077Y-18064413D01*
X18758278Y-18064413D01*
X18761082Y-18119281D01*
X18776685Y-18156952D01*
X18796226Y-18168214D01*
X18879640Y-18084800D01*
X18915561Y-18084800D01*
X18998974Y-18168214D01*
X19018515Y-18156952D01*
X19036922Y-18105187D01*
X19034839Y-18064413D01*
X20409278Y-18064413D01*
X20412082Y-18119281D01*
X20427685Y-18156952D01*
X20447226Y-18168214D01*
X20530640Y-18084800D01*
X20566561Y-18084800D01*
X20649974Y-18168214D01*
X20669515Y-18156952D01*
X20687922Y-18105187D01*
X20685839Y-18064413D01*
X22060278Y-18064413D01*
X22063082Y-18119281D01*
X22078685Y-18156952D01*
X22098226Y-18168214D01*
X22181640Y-18084800D01*
X22217561Y-18084800D01*
X22300974Y-18168214D01*
X22320515Y-18156952D01*
X22338922Y-18105187D01*
X22336839Y-18064413D01*
X23711278Y-18064413D01*
X23714082Y-18119281D01*
X23729685Y-18156952D01*
X23749226Y-18168214D01*
X23832639Y-18084800D01*
X23868560Y-18084800D01*
X23951974Y-18168214D01*
X23971515Y-18156952D01*
X23989922Y-18105187D01*
X23987118Y-18050319D01*
X23971515Y-18012649D01*
X23951974Y-18001386D01*
X23868560Y-18084800D01*
X23832639Y-18084800D01*
X23749226Y-18001386D01*
X23729685Y-18012649D01*
X23711278Y-18064413D01*
X22336839Y-18064413D01*
X22336118Y-18050319D01*
X22320515Y-18012649D01*
X22300974Y-18001386D01*
X22217561Y-18084800D01*
X22181640Y-18084800D01*
X22098226Y-18001386D01*
X22078685Y-18012649D01*
X22060278Y-18064413D01*
X20685839Y-18064413D01*
X20685118Y-18050319D01*
X20669515Y-18012649D01*
X20649974Y-18001386D01*
X20566561Y-18084800D01*
X20530640Y-18084800D01*
X20447226Y-18001386D01*
X20427685Y-18012649D01*
X20409278Y-18064413D01*
X19034839Y-18064413D01*
X19034118Y-18050319D01*
X19018515Y-18012649D01*
X18998974Y-18001386D01*
X18915561Y-18084800D01*
X18879640Y-18084800D01*
X18796226Y-18001386D01*
X18776685Y-18012649D01*
X18758278Y-18064413D01*
X17384077Y-18064413D01*
X17383118Y-18045650D01*
X17367515Y-18007979D01*
X17347974Y-17996717D01*
X17264561Y-18080131D01*
X17259300Y-18080131D01*
X17259300Y-18049470D01*
X17325344Y-17983426D01*
X18814186Y-17983426D01*
X18897600Y-18066840D01*
X18981014Y-17983426D01*
X20465186Y-17983426D01*
X20548600Y-18066840D01*
X20632014Y-17983426D01*
X22116186Y-17983426D01*
X22199600Y-18066840D01*
X22283014Y-17983426D01*
X23767186Y-17983426D01*
X23850600Y-18066840D01*
X23934014Y-17983426D01*
X23922751Y-17963885D01*
X23870987Y-17945478D01*
X23816119Y-17948282D01*
X23778448Y-17963885D01*
X23767186Y-17983426D01*
X22283014Y-17983426D01*
X22271752Y-17963885D01*
X22219987Y-17945478D01*
X22165119Y-17948282D01*
X22127449Y-17963885D01*
X22116186Y-17983426D01*
X20632014Y-17983426D01*
X20620752Y-17963885D01*
X20568987Y-17945478D01*
X20514119Y-17948282D01*
X20476449Y-17963885D01*
X20465186Y-17983426D01*
X18981014Y-17983426D01*
X18969752Y-17963885D01*
X18917987Y-17945478D01*
X18863119Y-17948282D01*
X18825449Y-17963885D01*
X18814186Y-17983426D01*
X17325344Y-17983426D01*
X17330014Y-17978756D01*
X17318752Y-17959216D01*
X17266987Y-17940809D01*
X17259300Y-17941202D01*
X17259300Y-17908251D01*
X17262430Y-17892515D01*
X17270635Y-17880235D01*
X17282915Y-17872030D01*
X17298651Y-17868900D01*
X17746581Y-17868900D01*
X17760685Y-17902952D01*
X17780226Y-17914214D01*
X17825540Y-17868900D01*
X17861461Y-17868900D01*
X17798186Y-17932174D01*
X17809449Y-17951715D01*
X17861213Y-17970122D01*
X17916081Y-17967318D01*
X17953752Y-17951715D01*
X17965014Y-17932174D01*
X17901740Y-17868900D01*
X17937661Y-17868900D01*
X17982974Y-17914214D01*
X18002515Y-17902952D01*
X18014623Y-17868900D01*
X19397581Y-17868900D01*
X19411685Y-17902952D01*
X19431226Y-17914214D01*
X19476540Y-17868900D01*
X19512461Y-17868900D01*
X19449186Y-17932174D01*
X19460449Y-17951715D01*
X19512213Y-17970122D01*
X19567081Y-17967318D01*
X19604752Y-17951715D01*
X19616014Y-17932174D01*
X19552740Y-17868900D01*
X19588661Y-17868900D01*
X19633974Y-17914214D01*
X19653515Y-17902952D01*
X19665623Y-17868900D01*
X21048581Y-17868900D01*
X21062685Y-17902952D01*
X21082226Y-17914214D01*
X21127540Y-17868900D01*
X21163461Y-17868900D01*
X21100186Y-17932174D01*
X21111449Y-17951715D01*
X21163213Y-17970122D01*
X21218081Y-17967318D01*
X21255752Y-17951715D01*
X21267014Y-17932174D01*
X21203740Y-17868900D01*
X21239661Y-17868900D01*
X21284974Y-17914214D01*
X21304515Y-17902952D01*
X21316623Y-17868900D01*
X22699581Y-17868900D01*
X22713685Y-17902952D01*
X22733226Y-17914214D01*
X22778539Y-17868900D01*
X22814460Y-17868900D01*
X22751186Y-17932174D01*
X22762448Y-17951715D01*
X22814213Y-17970122D01*
X22869081Y-17967318D01*
X22906751Y-17951715D01*
X22918014Y-17932174D01*
X22854739Y-17868900D01*
X22890660Y-17868900D01*
X22935974Y-17914214D01*
X22955515Y-17902952D01*
X22967623Y-17868900D01*
X24350581Y-17868900D01*
X24364685Y-17902952D01*
X24384226Y-17914214D01*
X24429539Y-17868900D01*
X24465460Y-17868900D01*
X24402186Y-17932174D01*
X24413448Y-17951715D01*
X24465213Y-17970122D01*
X24520081Y-17967318D01*
X24557751Y-17951715D01*
X24569014Y-17932174D01*
X24505739Y-17868900D01*
X24541660Y-17868900D01*
X24586974Y-17914214D01*
X24606515Y-17902952D01*
X24618623Y-17868900D01*
X24768200Y-17868900D01*
X24770678Y-17868656D01*
X24790118Y-17864789D01*
X24794696Y-17862893D01*
X24811177Y-17851881D01*
X24814681Y-17848377D01*
X24825693Y-17831896D01*
X24827589Y-17827318D01*
X24831456Y-17807878D01*
X24831700Y-17805400D01*
X24831700Y-15748000D01*
X24831456Y-15745522D01*
X24827589Y-15726082D01*
X24825693Y-15721504D01*
X24814681Y-15705023D01*
X24811177Y-15701519D01*
X24794696Y-15690507D01*
X24790118Y-15688611D01*
X24770678Y-15684744D01*
X24768200Y-15684500D01*
X23957461Y-15684500D01*
X23951974Y-15679014D01*
X23971515Y-15667751D01*
X23989922Y-15615987D01*
X23987118Y-15561119D01*
X23971515Y-15523448D01*
X23951974Y-15512186D01*
X23868560Y-15595600D01*
X23869975Y-15597014D01*
X23852014Y-15614975D01*
X23850600Y-15613560D01*
X23849186Y-15614975D01*
X23831225Y-15597014D01*
X23832639Y-15595600D01*
X23749226Y-15512186D01*
X23729685Y-15523448D01*
X23711278Y-15575213D01*
X23714082Y-15630081D01*
X23729685Y-15667751D01*
X23749226Y-15679014D01*
X23743739Y-15684500D01*
X22306461Y-15684500D01*
X22300974Y-15679014D01*
X22320515Y-15667751D01*
X22338922Y-15615987D01*
X22336118Y-15561119D01*
X22320515Y-15523448D01*
X22300974Y-15512186D01*
X22217561Y-15595600D01*
X22218975Y-15597014D01*
X22201014Y-15614975D01*
X22199600Y-15613560D01*
X22198186Y-15614975D01*
X22180225Y-15597014D01*
X22181640Y-15595600D01*
X22098226Y-15512186D01*
X22078685Y-15523448D01*
X22060278Y-15575213D01*
X22063082Y-15630081D01*
X22078685Y-15667751D01*
X22098226Y-15679014D01*
X22092739Y-15684500D01*
X20655461Y-15684500D01*
X20649974Y-15679014D01*
X20669515Y-15667751D01*
X20687922Y-15615987D01*
X20685118Y-15561119D01*
X20669515Y-15523448D01*
X20649974Y-15512186D01*
X20566561Y-15595600D01*
X20567975Y-15597014D01*
X20550014Y-15614975D01*
X20548600Y-15613560D01*
X20547186Y-15614975D01*
X20529225Y-15597014D01*
X20530640Y-15595600D01*
X20447226Y-15512186D01*
X20427685Y-15523448D01*
X20409278Y-15575213D01*
X20412082Y-15630081D01*
X20427685Y-15667751D01*
X20447226Y-15679014D01*
X20441739Y-15684500D01*
X19005280Y-15684500D01*
X18998974Y-15678194D01*
X19018515Y-15666932D01*
X19036922Y-15615168D01*
X19034118Y-15560300D01*
X19018515Y-15522629D01*
X18998974Y-15511367D01*
X18915561Y-15594781D01*
X18916975Y-15596195D01*
X18899014Y-15614156D01*
X18897600Y-15612741D01*
X18896186Y-15614156D01*
X18878225Y-15596195D01*
X18879640Y-15594781D01*
X18796226Y-15511367D01*
X18776685Y-15522629D01*
X18758278Y-15574393D01*
X18761082Y-15629261D01*
X18776685Y-15666932D01*
X18796226Y-15678194D01*
X18789920Y-15684500D01*
X17353461Y-15684500D01*
X17347974Y-15679014D01*
X17367515Y-15667751D01*
X17385922Y-15615987D01*
X17383118Y-15561119D01*
X17367515Y-15523448D01*
X17347974Y-15512186D01*
X17264561Y-15595600D01*
X17265975Y-15597014D01*
X17259300Y-15603689D01*
X17259300Y-15564939D01*
X17330014Y-15494226D01*
X17329542Y-15493407D01*
X18814186Y-15493407D01*
X18897600Y-15576820D01*
X18980195Y-15494226D01*
X20465186Y-15494226D01*
X20548600Y-15577639D01*
X20632014Y-15494226D01*
X22116186Y-15494226D01*
X22199600Y-15577639D01*
X22283014Y-15494226D01*
X23767186Y-15494226D01*
X23850600Y-15577639D01*
X23934014Y-15494226D01*
X23922751Y-15474685D01*
X23870987Y-15456278D01*
X23816119Y-15459082D01*
X23778448Y-15474685D01*
X23767186Y-15494226D01*
X22283014Y-15494226D01*
X22271752Y-15474685D01*
X22219987Y-15456278D01*
X22165119Y-15459082D01*
X22127449Y-15474685D01*
X22116186Y-15494226D01*
X20632014Y-15494226D01*
X20620752Y-15474685D01*
X20568987Y-15456278D01*
X20514119Y-15459082D01*
X20476449Y-15474685D01*
X20465186Y-15494226D01*
X18980195Y-15494226D01*
X18981014Y-15493407D01*
X18969752Y-15473866D01*
X18917987Y-15455459D01*
X18863119Y-15458262D01*
X18825449Y-15473866D01*
X18814186Y-15493407D01*
X17329542Y-15493407D01*
X17318752Y-15474685D01*
X17266987Y-15456278D01*
X17259300Y-15456671D01*
X17259300Y-15442974D01*
X17798186Y-15442974D01*
X17809449Y-15462515D01*
X17861213Y-15480922D01*
X17916081Y-15478118D01*
X17953752Y-15462515D01*
X17965014Y-15442974D01*
X19449186Y-15442974D01*
X19460449Y-15462515D01*
X19512213Y-15480922D01*
X19567081Y-15478118D01*
X19604752Y-15462515D01*
X19616014Y-15442974D01*
X21100186Y-15442974D01*
X21111449Y-15462515D01*
X21163213Y-15480922D01*
X21218081Y-15478118D01*
X21255752Y-15462515D01*
X21267014Y-15442974D01*
X22751186Y-15442974D01*
X22762448Y-15462515D01*
X22814213Y-15480922D01*
X22869081Y-15478118D01*
X22906751Y-15462515D01*
X22918014Y-15442974D01*
X24402186Y-15442974D01*
X24413448Y-15462515D01*
X24465213Y-15480922D01*
X24520081Y-15478118D01*
X24557751Y-15462515D01*
X24569014Y-15442974D01*
X24485600Y-15359560D01*
X24402186Y-15442974D01*
X22918014Y-15442974D01*
X22834600Y-15359560D01*
X22751186Y-15442974D01*
X21267014Y-15442974D01*
X21183600Y-15359560D01*
X21100186Y-15442974D01*
X19616014Y-15442974D01*
X19532600Y-15359560D01*
X19449186Y-15442974D01*
X17965014Y-15442974D01*
X17881600Y-15359560D01*
X17798186Y-15442974D01*
X17259300Y-15442974D01*
X17259300Y-15368167D01*
X17261324Y-15355417D01*
X17266734Y-15344824D01*
X17275159Y-15336427D01*
X17285769Y-15331051D01*
X17298525Y-15329069D01*
X17742753Y-15330511D01*
X17745082Y-15376081D01*
X17760685Y-15413751D01*
X17780226Y-15425014D01*
X17863640Y-15341600D01*
X17862225Y-15340186D01*
X17871482Y-15330929D01*
X17891784Y-15330995D01*
X17900975Y-15340186D01*
X17899561Y-15341600D01*
X17982974Y-15425014D01*
X18002515Y-15413751D01*
X18020922Y-15361987D01*
X18019359Y-15331409D01*
X19394027Y-15335872D01*
X19396082Y-15376081D01*
X19411685Y-15413751D01*
X19431226Y-15425014D01*
X19514640Y-15341600D01*
X19513225Y-15340186D01*
X19517139Y-15336272D01*
X19548162Y-15336373D01*
X19551975Y-15340186D01*
X19550561Y-15341600D01*
X19633974Y-15425014D01*
X19653515Y-15413751D01*
X19671922Y-15361987D01*
X19670633Y-15336770D01*
X21045301Y-15341233D01*
X21047082Y-15376081D01*
X21062685Y-15413751D01*
X21082226Y-15425014D01*
X21165615Y-15341624D01*
X21201702Y-15341741D01*
X21284974Y-15425014D01*
X21304515Y-15413751D01*
X21322922Y-15361987D01*
X21321907Y-15342132D01*
X22696575Y-15346595D01*
X22698082Y-15376081D01*
X22713685Y-15413751D01*
X22733226Y-15425014D01*
X22811272Y-15346967D01*
X22858080Y-15347119D01*
X22935974Y-15425014D01*
X22955515Y-15413751D01*
X22973922Y-15361987D01*
X22973181Y-15347493D01*
X24347849Y-15351956D01*
X24349082Y-15376081D01*
X24364685Y-15413751D01*
X24384226Y-15425014D01*
X24456929Y-15352310D01*
X24514457Y-15352497D01*
X24586974Y-15425014D01*
X24606515Y-15413751D01*
X24624922Y-15361987D01*
X24624455Y-15352854D01*
X24767994Y-15353320D01*
X24769985Y-15353170D01*
X24785722Y-15350724D01*
X24789512Y-15349504D01*
X24803719Y-15342306D01*
X24806945Y-15339971D01*
X24818225Y-15328728D01*
X24820569Y-15325510D01*
X24827814Y-15311327D01*
X24829046Y-15307541D01*
X24831543Y-15291811D01*
X24831700Y-15289820D01*
X24831700Y-14224000D01*
X24831456Y-14221522D01*
X24827589Y-14202082D01*
X24825693Y-14197504D01*
X24814681Y-14181023D01*
X24811177Y-14177519D01*
X24794696Y-14166507D01*
X24790118Y-14164611D01*
X24770678Y-14160744D01*
X24768200Y-14160500D01*
X16743051Y-14160500D01*
X16727315Y-14157370D01*
X16715035Y-14149165D01*
X16706830Y-14136885D01*
X16703700Y-14121149D01*
X16703700Y-9296933D01*
X16759227Y-9296933D01*
X16766311Y-9312950D01*
X16805740Y-9325670D01*
X16847035Y-9322333D01*
X16869689Y-9312950D01*
X16876773Y-9296933D01*
X16818000Y-9238161D01*
X16759227Y-9296933D01*
X16703700Y-9296933D01*
X16703700Y-9207940D01*
X16712530Y-9207940D01*
X16715867Y-9249235D01*
X16725250Y-9271889D01*
X16741267Y-9278973D01*
X16800040Y-9220200D01*
X16835961Y-9220200D01*
X16894733Y-9278973D01*
X16910750Y-9271889D01*
X16923470Y-9232460D01*
X16920133Y-9191165D01*
X16910750Y-9168511D01*
X16894733Y-9161427D01*
X16835961Y-9220200D01*
X16800040Y-9220200D01*
X16741267Y-9161427D01*
X16725250Y-9168511D01*
X16712530Y-9207940D01*
X16703700Y-9207940D01*
X16703700Y-9143467D01*
X16759227Y-9143467D01*
X16818000Y-9202240D01*
X16876773Y-9143467D01*
X16869689Y-9127450D01*
X16830260Y-9114730D01*
X16788965Y-9118067D01*
X16766311Y-9127450D01*
X16759227Y-9143467D01*
X16703700Y-9143467D01*
X16703700Y-9042933D01*
X16759227Y-9042933D01*
X16766311Y-9058950D01*
X16805740Y-9071670D01*
X16847035Y-9068333D01*
X16869689Y-9058950D01*
X16876773Y-9042933D01*
X16818000Y-8984161D01*
X16759227Y-9042933D01*
X16703700Y-9042933D01*
X16703700Y-8953940D01*
X16712530Y-8953940D01*
X16715867Y-8995235D01*
X16725250Y-9017889D01*
X16741267Y-9024973D01*
X16800040Y-8966200D01*
X16835961Y-8966200D01*
X16894733Y-9024973D01*
X16910750Y-9017889D01*
X16923470Y-8978460D01*
X16920133Y-8937165D01*
X16910750Y-8914511D01*
X16894733Y-8907427D01*
X16835961Y-8966200D01*
X16800040Y-8966200D01*
X16741267Y-8907427D01*
X16725250Y-8914511D01*
X16712530Y-8953940D01*
X16703700Y-8953940D01*
X16703700Y-8889467D01*
X16759227Y-8889467D01*
X16818000Y-8948240D01*
X16876773Y-8889467D01*
X16869689Y-8873450D01*
X16830260Y-8860730D01*
X16788965Y-8864067D01*
X16766311Y-8873450D01*
X16759227Y-8889467D01*
X16703700Y-8889467D01*
X16703700Y-8788933D01*
X16759227Y-8788933D01*
X16766311Y-8804950D01*
X16805740Y-8817670D01*
X16847035Y-8814333D01*
X16869689Y-8804950D01*
X16876773Y-8788933D01*
X16818000Y-8730161D01*
X16759227Y-8788933D01*
X16703700Y-8788933D01*
X16703700Y-8699940D01*
X16712530Y-8699940D01*
X16715867Y-8741235D01*
X16725250Y-8763889D01*
X16741267Y-8770973D01*
X16800040Y-8712200D01*
X16835961Y-8712200D01*
X16894733Y-8770973D01*
X16910750Y-8763889D01*
X16923470Y-8724460D01*
X16920133Y-8683165D01*
X16910750Y-8660511D01*
X16894733Y-8653427D01*
X16835961Y-8712200D01*
X16800040Y-8712200D01*
X16741267Y-8653427D01*
X16725250Y-8660511D01*
X16712530Y-8699940D01*
X16703700Y-8699940D01*
X16703700Y-8637251D01*
X16704055Y-8635467D01*
X16759227Y-8635467D01*
X16818000Y-8694240D01*
X16876773Y-8635467D01*
X16869689Y-8619450D01*
X16830260Y-8606730D01*
X16788965Y-8610067D01*
X16766311Y-8619450D01*
X16759227Y-8635467D01*
X16704055Y-8635467D01*
X16706830Y-8621515D01*
X16715035Y-8609235D01*
X16727315Y-8601030D01*
X16743051Y-8597900D01*
X16892949Y-8597900D01*
X16908685Y-8601030D01*
X16908685Y-8601030D01*
G37*
X16908685Y-8601030D02*
X16920965Y-8609235D01*
X16929170Y-8621515D01*
X16932300Y-8637251D01*
X16932300Y-13868400D01*
X16932544Y-13870878D01*
X16936411Y-13890318D01*
X16938307Y-13894896D01*
X16949319Y-13911377D01*
X16952823Y-13914881D01*
X16969304Y-13925893D01*
X16973882Y-13927789D01*
X16993322Y-13931656D01*
X16995800Y-13931900D01*
X25020949Y-13931900D01*
X25036685Y-13935030D01*
X25048965Y-13943235D01*
X25057170Y-13955515D01*
X25060300Y-13971251D01*
X25060300Y-18185149D01*
X25057170Y-18200885D01*
X25048965Y-18213165D01*
X25036685Y-18221370D01*
X25020949Y-18224500D01*
X24566632Y-18224500D01*
X24563929Y-18221793D01*
X24513190Y-18200724D01*
X24458251Y-18200676D01*
X24407475Y-18221656D01*
X24404626Y-18224500D01*
X22915632Y-18224500D01*
X22912929Y-18221793D01*
X22862190Y-18200724D01*
X22807251Y-18200676D01*
X22756475Y-18221656D01*
X22753626Y-18224500D01*
X21264632Y-18224500D01*
X21261930Y-18221793D01*
X21211190Y-18200724D01*
X21156251Y-18200676D01*
X21105475Y-18221656D01*
X21102626Y-18224500D01*
X19613632Y-18224500D01*
X19610930Y-18221793D01*
X19560190Y-18200724D01*
X19505251Y-18200676D01*
X19454475Y-18221656D01*
X19451626Y-18224500D01*
X17962632Y-18224500D01*
X17959930Y-18221793D01*
X17909190Y-18200724D01*
X17854251Y-18200676D01*
X17803475Y-18221656D01*
X17800626Y-18224500D01*
X17298651Y-18224500D01*
X17282915Y-18221370D01*
X17276221Y-18216897D01*
X17281081Y-18216649D01*
X17318752Y-18201045D01*
X17327322Y-18186174D01*
X18814186Y-18186174D01*
X18825449Y-18205715D01*
X18877213Y-18224122D01*
X18932081Y-18221318D01*
X18969752Y-18205715D01*
X18981014Y-18186174D01*
X20465186Y-18186174D01*
X20476449Y-18205715D01*
X20528213Y-18224122D01*
X20583081Y-18221318D01*
X20620752Y-18205715D01*
X20632014Y-18186174D01*
X22116186Y-18186174D01*
X22127449Y-18205715D01*
X22179213Y-18224122D01*
X22234081Y-18221318D01*
X22271752Y-18205715D01*
X22283014Y-18186174D01*
X23767186Y-18186174D01*
X23778448Y-18205715D01*
X23830213Y-18224122D01*
X23885081Y-18221318D01*
X23922751Y-18205715D01*
X23934014Y-18186174D01*
X23850600Y-18102761D01*
X23767186Y-18186174D01*
X22283014Y-18186174D01*
X22199600Y-18102761D01*
X22116186Y-18186174D01*
X20632014Y-18186174D01*
X20548600Y-18102761D01*
X20465186Y-18186174D01*
X18981014Y-18186174D01*
X18897600Y-18102761D01*
X18814186Y-18186174D01*
X17327322Y-18186174D01*
X17330014Y-18181505D01*
X17259300Y-18110791D01*
X17259300Y-18080131D01*
X17264561Y-18080131D01*
X17347974Y-18163544D01*
X17367515Y-18152282D01*
X17385922Y-18100518D01*
X17384077Y-18064413D01*
X18758278Y-18064413D01*
X18761082Y-18119281D01*
X18776685Y-18156952D01*
X18796226Y-18168214D01*
X18879640Y-18084800D01*
X18915561Y-18084800D01*
X18998974Y-18168214D01*
X19018515Y-18156952D01*
X19036922Y-18105187D01*
X19034839Y-18064413D01*
X20409278Y-18064413D01*
X20412082Y-18119281D01*
X20427685Y-18156952D01*
X20447226Y-18168214D01*
X20530640Y-18084800D01*
X20566561Y-18084800D01*
X20649974Y-18168214D01*
X20669515Y-18156952D01*
X20687922Y-18105187D01*
X20685839Y-18064413D01*
X22060278Y-18064413D01*
X22063082Y-18119281D01*
X22078685Y-18156952D01*
X22098226Y-18168214D01*
X22181640Y-18084800D01*
X22217561Y-18084800D01*
X22300974Y-18168214D01*
X22320515Y-18156952D01*
X22338922Y-18105187D01*
X22336839Y-18064413D01*
X23711278Y-18064413D01*
X23714082Y-18119281D01*
X23729685Y-18156952D01*
X23749226Y-18168214D01*
X23832639Y-18084800D01*
X23868560Y-18084800D01*
X23951974Y-18168214D01*
X23971515Y-18156952D01*
X23989922Y-18105187D01*
X23987118Y-18050319D01*
X23971515Y-18012649D01*
X23951974Y-18001386D01*
X23868560Y-18084800D01*
X23832639Y-18084800D01*
X23749226Y-18001386D01*
X23729685Y-18012649D01*
X23711278Y-18064413D01*
X22336839Y-18064413D01*
X22336118Y-18050319D01*
X22320515Y-18012649D01*
X22300974Y-18001386D01*
X22217561Y-18084800D01*
X22181640Y-18084800D01*
X22098226Y-18001386D01*
X22078685Y-18012649D01*
X22060278Y-18064413D01*
X20685839Y-18064413D01*
X20685118Y-18050319D01*
X20669515Y-18012649D01*
X20649974Y-18001386D01*
X20566561Y-18084800D01*
X20530640Y-18084800D01*
X20447226Y-18001386D01*
X20427685Y-18012649D01*
X20409278Y-18064413D01*
X19034839Y-18064413D01*
X19034118Y-18050319D01*
X19018515Y-18012649D01*
X18998974Y-18001386D01*
X18915561Y-18084800D01*
X18879640Y-18084800D01*
X18796226Y-18001386D01*
X18776685Y-18012649D01*
X18758278Y-18064413D01*
X17384077Y-18064413D01*
X17383118Y-18045650D01*
X17367515Y-18007979D01*
X17347974Y-17996717D01*
X17264561Y-18080131D01*
X17259300Y-18080131D01*
X17259300Y-18049470D01*
X17325344Y-17983426D01*
X18814186Y-17983426D01*
X18897600Y-18066840D01*
X18981014Y-17983426D01*
X20465186Y-17983426D01*
X20548600Y-18066840D01*
X20632014Y-17983426D01*
X22116186Y-17983426D01*
X22199600Y-18066840D01*
X22283014Y-17983426D01*
X23767186Y-17983426D01*
X23850600Y-18066840D01*
X23934014Y-17983426D01*
X23922751Y-17963885D01*
X23870987Y-17945478D01*
X23816119Y-17948282D01*
X23778448Y-17963885D01*
X23767186Y-17983426D01*
X22283014Y-17983426D01*
X22271752Y-17963885D01*
X22219987Y-17945478D01*
X22165119Y-17948282D01*
X22127449Y-17963885D01*
X22116186Y-17983426D01*
X20632014Y-17983426D01*
X20620752Y-17963885D01*
X20568987Y-17945478D01*
X20514119Y-17948282D01*
X20476449Y-17963885D01*
X20465186Y-17983426D01*
X18981014Y-17983426D01*
X18969752Y-17963885D01*
X18917987Y-17945478D01*
X18863119Y-17948282D01*
X18825449Y-17963885D01*
X18814186Y-17983426D01*
X17325344Y-17983426D01*
X17330014Y-17978756D01*
X17318752Y-17959216D01*
X17266987Y-17940809D01*
X17259300Y-17941202D01*
X17259300Y-17908251D01*
X17262430Y-17892515D01*
X17270635Y-17880235D01*
X17282915Y-17872030D01*
X17298651Y-17868900D01*
X17746581Y-17868900D01*
X17760685Y-17902952D01*
X17780226Y-17914214D01*
X17825540Y-17868900D01*
X17861461Y-17868900D01*
X17798186Y-17932174D01*
X17809449Y-17951715D01*
X17861213Y-17970122D01*
X17916081Y-17967318D01*
X17953752Y-17951715D01*
X17965014Y-17932174D01*
X17901740Y-17868900D01*
X17937661Y-17868900D01*
X17982974Y-17914214D01*
X18002515Y-17902952D01*
X18014623Y-17868900D01*
X19397581Y-17868900D01*
X19411685Y-17902952D01*
X19431226Y-17914214D01*
X19476540Y-17868900D01*
X19512461Y-17868900D01*
X19449186Y-17932174D01*
X19460449Y-17951715D01*
X19512213Y-17970122D01*
X19567081Y-17967318D01*
X19604752Y-17951715D01*
X19616014Y-17932174D01*
X19552740Y-17868900D01*
X19588661Y-17868900D01*
X19633974Y-17914214D01*
X19653515Y-17902952D01*
X19665623Y-17868900D01*
X21048581Y-17868900D01*
X21062685Y-17902952D01*
X21082226Y-17914214D01*
X21127540Y-17868900D01*
X21163461Y-17868900D01*
X21100186Y-17932174D01*
X21111449Y-17951715D01*
X21163213Y-17970122D01*
X21218081Y-17967318D01*
X21255752Y-17951715D01*
X21267014Y-17932174D01*
X21203740Y-17868900D01*
X21239661Y-17868900D01*
X21284974Y-17914214D01*
X21304515Y-17902952D01*
X21316623Y-17868900D01*
X22699581Y-17868900D01*
X22713685Y-17902952D01*
X22733226Y-17914214D01*
X22778539Y-17868900D01*
X22814460Y-17868900D01*
X22751186Y-17932174D01*
X22762448Y-17951715D01*
X22814213Y-17970122D01*
X22869081Y-17967318D01*
X22906751Y-17951715D01*
X22918014Y-17932174D01*
X22854739Y-17868900D01*
X22890660Y-17868900D01*
X22935974Y-17914214D01*
X22955515Y-17902952D01*
X22967623Y-17868900D01*
X24350581Y-17868900D01*
X24364685Y-17902952D01*
X24384226Y-17914214D01*
X24429539Y-17868900D01*
X24465460Y-17868900D01*
X24402186Y-17932174D01*
X24413448Y-17951715D01*
X24465213Y-17970122D01*
X24520081Y-17967318D01*
X24557751Y-17951715D01*
X24569014Y-17932174D01*
X24505739Y-17868900D01*
X24541660Y-17868900D01*
X24586974Y-17914214D01*
X24606515Y-17902952D01*
X24618623Y-17868900D01*
X24768200Y-17868900D01*
X24770678Y-17868656D01*
X24790118Y-17864789D01*
X24794696Y-17862893D01*
X24811177Y-17851881D01*
X24814681Y-17848377D01*
X24825693Y-17831896D01*
X24827589Y-17827318D01*
X24831456Y-17807878D01*
X24831700Y-17805400D01*
X24831700Y-15748000D01*
X24831456Y-15745522D01*
X24827589Y-15726082D01*
X24825693Y-15721504D01*
X24814681Y-15705023D01*
X24811177Y-15701519D01*
X24794696Y-15690507D01*
X24790118Y-15688611D01*
X24770678Y-15684744D01*
X24768200Y-15684500D01*
X23957461Y-15684500D01*
X23951974Y-15679014D01*
X23971515Y-15667751D01*
X23989922Y-15615987D01*
X23987118Y-15561119D01*
X23971515Y-15523448D01*
X23951974Y-15512186D01*
X23868560Y-15595600D01*
X23869975Y-15597014D01*
X23852014Y-15614975D01*
X23850600Y-15613560D01*
X23849186Y-15614975D01*
X23831225Y-15597014D01*
X23832639Y-15595600D01*
X23749226Y-15512186D01*
X23729685Y-15523448D01*
X23711278Y-15575213D01*
X23714082Y-15630081D01*
X23729685Y-15667751D01*
X23749226Y-15679014D01*
X23743739Y-15684500D01*
X22306461Y-15684500D01*
X22300974Y-15679014D01*
X22320515Y-15667751D01*
X22338922Y-15615987D01*
X22336118Y-15561119D01*
X22320515Y-15523448D01*
X22300974Y-15512186D01*
X22217561Y-15595600D01*
X22218975Y-15597014D01*
X22201014Y-15614975D01*
X22199600Y-15613560D01*
X22198186Y-15614975D01*
X22180225Y-15597014D01*
X22181640Y-15595600D01*
X22098226Y-15512186D01*
X22078685Y-15523448D01*
X22060278Y-15575213D01*
X22063082Y-15630081D01*
X22078685Y-15667751D01*
X22098226Y-15679014D01*
X22092739Y-15684500D01*
X20655461Y-15684500D01*
X20649974Y-15679014D01*
X20669515Y-15667751D01*
X20687922Y-15615987D01*
X20685118Y-15561119D01*
X20669515Y-15523448D01*
X20649974Y-15512186D01*
X20566561Y-15595600D01*
X20567975Y-15597014D01*
X20550014Y-15614975D01*
X20548600Y-15613560D01*
X20547186Y-15614975D01*
X20529225Y-15597014D01*
X20530640Y-15595600D01*
X20447226Y-15512186D01*
X20427685Y-15523448D01*
X20409278Y-15575213D01*
X20412082Y-15630081D01*
X20427685Y-15667751D01*
X20447226Y-15679014D01*
X20441739Y-15684500D01*
X19005280Y-15684500D01*
X18998974Y-15678194D01*
X19018515Y-15666932D01*
X19036922Y-15615168D01*
X19034118Y-15560300D01*
X19018515Y-15522629D01*
X18998974Y-15511367D01*
X18915561Y-15594781D01*
X18916975Y-15596195D01*
X18899014Y-15614156D01*
X18897600Y-15612741D01*
X18896186Y-15614156D01*
X18878225Y-15596195D01*
X18879640Y-15594781D01*
X18796226Y-15511367D01*
X18776685Y-15522629D01*
X18758278Y-15574393D01*
X18761082Y-15629261D01*
X18776685Y-15666932D01*
X18796226Y-15678194D01*
X18789920Y-15684500D01*
X17353461Y-15684500D01*
X17347974Y-15679014D01*
X17367515Y-15667751D01*
X17385922Y-15615987D01*
X17383118Y-15561119D01*
X17367515Y-15523448D01*
X17347974Y-15512186D01*
X17264561Y-15595600D01*
X17265975Y-15597014D01*
X17259300Y-15603689D01*
X17259300Y-15564939D01*
X17330014Y-15494226D01*
X17329542Y-15493407D01*
X18814186Y-15493407D01*
X18897600Y-15576820D01*
X18980195Y-15494226D01*
X20465186Y-15494226D01*
X20548600Y-15577639D01*
X20632014Y-15494226D01*
X22116186Y-15494226D01*
X22199600Y-15577639D01*
X22283014Y-15494226D01*
X23767186Y-15494226D01*
X23850600Y-15577639D01*
X23934014Y-15494226D01*
X23922751Y-15474685D01*
X23870987Y-15456278D01*
X23816119Y-15459082D01*
X23778448Y-15474685D01*
X23767186Y-15494226D01*
X22283014Y-15494226D01*
X22271752Y-15474685D01*
X22219987Y-15456278D01*
X22165119Y-15459082D01*
X22127449Y-15474685D01*
X22116186Y-15494226D01*
X20632014Y-15494226D01*
X20620752Y-15474685D01*
X20568987Y-15456278D01*
X20514119Y-15459082D01*
X20476449Y-15474685D01*
X20465186Y-15494226D01*
X18980195Y-15494226D01*
X18981014Y-15493407D01*
X18969752Y-15473866D01*
X18917987Y-15455459D01*
X18863119Y-15458262D01*
X18825449Y-15473866D01*
X18814186Y-15493407D01*
X17329542Y-15493407D01*
X17318752Y-15474685D01*
X17266987Y-15456278D01*
X17259300Y-15456671D01*
X17259300Y-15442974D01*
X17798186Y-15442974D01*
X17809449Y-15462515D01*
X17861213Y-15480922D01*
X17916081Y-15478118D01*
X17953752Y-15462515D01*
X17965014Y-15442974D01*
X19449186Y-15442974D01*
X19460449Y-15462515D01*
X19512213Y-15480922D01*
X19567081Y-15478118D01*
X19604752Y-15462515D01*
X19616014Y-15442974D01*
X21100186Y-15442974D01*
X21111449Y-15462515D01*
X21163213Y-15480922D01*
X21218081Y-15478118D01*
X21255752Y-15462515D01*
X21267014Y-15442974D01*
X22751186Y-15442974D01*
X22762448Y-15462515D01*
X22814213Y-15480922D01*
X22869081Y-15478118D01*
X22906751Y-15462515D01*
X22918014Y-15442974D01*
X24402186Y-15442974D01*
X24413448Y-15462515D01*
X24465213Y-15480922D01*
X24520081Y-15478118D01*
X24557751Y-15462515D01*
X24569014Y-15442974D01*
X24485600Y-15359560D01*
X24402186Y-15442974D01*
X22918014Y-15442974D01*
X22834600Y-15359560D01*
X22751186Y-15442974D01*
X21267014Y-15442974D01*
X21183600Y-15359560D01*
X21100186Y-15442974D01*
X19616014Y-15442974D01*
X19532600Y-15359560D01*
X19449186Y-15442974D01*
X17965014Y-15442974D01*
X17881600Y-15359560D01*
X17798186Y-15442974D01*
X17259300Y-15442974D01*
X17259300Y-15368167D01*
X17261324Y-15355417D01*
X17266734Y-15344824D01*
X17275159Y-15336427D01*
X17285769Y-15331051D01*
X17298525Y-15329069D01*
X17742753Y-15330511D01*
X17745082Y-15376081D01*
X17760685Y-15413751D01*
X17780226Y-15425014D01*
X17863640Y-15341600D01*
X17862225Y-15340186D01*
X17871482Y-15330929D01*
X17891784Y-15330995D01*
X17900975Y-15340186D01*
X17899561Y-15341600D01*
X17982974Y-15425014D01*
X18002515Y-15413751D01*
X18020922Y-15361987D01*
X18019359Y-15331409D01*
X19394027Y-15335872D01*
X19396082Y-15376081D01*
X19411685Y-15413751D01*
X19431226Y-15425014D01*
X19514640Y-15341600D01*
X19513225Y-15340186D01*
X19517139Y-15336272D01*
X19548162Y-15336373D01*
X19551975Y-15340186D01*
X19550561Y-15341600D01*
X19633974Y-15425014D01*
X19653515Y-15413751D01*
X19671922Y-15361987D01*
X19670633Y-15336770D01*
X21045301Y-15341233D01*
X21047082Y-15376081D01*
X21062685Y-15413751D01*
X21082226Y-15425014D01*
X21165615Y-15341624D01*
X21201702Y-15341741D01*
X21284974Y-15425014D01*
X21304515Y-15413751D01*
X21322922Y-15361987D01*
X21321907Y-15342132D01*
X22696575Y-15346595D01*
X22698082Y-15376081D01*
X22713685Y-15413751D01*
X22733226Y-15425014D01*
X22811272Y-15346967D01*
X22858080Y-15347119D01*
X22935974Y-15425014D01*
X22955515Y-15413751D01*
X22973922Y-15361987D01*
X22973181Y-15347493D01*
X24347849Y-15351956D01*
X24349082Y-15376081D01*
X24364685Y-15413751D01*
X24384226Y-15425014D01*
X24456929Y-15352310D01*
X24514457Y-15352497D01*
X24586974Y-15425014D01*
X24606515Y-15413751D01*
X24624922Y-15361987D01*
X24624455Y-15352854D01*
X24767994Y-15353320D01*
X24769985Y-15353170D01*
X24785722Y-15350724D01*
X24789512Y-15349504D01*
X24803719Y-15342306D01*
X24806945Y-15339971D01*
X24818225Y-15328728D01*
X24820569Y-15325510D01*
X24827814Y-15311327D01*
X24829046Y-15307541D01*
X24831543Y-15291811D01*
X24831700Y-15289820D01*
X24831700Y-14224000D01*
X24831456Y-14221522D01*
X24827589Y-14202082D01*
X24825693Y-14197504D01*
X24814681Y-14181023D01*
X24811177Y-14177519D01*
X24794696Y-14166507D01*
X24790118Y-14164611D01*
X24770678Y-14160744D01*
X24768200Y-14160500D01*
X16743051Y-14160500D01*
X16727315Y-14157370D01*
X16715035Y-14149165D01*
X16706830Y-14136885D01*
X16703700Y-14121149D01*
X16703700Y-9296933D01*
X16759227Y-9296933D01*
X16766311Y-9312950D01*
X16805740Y-9325670D01*
X16847035Y-9322333D01*
X16869689Y-9312950D01*
X16876773Y-9296933D01*
X16818000Y-9238161D01*
X16759227Y-9296933D01*
X16703700Y-9296933D01*
X16703700Y-9207940D01*
X16712530Y-9207940D01*
X16715867Y-9249235D01*
X16725250Y-9271889D01*
X16741267Y-9278973D01*
X16800040Y-9220200D01*
X16835961Y-9220200D01*
X16894733Y-9278973D01*
X16910750Y-9271889D01*
X16923470Y-9232460D01*
X16920133Y-9191165D01*
X16910750Y-9168511D01*
X16894733Y-9161427D01*
X16835961Y-9220200D01*
X16800040Y-9220200D01*
X16741267Y-9161427D01*
X16725250Y-9168511D01*
X16712530Y-9207940D01*
X16703700Y-9207940D01*
X16703700Y-9143467D01*
X16759227Y-9143467D01*
X16818000Y-9202240D01*
X16876773Y-9143467D01*
X16869689Y-9127450D01*
X16830260Y-9114730D01*
X16788965Y-9118067D01*
X16766311Y-9127450D01*
X16759227Y-9143467D01*
X16703700Y-9143467D01*
X16703700Y-9042933D01*
X16759227Y-9042933D01*
X16766311Y-9058950D01*
X16805740Y-9071670D01*
X16847035Y-9068333D01*
X16869689Y-9058950D01*
X16876773Y-9042933D01*
X16818000Y-8984161D01*
X16759227Y-9042933D01*
X16703700Y-9042933D01*
X16703700Y-8953940D01*
X16712530Y-8953940D01*
X16715867Y-8995235D01*
X16725250Y-9017889D01*
X16741267Y-9024973D01*
X16800040Y-8966200D01*
X16835961Y-8966200D01*
X16894733Y-9024973D01*
X16910750Y-9017889D01*
X16923470Y-8978460D01*
X16920133Y-8937165D01*
X16910750Y-8914511D01*
X16894733Y-8907427D01*
X16835961Y-8966200D01*
X16800040Y-8966200D01*
X16741267Y-8907427D01*
X16725250Y-8914511D01*
X16712530Y-8953940D01*
X16703700Y-8953940D01*
X16703700Y-8889467D01*
X16759227Y-8889467D01*
X16818000Y-8948240D01*
X16876773Y-8889467D01*
X16869689Y-8873450D01*
X16830260Y-8860730D01*
X16788965Y-8864067D01*
X16766311Y-8873450D01*
X16759227Y-8889467D01*
X16703700Y-8889467D01*
X16703700Y-8788933D01*
X16759227Y-8788933D01*
X16766311Y-8804950D01*
X16805740Y-8817670D01*
X16847035Y-8814333D01*
X16869689Y-8804950D01*
X16876773Y-8788933D01*
X16818000Y-8730161D01*
X16759227Y-8788933D01*
X16703700Y-8788933D01*
X16703700Y-8699940D01*
X16712530Y-8699940D01*
X16715867Y-8741235D01*
X16725250Y-8763889D01*
X16741267Y-8770973D01*
X16800040Y-8712200D01*
X16835961Y-8712200D01*
X16894733Y-8770973D01*
X16910750Y-8763889D01*
X16923470Y-8724460D01*
X16920133Y-8683165D01*
X16910750Y-8660511D01*
X16894733Y-8653427D01*
X16835961Y-8712200D01*
X16800040Y-8712200D01*
X16741267Y-8653427D01*
X16725250Y-8660511D01*
X16712530Y-8699940D01*
X16703700Y-8699940D01*
X16703700Y-8637251D01*
X16704055Y-8635467D01*
X16759227Y-8635467D01*
X16818000Y-8694240D01*
X16876773Y-8635467D01*
X16869689Y-8619450D01*
X16830260Y-8606730D01*
X16788965Y-8610067D01*
X16766311Y-8619450D01*
X16759227Y-8635467D01*
X16704055Y-8635467D01*
X16706830Y-8621515D01*
X16715035Y-8609235D01*
X16727315Y-8601030D01*
X16743051Y-8597900D01*
X16892949Y-8597900D01*
X16908685Y-8601030D01*
G36*
X21368691Y-9663947D02*
X21356934Y-9668805D01*
X21328329Y-9697361D01*
X21312829Y-9734689D01*
X21312793Y-9775108D01*
X21328229Y-9812464D01*
X21356784Y-9841070D01*
X21394113Y-9856570D01*
X21434532Y-9856605D01*
X21471888Y-9841170D01*
X21489226Y-9823862D01*
X22353699Y-9823862D01*
X22359681Y-9838959D01*
X22395872Y-9850187D01*
X22433605Y-9846710D01*
X22452319Y-9838959D01*
X22458301Y-9823862D01*
X22406000Y-9771561D01*
X22353699Y-9823862D01*
X21489226Y-9823862D01*
X21500493Y-9812614D01*
X21515993Y-9775286D01*
X21516021Y-9743473D01*
X22309413Y-9743473D01*
X22312890Y-9781206D01*
X22320641Y-9799919D01*
X22335738Y-9805902D01*
X22388039Y-9753600D01*
X22423960Y-9753600D01*
X22476262Y-9805902D01*
X22491359Y-9799919D01*
X22502587Y-9763728D01*
X22499110Y-9725995D01*
X22491359Y-9707281D01*
X22476262Y-9701299D01*
X22423960Y-9753600D01*
X22388039Y-9753600D01*
X22335738Y-9701299D01*
X22320641Y-9707281D01*
X22309413Y-9743473D01*
X21516021Y-9743473D01*
X21516029Y-9734867D01*
X21500594Y-9697511D01*
X21486446Y-9683338D01*
X22353699Y-9683338D01*
X22406000Y-9735640D01*
X22458301Y-9683338D01*
X22452319Y-9668241D01*
X22416127Y-9657013D01*
X22378394Y-9660490D01*
X22359681Y-9668241D01*
X22353699Y-9683338D01*
X21486446Y-9683338D01*
X21472038Y-9668905D01*
X21460131Y-9663961D01*
X21460131Y-9613900D01*
X22480949Y-9613900D01*
X22496685Y-9617030D01*
X22508965Y-9625235D01*
X22517170Y-9637515D01*
X22520300Y-9653251D01*
X22520300Y-12597149D01*
X22517170Y-12612885D01*
X22508965Y-12625165D01*
X22496685Y-12633370D01*
X22480949Y-12636500D01*
X18521051Y-12636500D01*
X18507100Y-12633725D01*
X18507100Y-12116333D01*
X18613427Y-12116333D01*
X18620511Y-12132350D01*
X18659940Y-12145070D01*
X18701235Y-12141733D01*
X18723889Y-12132350D01*
X18730973Y-12116333D01*
X18672200Y-12057560D01*
X18613427Y-12116333D01*
X18507100Y-12116333D01*
X18507100Y-12027340D01*
X18566730Y-12027340D01*
X18570067Y-12068635D01*
X18579450Y-12091289D01*
X18595467Y-12098373D01*
X18654240Y-12039600D01*
X18690161Y-12039600D01*
X18748933Y-12098373D01*
X18764950Y-12091289D01*
X18777670Y-12051860D01*
X18774333Y-12010565D01*
X18764950Y-11987911D01*
X18748933Y-11980827D01*
X18690161Y-12039600D01*
X18654240Y-12039600D01*
X18595467Y-11980827D01*
X18579450Y-11987911D01*
X18566730Y-12027340D01*
X18507100Y-12027340D01*
X18507100Y-11962867D01*
X18613427Y-11962867D01*
X18672200Y-12021639D01*
X18730973Y-11962867D01*
X18723889Y-11946850D01*
X18684460Y-11934130D01*
X18643165Y-11937467D01*
X18620511Y-11946850D01*
X18613427Y-11962867D01*
X18507100Y-11962867D01*
X18507100Y-11836933D01*
X18613427Y-11836933D01*
X18620511Y-11852950D01*
X18659940Y-11865670D01*
X18701235Y-11862333D01*
X18723889Y-11852950D01*
X18730973Y-11836933D01*
X18672200Y-11778160D01*
X18613427Y-11836933D01*
X18507100Y-11836933D01*
X18507100Y-11747940D01*
X18566730Y-11747940D01*
X18570067Y-11789235D01*
X18579450Y-11811889D01*
X18595467Y-11818973D01*
X18654240Y-11760200D01*
X18690161Y-11760200D01*
X18748933Y-11818973D01*
X18764950Y-11811889D01*
X18777670Y-11772460D01*
X18774333Y-11731165D01*
X18764950Y-11708511D01*
X18748933Y-11701427D01*
X18690161Y-11760200D01*
X18654240Y-11760200D01*
X18595467Y-11701427D01*
X18579450Y-11708511D01*
X18566730Y-11747940D01*
X18507100Y-11747940D01*
X18507100Y-11683467D01*
X18613427Y-11683467D01*
X18672200Y-11742239D01*
X18730973Y-11683467D01*
X18723889Y-11667450D01*
X18684460Y-11654730D01*
X18643165Y-11658067D01*
X18620511Y-11667450D01*
X18613427Y-11683467D01*
X18507100Y-11683467D01*
X18507100Y-11597875D01*
X18521051Y-11595100D01*
X20701646Y-11595100D01*
X21080533Y-11973987D01*
X21080533Y-12138624D01*
X21068776Y-12143482D01*
X21040171Y-12172037D01*
X21024671Y-12209366D01*
X21024635Y-12249785D01*
X21040070Y-12287141D01*
X21068626Y-12315746D01*
X21105955Y-12331246D01*
X21146374Y-12331282D01*
X21183730Y-12315847D01*
X21212335Y-12287291D01*
X21227835Y-12249962D01*
X21227871Y-12209543D01*
X21212435Y-12172187D01*
X21183880Y-12143582D01*
X21171973Y-12138638D01*
X21171973Y-11955049D01*
X21168493Y-11937553D01*
X21158582Y-11922720D01*
X20830962Y-11595100D01*
X20958200Y-11595100D01*
X20960678Y-11594856D01*
X20980118Y-11590989D01*
X20984696Y-11589093D01*
X21001177Y-11578081D01*
X21004681Y-11574577D01*
X21015693Y-11558096D01*
X21017589Y-11553518D01*
X21021456Y-11534078D01*
X21021700Y-11531600D01*
X21021700Y-11007486D01*
X21118636Y-11104422D01*
X21135117Y-11115434D01*
X21154557Y-11119301D01*
X22153756Y-11119301D01*
X22153727Y-11152121D01*
X22169162Y-11189477D01*
X22197718Y-11218082D01*
X22235047Y-11233583D01*
X22275466Y-11233618D01*
X22312821Y-11218183D01*
X22341427Y-11189627D01*
X22356927Y-11152299D01*
X22356962Y-11111880D01*
X22341527Y-11074524D01*
X22312972Y-11045918D01*
X22275643Y-11030418D01*
X22235224Y-11030383D01*
X22228392Y-11033206D01*
X22227766Y-11032580D01*
X22211285Y-11021567D01*
X22191845Y-11017701D01*
X21175599Y-11017701D01*
X21021700Y-10863802D01*
X21021700Y-9653251D01*
X21024830Y-9637515D01*
X21033035Y-9625235D01*
X21045315Y-9617030D01*
X21061051Y-9613900D01*
X21368691Y-9613900D01*
X21368691Y-9663947D01*
X21368691Y-9663947D01*
G37*
X21368691Y-9663947D02*
X21356934Y-9668805D01*
X21328329Y-9697361D01*
X21312829Y-9734689D01*
X21312793Y-9775108D01*
X21328229Y-9812464D01*
X21356784Y-9841070D01*
X21394113Y-9856570D01*
X21434532Y-9856605D01*
X21471888Y-9841170D01*
X21489226Y-9823862D01*
X22353699Y-9823862D01*
X22359681Y-9838959D01*
X22395872Y-9850187D01*
X22433605Y-9846710D01*
X22452319Y-9838959D01*
X22458301Y-9823862D01*
X22406000Y-9771561D01*
X22353699Y-9823862D01*
X21489226Y-9823862D01*
X21500493Y-9812614D01*
X21515993Y-9775286D01*
X21516021Y-9743473D01*
X22309413Y-9743473D01*
X22312890Y-9781206D01*
X22320641Y-9799919D01*
X22335738Y-9805902D01*
X22388039Y-9753600D01*
X22423960Y-9753600D01*
X22476262Y-9805902D01*
X22491359Y-9799919D01*
X22502587Y-9763728D01*
X22499110Y-9725995D01*
X22491359Y-9707281D01*
X22476262Y-9701299D01*
X22423960Y-9753600D01*
X22388039Y-9753600D01*
X22335738Y-9701299D01*
X22320641Y-9707281D01*
X22309413Y-9743473D01*
X21516021Y-9743473D01*
X21516029Y-9734867D01*
X21500594Y-9697511D01*
X21486446Y-9683338D01*
X22353699Y-9683338D01*
X22406000Y-9735640D01*
X22458301Y-9683338D01*
X22452319Y-9668241D01*
X22416127Y-9657013D01*
X22378394Y-9660490D01*
X22359681Y-9668241D01*
X22353699Y-9683338D01*
X21486446Y-9683338D01*
X21472038Y-9668905D01*
X21460131Y-9663961D01*
X21460131Y-9613900D01*
X22480949Y-9613900D01*
X22496685Y-9617030D01*
X22508965Y-9625235D01*
X22517170Y-9637515D01*
X22520300Y-9653251D01*
X22520300Y-12597149D01*
X22517170Y-12612885D01*
X22508965Y-12625165D01*
X22496685Y-12633370D01*
X22480949Y-12636500D01*
X18521051Y-12636500D01*
X18507100Y-12633725D01*
X18507100Y-12116333D01*
X18613427Y-12116333D01*
X18620511Y-12132350D01*
X18659940Y-12145070D01*
X18701235Y-12141733D01*
X18723889Y-12132350D01*
X18730973Y-12116333D01*
X18672200Y-12057560D01*
X18613427Y-12116333D01*
X18507100Y-12116333D01*
X18507100Y-12027340D01*
X18566730Y-12027340D01*
X18570067Y-12068635D01*
X18579450Y-12091289D01*
X18595467Y-12098373D01*
X18654240Y-12039600D01*
X18690161Y-12039600D01*
X18748933Y-12098373D01*
X18764950Y-12091289D01*
X18777670Y-12051860D01*
X18774333Y-12010565D01*
X18764950Y-11987911D01*
X18748933Y-11980827D01*
X18690161Y-12039600D01*
X18654240Y-12039600D01*
X18595467Y-11980827D01*
X18579450Y-11987911D01*
X18566730Y-12027340D01*
X18507100Y-12027340D01*
X18507100Y-11962867D01*
X18613427Y-11962867D01*
X18672200Y-12021639D01*
X18730973Y-11962867D01*
X18723889Y-11946850D01*
X18684460Y-11934130D01*
X18643165Y-11937467D01*
X18620511Y-11946850D01*
X18613427Y-11962867D01*
X18507100Y-11962867D01*
X18507100Y-11836933D01*
X18613427Y-11836933D01*
X18620511Y-11852950D01*
X18659940Y-11865670D01*
X18701235Y-11862333D01*
X18723889Y-11852950D01*
X18730973Y-11836933D01*
X18672200Y-11778160D01*
X18613427Y-11836933D01*
X18507100Y-11836933D01*
X18507100Y-11747940D01*
X18566730Y-11747940D01*
X18570067Y-11789235D01*
X18579450Y-11811889D01*
X18595467Y-11818973D01*
X18654240Y-11760200D01*
X18690161Y-11760200D01*
X18748933Y-11818973D01*
X18764950Y-11811889D01*
X18777670Y-11772460D01*
X18774333Y-11731165D01*
X18764950Y-11708511D01*
X18748933Y-11701427D01*
X18690161Y-11760200D01*
X18654240Y-11760200D01*
X18595467Y-11701427D01*
X18579450Y-11708511D01*
X18566730Y-11747940D01*
X18507100Y-11747940D01*
X18507100Y-11683467D01*
X18613427Y-11683467D01*
X18672200Y-11742239D01*
X18730973Y-11683467D01*
X18723889Y-11667450D01*
X18684460Y-11654730D01*
X18643165Y-11658067D01*
X18620511Y-11667450D01*
X18613427Y-11683467D01*
X18507100Y-11683467D01*
X18507100Y-11597875D01*
X18521051Y-11595100D01*
X20701646Y-11595100D01*
X21080533Y-11973987D01*
X21080533Y-12138624D01*
X21068776Y-12143482D01*
X21040171Y-12172037D01*
X21024671Y-12209366D01*
X21024635Y-12249785D01*
X21040070Y-12287141D01*
X21068626Y-12315746D01*
X21105955Y-12331246D01*
X21146374Y-12331282D01*
X21183730Y-12315847D01*
X21212335Y-12287291D01*
X21227835Y-12249962D01*
X21227871Y-12209543D01*
X21212435Y-12172187D01*
X21183880Y-12143582D01*
X21171973Y-12138638D01*
X21171973Y-11955049D01*
X21168493Y-11937553D01*
X21158582Y-11922720D01*
X20830962Y-11595100D01*
X20958200Y-11595100D01*
X20960678Y-11594856D01*
X20980118Y-11590989D01*
X20984696Y-11589093D01*
X21001177Y-11578081D01*
X21004681Y-11574577D01*
X21015693Y-11558096D01*
X21017589Y-11553518D01*
X21021456Y-11534078D01*
X21021700Y-11531600D01*
X21021700Y-11007486D01*
X21118636Y-11104422D01*
X21135117Y-11115434D01*
X21154557Y-11119301D01*
X22153756Y-11119301D01*
X22153727Y-11152121D01*
X22169162Y-11189477D01*
X22197718Y-11218082D01*
X22235047Y-11233583D01*
X22275466Y-11233618D01*
X22312821Y-11218183D01*
X22341427Y-11189627D01*
X22356927Y-11152299D01*
X22356962Y-11111880D01*
X22341527Y-11074524D01*
X22312972Y-11045918D01*
X22275643Y-11030418D01*
X22235224Y-11030383D01*
X22228392Y-11033206D01*
X22227766Y-11032580D01*
X22211285Y-11021567D01*
X22191845Y-11017701D01*
X21175599Y-11017701D01*
X21021700Y-10863802D01*
X21021700Y-9653251D01*
X21024830Y-9637515D01*
X21033035Y-9625235D01*
X21045315Y-9617030D01*
X21061051Y-9613900D01*
X21368691Y-9613900D01*
X21368691Y-9663947D01*
D21*
G36*
X18434667Y-8596245D02*
X18448627Y-8605573D01*
X18457955Y-8619533D01*
X18461380Y-8636751D01*
X18461380Y-10266680D01*
X18413879Y-10266680D01*
X18396383Y-10270160D01*
X18381550Y-10280071D01*
X18310271Y-10351350D01*
X18300360Y-10366183D01*
X18296880Y-10383679D01*
X18296880Y-12350862D01*
X18246153Y-12401590D01*
X17589885Y-12401590D01*
X17585673Y-12391397D01*
X17558546Y-12364222D01*
X17523083Y-12349497D01*
X17484685Y-12349463D01*
X17449197Y-12364127D01*
X17422022Y-12391254D01*
X17407297Y-12426717D01*
X17407263Y-12465115D01*
X17421927Y-12500603D01*
X17449054Y-12527778D01*
X17484517Y-12542503D01*
X17522915Y-12542537D01*
X17558403Y-12527873D01*
X17585578Y-12500746D01*
X17588782Y-12493030D01*
X18265090Y-12493030D01*
X18282587Y-12489549D01*
X18297419Y-12479639D01*
X18374929Y-12402129D01*
X18384840Y-12387296D01*
X18388320Y-12369800D01*
X18388320Y-10402617D01*
X18432817Y-10358120D01*
X18461380Y-10358120D01*
X18461380Y-13156449D01*
X18457955Y-13173667D01*
X18448627Y-13187627D01*
X18434667Y-13196955D01*
X18417449Y-13200380D01*
X16996551Y-13200380D01*
X16979333Y-13196955D01*
X16978020Y-13196078D01*
X16978020Y-13132537D01*
X17147208Y-13132537D01*
X17154945Y-13146486D01*
X17193079Y-13156427D01*
X17232114Y-13151018D01*
X17243055Y-13146486D01*
X17250792Y-13132537D01*
X17401208Y-13132537D01*
X17408945Y-13146486D01*
X17447079Y-13156427D01*
X17486114Y-13151018D01*
X17497055Y-13146486D01*
X17504792Y-13132537D01*
X17655208Y-13132537D01*
X17662945Y-13146486D01*
X17701079Y-13156427D01*
X17740114Y-13151018D01*
X17751055Y-13146486D01*
X17758792Y-13132537D01*
X17909208Y-13132537D01*
X17916945Y-13146486D01*
X17955079Y-13156427D01*
X17994114Y-13151018D01*
X18005055Y-13146486D01*
X18012792Y-13132537D01*
X18163208Y-13132537D01*
X18170945Y-13146486D01*
X18209079Y-13156427D01*
X18248114Y-13151018D01*
X18259055Y-13146486D01*
X18266792Y-13132537D01*
X18215000Y-13080745D01*
X18163208Y-13132537D01*
X18012792Y-13132537D01*
X17961000Y-13080745D01*
X17909208Y-13132537D01*
X17758792Y-13132537D01*
X17707000Y-13080745D01*
X17655208Y-13132537D01*
X17504792Y-13132537D01*
X17453000Y-13080745D01*
X17401208Y-13132537D01*
X17250792Y-13132537D01*
X17199000Y-13080745D01*
X17147208Y-13132537D01*
X16978020Y-13132537D01*
X16978020Y-13049679D01*
X17098173Y-13049679D01*
X17103582Y-13088714D01*
X17108114Y-13099655D01*
X17122063Y-13107392D01*
X17173855Y-13055600D01*
X17224145Y-13055600D01*
X17275937Y-13107392D01*
X17289886Y-13099655D01*
X17299827Y-13061521D01*
X17298186Y-13049679D01*
X17352173Y-13049679D01*
X17357582Y-13088714D01*
X17362114Y-13099655D01*
X17376063Y-13107392D01*
X17427855Y-13055600D01*
X17478145Y-13055600D01*
X17529937Y-13107392D01*
X17543886Y-13099655D01*
X17553827Y-13061521D01*
X17552186Y-13049679D01*
X17606173Y-13049679D01*
X17611582Y-13088714D01*
X17616114Y-13099655D01*
X17630063Y-13107392D01*
X17681855Y-13055600D01*
X17732145Y-13055600D01*
X17783937Y-13107392D01*
X17797886Y-13099655D01*
X17807827Y-13061521D01*
X17806186Y-13049679D01*
X17860173Y-13049679D01*
X17865582Y-13088714D01*
X17870114Y-13099655D01*
X17884063Y-13107392D01*
X17935855Y-13055600D01*
X17986145Y-13055600D01*
X18037937Y-13107392D01*
X18051886Y-13099655D01*
X18061827Y-13061521D01*
X18060186Y-13049679D01*
X18114173Y-13049679D01*
X18119582Y-13088714D01*
X18124114Y-13099655D01*
X18138063Y-13107392D01*
X18189855Y-13055600D01*
X18240145Y-13055600D01*
X18291937Y-13107392D01*
X18305886Y-13099655D01*
X18315827Y-13061521D01*
X18310418Y-13022486D01*
X18305886Y-13011545D01*
X18291937Y-13003808D01*
X18240145Y-13055600D01*
X18189855Y-13055600D01*
X18138063Y-13003808D01*
X18124114Y-13011545D01*
X18114173Y-13049679D01*
X18060186Y-13049679D01*
X18056418Y-13022486D01*
X18051886Y-13011545D01*
X18037937Y-13003808D01*
X17986145Y-13055600D01*
X17935855Y-13055600D01*
X17884063Y-13003808D01*
X17870114Y-13011545D01*
X17860173Y-13049679D01*
X17806186Y-13049679D01*
X17802418Y-13022486D01*
X17797886Y-13011545D01*
X17783937Y-13003808D01*
X17732145Y-13055600D01*
X17681855Y-13055600D01*
X17630063Y-13003808D01*
X17616114Y-13011545D01*
X17606173Y-13049679D01*
X17552186Y-13049679D01*
X17548418Y-13022486D01*
X17543886Y-13011545D01*
X17529937Y-13003808D01*
X17478145Y-13055600D01*
X17427855Y-13055600D01*
X17376063Y-13003808D01*
X17362114Y-13011545D01*
X17352173Y-13049679D01*
X17298186Y-13049679D01*
X17294418Y-13022486D01*
X17289886Y-13011545D01*
X17275937Y-13003808D01*
X17224145Y-13055600D01*
X17173855Y-13055600D01*
X17122063Y-13003808D01*
X17108114Y-13011545D01*
X17098173Y-13049679D01*
X16978020Y-13049679D01*
X16978020Y-12978663D01*
X17147208Y-12978663D01*
X17199000Y-13030455D01*
X17250792Y-12978663D01*
X17401208Y-12978663D01*
X17453000Y-13030455D01*
X17504792Y-12978663D01*
X17655208Y-12978663D01*
X17707000Y-13030455D01*
X17758792Y-12978663D01*
X17909208Y-12978663D01*
X17961000Y-13030455D01*
X18012792Y-12978663D01*
X18163208Y-12978663D01*
X18215000Y-13030455D01*
X18266792Y-12978663D01*
X18259055Y-12964714D01*
X18220921Y-12954773D01*
X18181886Y-12960182D01*
X18170945Y-12964714D01*
X18163208Y-12978663D01*
X18012792Y-12978663D01*
X18005055Y-12964714D01*
X17966921Y-12954773D01*
X17927886Y-12960182D01*
X17916945Y-12964714D01*
X17909208Y-12978663D01*
X17758792Y-12978663D01*
X17751055Y-12964714D01*
X17712921Y-12954773D01*
X17673886Y-12960182D01*
X17662945Y-12964714D01*
X17655208Y-12978663D01*
X17504792Y-12978663D01*
X17497055Y-12964714D01*
X17458921Y-12954773D01*
X17419886Y-12960182D01*
X17408945Y-12964714D01*
X17401208Y-12978663D01*
X17250792Y-12978663D01*
X17243055Y-12964714D01*
X17204921Y-12954773D01*
X17165886Y-12960182D01*
X17154945Y-12964714D01*
X17147208Y-12978663D01*
X16978020Y-12978663D01*
X16978020Y-10864915D01*
X17026263Y-10864915D01*
X17040927Y-10900403D01*
X17068054Y-10927578D01*
X17103517Y-10942303D01*
X17141915Y-10942337D01*
X17177403Y-10927673D01*
X17204578Y-10900546D01*
X17208326Y-10891520D01*
X17910200Y-10891520D01*
X17927696Y-10888040D01*
X17942529Y-10878129D01*
X18110640Y-10710017D01*
X18119517Y-10713703D01*
X18157915Y-10713737D01*
X18193403Y-10699073D01*
X18220578Y-10671946D01*
X18235303Y-10636483D01*
X18235337Y-10598085D01*
X18220673Y-10562597D01*
X18193546Y-10535422D01*
X18158083Y-10520697D01*
X18119685Y-10520663D01*
X18084197Y-10535327D01*
X18057022Y-10562454D01*
X18042297Y-10597917D01*
X18042263Y-10636315D01*
X18045995Y-10645347D01*
X17891262Y-10800080D01*
X17208344Y-10800080D01*
X17204673Y-10791197D01*
X17177546Y-10764022D01*
X17142083Y-10749297D01*
X17103685Y-10749263D01*
X17068197Y-10763927D01*
X17041022Y-10791054D01*
X17026297Y-10826517D01*
X17026263Y-10864915D01*
X16978020Y-10864915D01*
X16978020Y-8754200D01*
X17359733Y-8754200D01*
X17359733Y-8924200D01*
X17362036Y-8936437D01*
X17369267Y-8947675D01*
X17380302Y-8955214D01*
X17393400Y-8957867D01*
X17563400Y-8957867D01*
X17575637Y-8955564D01*
X17586875Y-8948333D01*
X17594414Y-8937298D01*
X17597067Y-8924200D01*
X17597067Y-8875013D01*
X17619943Y-8875013D01*
X17642209Y-8915322D01*
X17678205Y-8944043D01*
X17696587Y-8951655D01*
X17714620Y-8947515D01*
X17714620Y-8856980D01*
X17750180Y-8856980D01*
X17750180Y-8947515D01*
X17768213Y-8951655D01*
X17786595Y-8944043D01*
X17822592Y-8915322D01*
X17844857Y-8875013D01*
X17840820Y-8856980D01*
X17750180Y-8856980D01*
X17714620Y-8856980D01*
X17623980Y-8856980D01*
X17619943Y-8875013D01*
X17597067Y-8875013D01*
X17597067Y-8803387D01*
X17619943Y-8803387D01*
X17623980Y-8821420D01*
X17714620Y-8821420D01*
X17714620Y-8730885D01*
X17750180Y-8730885D01*
X17750180Y-8821420D01*
X17840820Y-8821420D01*
X17844857Y-8803387D01*
X17822592Y-8763078D01*
X17786595Y-8734357D01*
X17768213Y-8726745D01*
X17750180Y-8730885D01*
X17714620Y-8730885D01*
X17696587Y-8726745D01*
X17678205Y-8734357D01*
X17642209Y-8763078D01*
X17619943Y-8803387D01*
X17597067Y-8803387D01*
X17597067Y-8754200D01*
X17594764Y-8741964D01*
X17587533Y-8730725D01*
X17576498Y-8723186D01*
X17563400Y-8720533D01*
X17393400Y-8720533D01*
X17381164Y-8722836D01*
X17369925Y-8730067D01*
X17362386Y-8741102D01*
X17359733Y-8754200D01*
X16978020Y-8754200D01*
X16978020Y-8636000D01*
X16977386Y-8629558D01*
X16973519Y-8610118D01*
X16970278Y-8602295D01*
X16979333Y-8596245D01*
X16996551Y-8592820D01*
X18417449Y-8592820D01*
X18434667Y-8596245D01*
X18434667Y-8596245D01*
G37*
X18434667Y-8596245D02*
X18448627Y-8605573D01*
X18457955Y-8619533D01*
X18461380Y-8636751D01*
X18461380Y-10266680D01*
X18413879Y-10266680D01*
X18396383Y-10270160D01*
X18381550Y-10280071D01*
X18310271Y-10351350D01*
X18300360Y-10366183D01*
X18296880Y-10383679D01*
X18296880Y-12350862D01*
X18246153Y-12401590D01*
X17589885Y-12401590D01*
X17585673Y-12391397D01*
X17558546Y-12364222D01*
X17523083Y-12349497D01*
X17484685Y-12349463D01*
X17449197Y-12364127D01*
X17422022Y-12391254D01*
X17407297Y-12426717D01*
X17407263Y-12465115D01*
X17421927Y-12500603D01*
X17449054Y-12527778D01*
X17484517Y-12542503D01*
X17522915Y-12542537D01*
X17558403Y-12527873D01*
X17585578Y-12500746D01*
X17588782Y-12493030D01*
X18265090Y-12493030D01*
X18282587Y-12489549D01*
X18297419Y-12479639D01*
X18374929Y-12402129D01*
X18384840Y-12387296D01*
X18388320Y-12369800D01*
X18388320Y-10402617D01*
X18432817Y-10358120D01*
X18461380Y-10358120D01*
X18461380Y-13156449D01*
X18457955Y-13173667D01*
X18448627Y-13187627D01*
X18434667Y-13196955D01*
X18417449Y-13200380D01*
X16996551Y-13200380D01*
X16979333Y-13196955D01*
X16978020Y-13196078D01*
X16978020Y-13132537D01*
X17147208Y-13132537D01*
X17154945Y-13146486D01*
X17193079Y-13156427D01*
X17232114Y-13151018D01*
X17243055Y-13146486D01*
X17250792Y-13132537D01*
X17401208Y-13132537D01*
X17408945Y-13146486D01*
X17447079Y-13156427D01*
X17486114Y-13151018D01*
X17497055Y-13146486D01*
X17504792Y-13132537D01*
X17655208Y-13132537D01*
X17662945Y-13146486D01*
X17701079Y-13156427D01*
X17740114Y-13151018D01*
X17751055Y-13146486D01*
X17758792Y-13132537D01*
X17909208Y-13132537D01*
X17916945Y-13146486D01*
X17955079Y-13156427D01*
X17994114Y-13151018D01*
X18005055Y-13146486D01*
X18012792Y-13132537D01*
X18163208Y-13132537D01*
X18170945Y-13146486D01*
X18209079Y-13156427D01*
X18248114Y-13151018D01*
X18259055Y-13146486D01*
X18266792Y-13132537D01*
X18215000Y-13080745D01*
X18163208Y-13132537D01*
X18012792Y-13132537D01*
X17961000Y-13080745D01*
X17909208Y-13132537D01*
X17758792Y-13132537D01*
X17707000Y-13080745D01*
X17655208Y-13132537D01*
X17504792Y-13132537D01*
X17453000Y-13080745D01*
X17401208Y-13132537D01*
X17250792Y-13132537D01*
X17199000Y-13080745D01*
X17147208Y-13132537D01*
X16978020Y-13132537D01*
X16978020Y-13049679D01*
X17098173Y-13049679D01*
X17103582Y-13088714D01*
X17108114Y-13099655D01*
X17122063Y-13107392D01*
X17173855Y-13055600D01*
X17224145Y-13055600D01*
X17275937Y-13107392D01*
X17289886Y-13099655D01*
X17299827Y-13061521D01*
X17298186Y-13049679D01*
X17352173Y-13049679D01*
X17357582Y-13088714D01*
X17362114Y-13099655D01*
X17376063Y-13107392D01*
X17427855Y-13055600D01*
X17478145Y-13055600D01*
X17529937Y-13107392D01*
X17543886Y-13099655D01*
X17553827Y-13061521D01*
X17552186Y-13049679D01*
X17606173Y-13049679D01*
X17611582Y-13088714D01*
X17616114Y-13099655D01*
X17630063Y-13107392D01*
X17681855Y-13055600D01*
X17732145Y-13055600D01*
X17783937Y-13107392D01*
X17797886Y-13099655D01*
X17807827Y-13061521D01*
X17806186Y-13049679D01*
X17860173Y-13049679D01*
X17865582Y-13088714D01*
X17870114Y-13099655D01*
X17884063Y-13107392D01*
X17935855Y-13055600D01*
X17986145Y-13055600D01*
X18037937Y-13107392D01*
X18051886Y-13099655D01*
X18061827Y-13061521D01*
X18060186Y-13049679D01*
X18114173Y-13049679D01*
X18119582Y-13088714D01*
X18124114Y-13099655D01*
X18138063Y-13107392D01*
X18189855Y-13055600D01*
X18240145Y-13055600D01*
X18291937Y-13107392D01*
X18305886Y-13099655D01*
X18315827Y-13061521D01*
X18310418Y-13022486D01*
X18305886Y-13011545D01*
X18291937Y-13003808D01*
X18240145Y-13055600D01*
X18189855Y-13055600D01*
X18138063Y-13003808D01*
X18124114Y-13011545D01*
X18114173Y-13049679D01*
X18060186Y-13049679D01*
X18056418Y-13022486D01*
X18051886Y-13011545D01*
X18037937Y-13003808D01*
X17986145Y-13055600D01*
X17935855Y-13055600D01*
X17884063Y-13003808D01*
X17870114Y-13011545D01*
X17860173Y-13049679D01*
X17806186Y-13049679D01*
X17802418Y-13022486D01*
X17797886Y-13011545D01*
X17783937Y-13003808D01*
X17732145Y-13055600D01*
X17681855Y-13055600D01*
X17630063Y-13003808D01*
X17616114Y-13011545D01*
X17606173Y-13049679D01*
X17552186Y-13049679D01*
X17548418Y-13022486D01*
X17543886Y-13011545D01*
X17529937Y-13003808D01*
X17478145Y-13055600D01*
X17427855Y-13055600D01*
X17376063Y-13003808D01*
X17362114Y-13011545D01*
X17352173Y-13049679D01*
X17298186Y-13049679D01*
X17294418Y-13022486D01*
X17289886Y-13011545D01*
X17275937Y-13003808D01*
X17224145Y-13055600D01*
X17173855Y-13055600D01*
X17122063Y-13003808D01*
X17108114Y-13011545D01*
X17098173Y-13049679D01*
X16978020Y-13049679D01*
X16978020Y-12978663D01*
X17147208Y-12978663D01*
X17199000Y-13030455D01*
X17250792Y-12978663D01*
X17401208Y-12978663D01*
X17453000Y-13030455D01*
X17504792Y-12978663D01*
X17655208Y-12978663D01*
X17707000Y-13030455D01*
X17758792Y-12978663D01*
X17909208Y-12978663D01*
X17961000Y-13030455D01*
X18012792Y-12978663D01*
X18163208Y-12978663D01*
X18215000Y-13030455D01*
X18266792Y-12978663D01*
X18259055Y-12964714D01*
X18220921Y-12954773D01*
X18181886Y-12960182D01*
X18170945Y-12964714D01*
X18163208Y-12978663D01*
X18012792Y-12978663D01*
X18005055Y-12964714D01*
X17966921Y-12954773D01*
X17927886Y-12960182D01*
X17916945Y-12964714D01*
X17909208Y-12978663D01*
X17758792Y-12978663D01*
X17751055Y-12964714D01*
X17712921Y-12954773D01*
X17673886Y-12960182D01*
X17662945Y-12964714D01*
X17655208Y-12978663D01*
X17504792Y-12978663D01*
X17497055Y-12964714D01*
X17458921Y-12954773D01*
X17419886Y-12960182D01*
X17408945Y-12964714D01*
X17401208Y-12978663D01*
X17250792Y-12978663D01*
X17243055Y-12964714D01*
X17204921Y-12954773D01*
X17165886Y-12960182D01*
X17154945Y-12964714D01*
X17147208Y-12978663D01*
X16978020Y-12978663D01*
X16978020Y-10864915D01*
X17026263Y-10864915D01*
X17040927Y-10900403D01*
X17068054Y-10927578D01*
X17103517Y-10942303D01*
X17141915Y-10942337D01*
X17177403Y-10927673D01*
X17204578Y-10900546D01*
X17208326Y-10891520D01*
X17910200Y-10891520D01*
X17927696Y-10888040D01*
X17942529Y-10878129D01*
X18110640Y-10710017D01*
X18119517Y-10713703D01*
X18157915Y-10713737D01*
X18193403Y-10699073D01*
X18220578Y-10671946D01*
X18235303Y-10636483D01*
X18235337Y-10598085D01*
X18220673Y-10562597D01*
X18193546Y-10535422D01*
X18158083Y-10520697D01*
X18119685Y-10520663D01*
X18084197Y-10535327D01*
X18057022Y-10562454D01*
X18042297Y-10597917D01*
X18042263Y-10636315D01*
X18045995Y-10645347D01*
X17891262Y-10800080D01*
X17208344Y-10800080D01*
X17204673Y-10791197D01*
X17177546Y-10764022D01*
X17142083Y-10749297D01*
X17103685Y-10749263D01*
X17068197Y-10763927D01*
X17041022Y-10791054D01*
X17026297Y-10826517D01*
X17026263Y-10864915D01*
X16978020Y-10864915D01*
X16978020Y-8754200D01*
X17359733Y-8754200D01*
X17359733Y-8924200D01*
X17362036Y-8936437D01*
X17369267Y-8947675D01*
X17380302Y-8955214D01*
X17393400Y-8957867D01*
X17563400Y-8957867D01*
X17575637Y-8955564D01*
X17586875Y-8948333D01*
X17594414Y-8937298D01*
X17597067Y-8924200D01*
X17597067Y-8875013D01*
X17619943Y-8875013D01*
X17642209Y-8915322D01*
X17678205Y-8944043D01*
X17696587Y-8951655D01*
X17714620Y-8947515D01*
X17714620Y-8856980D01*
X17750180Y-8856980D01*
X17750180Y-8947515D01*
X17768213Y-8951655D01*
X17786595Y-8944043D01*
X17822592Y-8915322D01*
X17844857Y-8875013D01*
X17840820Y-8856980D01*
X17750180Y-8856980D01*
X17714620Y-8856980D01*
X17623980Y-8856980D01*
X17619943Y-8875013D01*
X17597067Y-8875013D01*
X17597067Y-8803387D01*
X17619943Y-8803387D01*
X17623980Y-8821420D01*
X17714620Y-8821420D01*
X17714620Y-8730885D01*
X17750180Y-8730885D01*
X17750180Y-8821420D01*
X17840820Y-8821420D01*
X17844857Y-8803387D01*
X17822592Y-8763078D01*
X17786595Y-8734357D01*
X17768213Y-8726745D01*
X17750180Y-8730885D01*
X17714620Y-8730885D01*
X17696587Y-8726745D01*
X17678205Y-8734357D01*
X17642209Y-8763078D01*
X17619943Y-8803387D01*
X17597067Y-8803387D01*
X17597067Y-8754200D01*
X17594764Y-8741964D01*
X17587533Y-8730725D01*
X17576498Y-8723186D01*
X17563400Y-8720533D01*
X17393400Y-8720533D01*
X17381164Y-8722836D01*
X17369925Y-8730067D01*
X17362386Y-8741102D01*
X17359733Y-8754200D01*
X16978020Y-8754200D01*
X16978020Y-8636000D01*
X16977386Y-8629558D01*
X16973519Y-8610118D01*
X16970278Y-8602295D01*
X16979333Y-8596245D01*
X16996551Y-8592820D01*
X18417449Y-8592820D01*
X18434667Y-8596245D01*
G36*
X25038667Y-8596245D02*
X25052627Y-8605573D01*
X25061955Y-8619533D01*
X25065380Y-8636751D01*
X25065380Y-13899216D01*
X25059985Y-13895612D01*
X25048082Y-13890681D01*
X25028642Y-13886814D01*
X25022200Y-13886180D01*
X16999052Y-13886180D01*
X16989244Y-13884229D01*
X16983685Y-13880515D01*
X16979971Y-13874956D01*
X16978020Y-13865148D01*
X16978020Y-13238130D01*
X16989358Y-13240385D01*
X16995800Y-13241020D01*
X18418200Y-13241020D01*
X18424642Y-13240385D01*
X18444082Y-13236519D01*
X18455985Y-13231588D01*
X18472466Y-13220576D01*
X18481576Y-13211466D01*
X18492588Y-13194985D01*
X18497519Y-13183082D01*
X18501386Y-13163642D01*
X18502020Y-13157200D01*
X18502020Y-12853137D01*
X20220608Y-12853137D01*
X20228345Y-12867086D01*
X20266479Y-12877027D01*
X20305514Y-12871618D01*
X20316455Y-12867086D01*
X20324192Y-12853137D01*
X21770008Y-12853137D01*
X21777745Y-12867086D01*
X21815879Y-12877027D01*
X21854914Y-12871618D01*
X21865855Y-12867086D01*
X21873592Y-12853137D01*
X21821800Y-12801345D01*
X21770008Y-12853137D01*
X20324192Y-12853137D01*
X20272400Y-12801345D01*
X20220608Y-12853137D01*
X18502020Y-12853137D01*
X18502020Y-12770279D01*
X20171573Y-12770279D01*
X20176982Y-12809314D01*
X20181514Y-12820255D01*
X20195463Y-12827992D01*
X20247255Y-12776200D01*
X20297545Y-12776200D01*
X20349337Y-12827992D01*
X20363286Y-12820255D01*
X20373227Y-12782121D01*
X20371586Y-12770279D01*
X21720973Y-12770279D01*
X21726382Y-12809314D01*
X21730914Y-12820255D01*
X21744863Y-12827992D01*
X21796655Y-12776200D01*
X21846945Y-12776200D01*
X21898737Y-12827992D01*
X21912686Y-12820255D01*
X21922627Y-12782121D01*
X21917218Y-12743086D01*
X21912686Y-12732145D01*
X21898737Y-12724408D01*
X21846945Y-12776200D01*
X21796655Y-12776200D01*
X21744863Y-12724408D01*
X21730914Y-12732145D01*
X21720973Y-12770279D01*
X20371586Y-12770279D01*
X20367818Y-12743086D01*
X20363286Y-12732145D01*
X20349337Y-12724408D01*
X20297545Y-12776200D01*
X20247255Y-12776200D01*
X20195463Y-12724408D01*
X20181514Y-12732145D01*
X20171573Y-12770279D01*
X18502020Y-12770279D01*
X18502020Y-12679330D01*
X18513358Y-12681585D01*
X18519800Y-12682220D01*
X20235814Y-12682220D01*
X20228345Y-12685314D01*
X20220608Y-12699263D01*
X20272400Y-12751055D01*
X20324192Y-12699263D01*
X20316455Y-12685314D01*
X20304587Y-12682220D01*
X21785214Y-12682220D01*
X21777745Y-12685314D01*
X21770008Y-12699263D01*
X21821800Y-12751055D01*
X21873592Y-12699263D01*
X21865855Y-12685314D01*
X21853987Y-12682220D01*
X22482200Y-12682220D01*
X22488642Y-12681585D01*
X22508082Y-12677719D01*
X22519985Y-12672788D01*
X22536466Y-12661776D01*
X22545576Y-12652666D01*
X22556588Y-12636185D01*
X22561519Y-12624282D01*
X22565385Y-12604842D01*
X22566020Y-12598400D01*
X22566020Y-11405337D01*
X23014608Y-11405337D01*
X23022345Y-11419286D01*
X23060479Y-11429227D01*
X23099514Y-11423818D01*
X23110455Y-11419286D01*
X23118192Y-11405337D01*
X23066400Y-11353545D01*
X23014608Y-11405337D01*
X22566020Y-11405337D01*
X22566020Y-11322479D01*
X22965573Y-11322479D01*
X22970982Y-11361514D01*
X22975514Y-11372455D01*
X22989463Y-11380192D01*
X23041255Y-11328400D01*
X23091545Y-11328400D01*
X23143337Y-11380192D01*
X23157286Y-11372455D01*
X23167227Y-11334321D01*
X23161818Y-11295286D01*
X23157286Y-11284345D01*
X23143337Y-11276608D01*
X23091545Y-11328400D01*
X23041255Y-11328400D01*
X22989463Y-11276608D01*
X22975514Y-11284345D01*
X22965573Y-11322479D01*
X22566020Y-11322479D01*
X22566020Y-11251463D01*
X23014608Y-11251463D01*
X23066400Y-11303255D01*
X23118192Y-11251463D01*
X23110455Y-11237514D01*
X23072321Y-11227573D01*
X23033286Y-11232982D01*
X23022345Y-11237514D01*
X23014608Y-11251463D01*
X22566020Y-11251463D01*
X22566020Y-10160737D01*
X22659008Y-10160737D01*
X22666745Y-10174686D01*
X22704879Y-10184627D01*
X22743914Y-10179218D01*
X22754855Y-10174686D01*
X22762592Y-10160737D01*
X22710800Y-10108945D01*
X22659008Y-10160737D01*
X22566020Y-10160737D01*
X22566020Y-10077879D01*
X22609973Y-10077879D01*
X22615382Y-10116914D01*
X22619914Y-10127855D01*
X22633863Y-10135592D01*
X22685655Y-10083800D01*
X22735945Y-10083800D01*
X22787737Y-10135592D01*
X22801686Y-10127855D01*
X22811627Y-10089721D01*
X22806218Y-10050686D01*
X22801686Y-10039745D01*
X22787737Y-10032008D01*
X22735945Y-10083800D01*
X22685655Y-10083800D01*
X22633863Y-10032008D01*
X22619914Y-10039745D01*
X22609973Y-10077879D01*
X22566020Y-10077879D01*
X22566020Y-10006863D01*
X22659008Y-10006863D01*
X22710800Y-10058655D01*
X22762592Y-10006863D01*
X22754855Y-9992914D01*
X22716721Y-9982973D01*
X22677686Y-9988382D01*
X22666745Y-9992914D01*
X22659008Y-10006863D01*
X22566020Y-10006863D01*
X22566020Y-9652000D01*
X22565385Y-9645558D01*
X22561519Y-9626118D01*
X22556588Y-9614215D01*
X22545576Y-9597734D01*
X22536466Y-9588624D01*
X22519985Y-9577612D01*
X22508082Y-9572681D01*
X22488642Y-9568815D01*
X22482200Y-9568180D01*
X21455051Y-9568180D01*
X21455051Y-9267888D01*
X21470854Y-9261359D01*
X21498029Y-9234231D01*
X21512754Y-9198768D01*
X21512788Y-9160370D01*
X21498124Y-9124883D01*
X21470997Y-9097707D01*
X21435534Y-9082982D01*
X21397136Y-9082949D01*
X21361648Y-9097612D01*
X21334473Y-9124740D01*
X21319748Y-9160202D01*
X21319714Y-9198600D01*
X21334378Y-9234088D01*
X21361505Y-9261263D01*
X21373771Y-9266356D01*
X21373771Y-9568180D01*
X21059800Y-9568180D01*
X21053358Y-9568815D01*
X21033918Y-9572681D01*
X21022015Y-9577612D01*
X21005534Y-9588624D01*
X20996424Y-9597734D01*
X20985412Y-9614215D01*
X20980481Y-9626118D01*
X20976615Y-9645558D01*
X20975980Y-9652000D01*
X20975980Y-10825266D01*
X20492365Y-10341650D01*
X20496503Y-10331683D01*
X20496537Y-10293285D01*
X20481873Y-10257797D01*
X20454746Y-10230622D01*
X20419283Y-10215897D01*
X20380885Y-10215863D01*
X20345397Y-10230527D01*
X20318222Y-10257654D01*
X20314474Y-10266680D01*
X18502020Y-10266680D01*
X18502020Y-8889707D01*
X18533399Y-8965649D01*
X18596221Y-9028581D01*
X18678344Y-9062681D01*
X18767266Y-9062759D01*
X18849449Y-9028802D01*
X18912381Y-8965979D01*
X18946481Y-8883856D01*
X18946559Y-8794934D01*
X18929728Y-8754200D01*
X19109133Y-8754200D01*
X19109133Y-8924200D01*
X19111436Y-8936437D01*
X19118667Y-8947675D01*
X19129702Y-8955214D01*
X19142800Y-8957867D01*
X19312800Y-8957867D01*
X19325037Y-8955564D01*
X19336275Y-8948333D01*
X19343814Y-8937298D01*
X19346467Y-8924200D01*
X19346467Y-8836888D01*
X19363780Y-8836888D01*
X19363780Y-8841512D01*
X19372764Y-8886676D01*
X19398347Y-8924965D01*
X19436636Y-8950548D01*
X19481800Y-8959532D01*
X19526964Y-8950548D01*
X19565253Y-8924965D01*
X19590836Y-8886676D01*
X19599820Y-8841512D01*
X19599820Y-8836888D01*
X19617780Y-8836888D01*
X19617780Y-8841512D01*
X19626764Y-8886676D01*
X19652347Y-8924965D01*
X19690636Y-8950548D01*
X19695160Y-8951448D01*
X19695160Y-9511196D01*
X19680191Y-9517381D01*
X19653016Y-9544509D01*
X19638291Y-9579971D01*
X19638257Y-9618369D01*
X19652920Y-9653857D01*
X19680048Y-9681032D01*
X19715511Y-9695758D01*
X19753909Y-9695791D01*
X19789397Y-9681128D01*
X19816572Y-9654000D01*
X19831297Y-9618538D01*
X19831331Y-9580140D01*
X19816667Y-9544652D01*
X19789539Y-9517476D01*
X19776440Y-9512037D01*
X19776440Y-8951448D01*
X19780964Y-8950548D01*
X19819253Y-8924965D01*
X19844836Y-8886676D01*
X19853820Y-8841512D01*
X19853820Y-8836888D01*
X19871780Y-8836888D01*
X19871780Y-8841512D01*
X19880764Y-8886676D01*
X19906347Y-8924965D01*
X19944636Y-8950548D01*
X19989800Y-8959532D01*
X20034964Y-8950548D01*
X20073253Y-8924965D01*
X20098836Y-8886676D01*
X20101156Y-8875013D01*
X20131343Y-8875013D01*
X20153609Y-8915322D01*
X20189605Y-8944043D01*
X20207987Y-8951655D01*
X20226020Y-8947515D01*
X20226020Y-8856980D01*
X20261580Y-8856980D01*
X20261580Y-8947515D01*
X20279613Y-8951655D01*
X20297995Y-8944043D01*
X20333992Y-8915322D01*
X20356257Y-8875013D01*
X20352220Y-8856980D01*
X20261580Y-8856980D01*
X20226020Y-8856980D01*
X20135380Y-8856980D01*
X20131343Y-8875013D01*
X20101156Y-8875013D01*
X20107820Y-8841512D01*
X20107820Y-8836888D01*
X20379780Y-8836888D01*
X20379780Y-8841512D01*
X20388764Y-8886676D01*
X20414347Y-8924965D01*
X20452636Y-8950548D01*
X20457160Y-8951448D01*
X20457160Y-9515397D01*
X20443925Y-9520865D01*
X20416750Y-9547993D01*
X20402025Y-9583455D01*
X20401991Y-9621853D01*
X20416655Y-9657341D01*
X20443782Y-9684516D01*
X20479245Y-9699242D01*
X20517643Y-9699275D01*
X20553131Y-9684612D01*
X20580306Y-9657484D01*
X20595031Y-9622022D01*
X20595065Y-9583624D01*
X20580401Y-9548136D01*
X20553274Y-9520961D01*
X20538440Y-9514801D01*
X20538440Y-9008200D01*
X22157133Y-9008200D01*
X22157133Y-9178200D01*
X22159436Y-9190437D01*
X22166667Y-9201675D01*
X22177702Y-9209214D01*
X22190800Y-9211867D01*
X22360800Y-9211867D01*
X22373036Y-9209564D01*
X22384275Y-9202333D01*
X22391814Y-9191298D01*
X22394467Y-9178200D01*
X22394467Y-9090888D01*
X22411780Y-9090888D01*
X22411780Y-9095512D01*
X22420764Y-9140676D01*
X22446347Y-9178965D01*
X22484636Y-9204548D01*
X22529800Y-9213532D01*
X22574964Y-9204548D01*
X22613253Y-9178965D01*
X22638836Y-9140676D01*
X22647820Y-9095512D01*
X22647820Y-9090888D01*
X22665780Y-9090888D01*
X22665780Y-9095512D01*
X22674764Y-9140676D01*
X22700347Y-9178965D01*
X22738636Y-9204548D01*
X22783800Y-9213532D01*
X22828964Y-9204548D01*
X22867253Y-9178965D01*
X22892836Y-9140676D01*
X22901820Y-9095512D01*
X22901820Y-9090888D01*
X22919780Y-9090888D01*
X22919780Y-9095512D01*
X22928764Y-9140676D01*
X22954347Y-9178965D01*
X22992636Y-9204548D01*
X23037800Y-9213532D01*
X23082964Y-9204548D01*
X23121253Y-9178965D01*
X23146836Y-9140676D01*
X23149156Y-9129013D01*
X23179343Y-9129013D01*
X23201608Y-9169322D01*
X23237605Y-9198043D01*
X23255987Y-9205655D01*
X23274020Y-9201515D01*
X23274020Y-9110980D01*
X23309580Y-9110980D01*
X23309580Y-9201515D01*
X23327613Y-9205655D01*
X23345995Y-9198043D01*
X23381991Y-9169322D01*
X23404257Y-9129013D01*
X23400220Y-9110980D01*
X23309580Y-9110980D01*
X23274020Y-9110980D01*
X23183380Y-9110980D01*
X23179343Y-9129013D01*
X23149156Y-9129013D01*
X23155820Y-9095512D01*
X23155820Y-9090888D01*
X23427780Y-9090888D01*
X23427780Y-9095512D01*
X23436764Y-9140676D01*
X23462347Y-9178965D01*
X23500636Y-9204548D01*
X23545800Y-9213532D01*
X23590964Y-9204548D01*
X23629253Y-9178965D01*
X23654836Y-9140676D01*
X23663820Y-9095512D01*
X23663820Y-9090888D01*
X23654836Y-9045724D01*
X23629253Y-9007435D01*
X23590964Y-8981852D01*
X23545800Y-8972868D01*
X23500636Y-8981852D01*
X23462347Y-9007435D01*
X23436764Y-9045724D01*
X23427780Y-9090888D01*
X23155820Y-9090888D01*
X23149156Y-9057387D01*
X23179343Y-9057387D01*
X23183380Y-9075420D01*
X23274020Y-9075420D01*
X23274020Y-8984885D01*
X23309580Y-8984885D01*
X23309580Y-9075420D01*
X23400220Y-9075420D01*
X23404257Y-9057387D01*
X23381991Y-9017078D01*
X23345995Y-8988357D01*
X23327613Y-8980745D01*
X23309580Y-8984885D01*
X23274020Y-8984885D01*
X23255987Y-8980745D01*
X23237605Y-8988357D01*
X23201608Y-9017078D01*
X23179343Y-9057387D01*
X23149156Y-9057387D01*
X23146836Y-9045724D01*
X23121253Y-9007435D01*
X23082964Y-8981852D01*
X23037800Y-8972868D01*
X22992636Y-8981852D01*
X22954347Y-9007435D01*
X22928764Y-9045724D01*
X22919780Y-9090888D01*
X22901820Y-9090888D01*
X22892836Y-9045724D01*
X22867253Y-9007435D01*
X22828964Y-8981852D01*
X22783800Y-8972868D01*
X22738636Y-8981852D01*
X22700347Y-9007435D01*
X22674764Y-9045724D01*
X22665780Y-9090888D01*
X22647820Y-9090888D01*
X22638836Y-9045724D01*
X22613253Y-9007435D01*
X22574964Y-8981852D01*
X22529800Y-8972868D01*
X22484636Y-8981852D01*
X22446347Y-9007435D01*
X22420764Y-9045724D01*
X22411780Y-9090888D01*
X22394467Y-9090888D01*
X22394467Y-9008200D01*
X22392164Y-8995964D01*
X22384933Y-8984725D01*
X22373898Y-8977186D01*
X22360800Y-8974533D01*
X22190800Y-8974533D01*
X22178564Y-8976836D01*
X22167325Y-8984067D01*
X22159786Y-8995102D01*
X22157133Y-9008200D01*
X20538440Y-9008200D01*
X20538440Y-8951448D01*
X20542964Y-8950548D01*
X20581253Y-8924965D01*
X20606836Y-8886676D01*
X20615820Y-8841512D01*
X20615820Y-8836888D01*
X22157780Y-8836888D01*
X22157780Y-8841512D01*
X22166764Y-8886676D01*
X22192347Y-8924965D01*
X22230636Y-8950548D01*
X22275800Y-8959532D01*
X22320964Y-8950548D01*
X22359253Y-8924965D01*
X22384836Y-8886676D01*
X22393820Y-8841512D01*
X22393820Y-8836888D01*
X22411780Y-8836888D01*
X22411780Y-8841512D01*
X22420764Y-8886676D01*
X22446347Y-8924965D01*
X22484636Y-8950548D01*
X22529800Y-8959532D01*
X22574964Y-8950548D01*
X22613253Y-8924965D01*
X22638836Y-8886676D01*
X22647820Y-8841512D01*
X22647820Y-8836888D01*
X22665780Y-8836888D01*
X22665780Y-8841512D01*
X22674764Y-8886676D01*
X22700347Y-8924965D01*
X22738636Y-8950548D01*
X22783800Y-8959532D01*
X22828964Y-8950548D01*
X22867253Y-8924965D01*
X22892836Y-8886676D01*
X22901820Y-8841512D01*
X22901820Y-8836888D01*
X22919780Y-8836888D01*
X22919780Y-8841512D01*
X22928764Y-8886676D01*
X22954347Y-8924965D01*
X22992636Y-8950548D01*
X23037800Y-8959532D01*
X23082964Y-8950548D01*
X23121253Y-8924965D01*
X23146836Y-8886676D01*
X23149156Y-8875013D01*
X23179343Y-8875013D01*
X23201608Y-8915322D01*
X23237605Y-8944043D01*
X23255987Y-8951655D01*
X23274020Y-8947515D01*
X23274020Y-8856980D01*
X23309580Y-8856980D01*
X23309580Y-8947515D01*
X23327613Y-8951655D01*
X23345995Y-8944043D01*
X23381991Y-8915322D01*
X23404257Y-8875013D01*
X23400220Y-8856980D01*
X23309580Y-8856980D01*
X23274020Y-8856980D01*
X23183380Y-8856980D01*
X23179343Y-8875013D01*
X23149156Y-8875013D01*
X23155820Y-8841512D01*
X23155820Y-8836888D01*
X23427780Y-8836888D01*
X23427780Y-8841512D01*
X23436764Y-8886676D01*
X23462347Y-8924965D01*
X23500636Y-8950548D01*
X23545800Y-8959532D01*
X23590964Y-8950548D01*
X23629253Y-8924965D01*
X23654836Y-8886676D01*
X23655475Y-8883466D01*
X24087441Y-8883466D01*
X24121398Y-8965649D01*
X24184221Y-9028581D01*
X24266344Y-9062681D01*
X24355266Y-9062759D01*
X24437448Y-9028802D01*
X24500380Y-8965979D01*
X24534481Y-8883856D01*
X24534559Y-8794934D01*
X24500601Y-8712752D01*
X24437779Y-8649820D01*
X24355656Y-8615719D01*
X24266734Y-8615641D01*
X24184551Y-8649599D01*
X24121619Y-8712421D01*
X24087519Y-8794544D01*
X24087441Y-8883466D01*
X23655475Y-8883466D01*
X23663820Y-8841512D01*
X23663820Y-8836888D01*
X23654836Y-8791724D01*
X23629253Y-8753435D01*
X23590964Y-8727852D01*
X23545800Y-8718868D01*
X23500636Y-8727852D01*
X23462347Y-8753435D01*
X23436764Y-8791724D01*
X23427780Y-8836888D01*
X23155820Y-8836888D01*
X23149156Y-8803387D01*
X23179343Y-8803387D01*
X23183380Y-8821420D01*
X23274020Y-8821420D01*
X23274020Y-8730885D01*
X23309580Y-8730885D01*
X23309580Y-8821420D01*
X23400220Y-8821420D01*
X23404257Y-8803387D01*
X23381991Y-8763078D01*
X23345995Y-8734357D01*
X23327613Y-8726745D01*
X23309580Y-8730885D01*
X23274020Y-8730885D01*
X23255987Y-8726745D01*
X23237605Y-8734357D01*
X23201608Y-8763078D01*
X23179343Y-8803387D01*
X23149156Y-8803387D01*
X23146836Y-8791724D01*
X23121253Y-8753435D01*
X23082964Y-8727852D01*
X23037800Y-8718868D01*
X22992636Y-8727852D01*
X22954347Y-8753435D01*
X22928764Y-8791724D01*
X22919780Y-8836888D01*
X22901820Y-8836888D01*
X22892836Y-8791724D01*
X22867253Y-8753435D01*
X22828964Y-8727852D01*
X22783800Y-8718868D01*
X22738636Y-8727852D01*
X22700347Y-8753435D01*
X22674764Y-8791724D01*
X22665780Y-8836888D01*
X22647820Y-8836888D01*
X22638836Y-8791724D01*
X22613253Y-8753435D01*
X22574964Y-8727852D01*
X22529800Y-8718868D01*
X22484636Y-8727852D01*
X22446347Y-8753435D01*
X22420764Y-8791724D01*
X22411780Y-8836888D01*
X22393820Y-8836888D01*
X22384836Y-8791724D01*
X22359253Y-8753435D01*
X22320964Y-8727852D01*
X22275800Y-8718868D01*
X22230636Y-8727852D01*
X22192347Y-8753435D01*
X22166764Y-8791724D01*
X22157780Y-8836888D01*
X20615820Y-8836888D01*
X20606836Y-8791724D01*
X20581253Y-8753435D01*
X20542964Y-8727852D01*
X20497800Y-8718868D01*
X20452636Y-8727852D01*
X20414347Y-8753435D01*
X20388764Y-8791724D01*
X20379780Y-8836888D01*
X20107820Y-8836888D01*
X20101156Y-8803387D01*
X20131343Y-8803387D01*
X20135380Y-8821420D01*
X20226020Y-8821420D01*
X20226020Y-8730885D01*
X20261580Y-8730885D01*
X20261580Y-8821420D01*
X20352220Y-8821420D01*
X20356257Y-8803387D01*
X20333992Y-8763078D01*
X20297995Y-8734357D01*
X20279613Y-8726745D01*
X20261580Y-8730885D01*
X20226020Y-8730885D01*
X20207987Y-8726745D01*
X20189605Y-8734357D01*
X20153609Y-8763078D01*
X20131343Y-8803387D01*
X20101156Y-8803387D01*
X20098836Y-8791724D01*
X20073253Y-8753435D01*
X20034964Y-8727852D01*
X19989800Y-8718868D01*
X19944636Y-8727852D01*
X19906347Y-8753435D01*
X19880764Y-8791724D01*
X19871780Y-8836888D01*
X19853820Y-8836888D01*
X19844836Y-8791724D01*
X19819253Y-8753435D01*
X19780964Y-8727852D01*
X19735800Y-8718868D01*
X19690636Y-8727852D01*
X19652347Y-8753435D01*
X19626764Y-8791724D01*
X19617780Y-8836888D01*
X19599820Y-8836888D01*
X19590836Y-8791724D01*
X19565253Y-8753435D01*
X19526964Y-8727852D01*
X19481800Y-8718868D01*
X19436636Y-8727852D01*
X19398347Y-8753435D01*
X19372764Y-8791724D01*
X19363780Y-8836888D01*
X19346467Y-8836888D01*
X19346467Y-8754200D01*
X19344164Y-8741964D01*
X19336933Y-8730725D01*
X19325898Y-8723186D01*
X19312800Y-8720533D01*
X19142800Y-8720533D01*
X19130564Y-8722836D01*
X19119325Y-8730067D01*
X19111786Y-8741102D01*
X19109133Y-8754200D01*
X18929728Y-8754200D01*
X18912602Y-8712752D01*
X18849779Y-8649820D01*
X18767656Y-8615719D01*
X18678734Y-8615641D01*
X18596552Y-8649599D01*
X18533620Y-8712421D01*
X18502020Y-8788521D01*
X18502020Y-8636000D01*
X18501386Y-8629558D01*
X18497519Y-8610118D01*
X18492588Y-8598215D01*
X18488984Y-8592820D01*
X25021449Y-8592820D01*
X25038667Y-8596245D01*
X25038667Y-8596245D01*
G37*
X25038667Y-8596245D02*
X25052627Y-8605573D01*
X25061955Y-8619533D01*
X25065380Y-8636751D01*
X25065380Y-13899216D01*
X25059985Y-13895612D01*
X25048082Y-13890681D01*
X25028642Y-13886814D01*
X25022200Y-13886180D01*
X16999052Y-13886180D01*
X16989244Y-13884229D01*
X16983685Y-13880515D01*
X16979971Y-13874956D01*
X16978020Y-13865148D01*
X16978020Y-13238130D01*
X16989358Y-13240385D01*
X16995800Y-13241020D01*
X18418200Y-13241020D01*
X18424642Y-13240385D01*
X18444082Y-13236519D01*
X18455985Y-13231588D01*
X18472466Y-13220576D01*
X18481576Y-13211466D01*
X18492588Y-13194985D01*
X18497519Y-13183082D01*
X18501386Y-13163642D01*
X18502020Y-13157200D01*
X18502020Y-12853137D01*
X20220608Y-12853137D01*
X20228345Y-12867086D01*
X20266479Y-12877027D01*
X20305514Y-12871618D01*
X20316455Y-12867086D01*
X20324192Y-12853137D01*
X21770008Y-12853137D01*
X21777745Y-12867086D01*
X21815879Y-12877027D01*
X21854914Y-12871618D01*
X21865855Y-12867086D01*
X21873592Y-12853137D01*
X21821800Y-12801345D01*
X21770008Y-12853137D01*
X20324192Y-12853137D01*
X20272400Y-12801345D01*
X20220608Y-12853137D01*
X18502020Y-12853137D01*
X18502020Y-12770279D01*
X20171573Y-12770279D01*
X20176982Y-12809314D01*
X20181514Y-12820255D01*
X20195463Y-12827992D01*
X20247255Y-12776200D01*
X20297545Y-12776200D01*
X20349337Y-12827992D01*
X20363286Y-12820255D01*
X20373227Y-12782121D01*
X20371586Y-12770279D01*
X21720973Y-12770279D01*
X21726382Y-12809314D01*
X21730914Y-12820255D01*
X21744863Y-12827992D01*
X21796655Y-12776200D01*
X21846945Y-12776200D01*
X21898737Y-12827992D01*
X21912686Y-12820255D01*
X21922627Y-12782121D01*
X21917218Y-12743086D01*
X21912686Y-12732145D01*
X21898737Y-12724408D01*
X21846945Y-12776200D01*
X21796655Y-12776200D01*
X21744863Y-12724408D01*
X21730914Y-12732145D01*
X21720973Y-12770279D01*
X20371586Y-12770279D01*
X20367818Y-12743086D01*
X20363286Y-12732145D01*
X20349337Y-12724408D01*
X20297545Y-12776200D01*
X20247255Y-12776200D01*
X20195463Y-12724408D01*
X20181514Y-12732145D01*
X20171573Y-12770279D01*
X18502020Y-12770279D01*
X18502020Y-12679330D01*
X18513358Y-12681585D01*
X18519800Y-12682220D01*
X20235814Y-12682220D01*
X20228345Y-12685314D01*
X20220608Y-12699263D01*
X20272400Y-12751055D01*
X20324192Y-12699263D01*
X20316455Y-12685314D01*
X20304587Y-12682220D01*
X21785214Y-12682220D01*
X21777745Y-12685314D01*
X21770008Y-12699263D01*
X21821800Y-12751055D01*
X21873592Y-12699263D01*
X21865855Y-12685314D01*
X21853987Y-12682220D01*
X22482200Y-12682220D01*
X22488642Y-12681585D01*
X22508082Y-12677719D01*
X22519985Y-12672788D01*
X22536466Y-12661776D01*
X22545576Y-12652666D01*
X22556588Y-12636185D01*
X22561519Y-12624282D01*
X22565385Y-12604842D01*
X22566020Y-12598400D01*
X22566020Y-11405337D01*
X23014608Y-11405337D01*
X23022345Y-11419286D01*
X23060479Y-11429227D01*
X23099514Y-11423818D01*
X23110455Y-11419286D01*
X23118192Y-11405337D01*
X23066400Y-11353545D01*
X23014608Y-11405337D01*
X22566020Y-11405337D01*
X22566020Y-11322479D01*
X22965573Y-11322479D01*
X22970982Y-11361514D01*
X22975514Y-11372455D01*
X22989463Y-11380192D01*
X23041255Y-11328400D01*
X23091545Y-11328400D01*
X23143337Y-11380192D01*
X23157286Y-11372455D01*
X23167227Y-11334321D01*
X23161818Y-11295286D01*
X23157286Y-11284345D01*
X23143337Y-11276608D01*
X23091545Y-11328400D01*
X23041255Y-11328400D01*
X22989463Y-11276608D01*
X22975514Y-11284345D01*
X22965573Y-11322479D01*
X22566020Y-11322479D01*
X22566020Y-11251463D01*
X23014608Y-11251463D01*
X23066400Y-11303255D01*
X23118192Y-11251463D01*
X23110455Y-11237514D01*
X23072321Y-11227573D01*
X23033286Y-11232982D01*
X23022345Y-11237514D01*
X23014608Y-11251463D01*
X22566020Y-11251463D01*
X22566020Y-10160737D01*
X22659008Y-10160737D01*
X22666745Y-10174686D01*
X22704879Y-10184627D01*
X22743914Y-10179218D01*
X22754855Y-10174686D01*
X22762592Y-10160737D01*
X22710800Y-10108945D01*
X22659008Y-10160737D01*
X22566020Y-10160737D01*
X22566020Y-10077879D01*
X22609973Y-10077879D01*
X22615382Y-10116914D01*
X22619914Y-10127855D01*
X22633863Y-10135592D01*
X22685655Y-10083800D01*
X22735945Y-10083800D01*
X22787737Y-10135592D01*
X22801686Y-10127855D01*
X22811627Y-10089721D01*
X22806218Y-10050686D01*
X22801686Y-10039745D01*
X22787737Y-10032008D01*
X22735945Y-10083800D01*
X22685655Y-10083800D01*
X22633863Y-10032008D01*
X22619914Y-10039745D01*
X22609973Y-10077879D01*
X22566020Y-10077879D01*
X22566020Y-10006863D01*
X22659008Y-10006863D01*
X22710800Y-10058655D01*
X22762592Y-10006863D01*
X22754855Y-9992914D01*
X22716721Y-9982973D01*
X22677686Y-9988382D01*
X22666745Y-9992914D01*
X22659008Y-10006863D01*
X22566020Y-10006863D01*
X22566020Y-9652000D01*
X22565385Y-9645558D01*
X22561519Y-9626118D01*
X22556588Y-9614215D01*
X22545576Y-9597734D01*
X22536466Y-9588624D01*
X22519985Y-9577612D01*
X22508082Y-9572681D01*
X22488642Y-9568815D01*
X22482200Y-9568180D01*
X21455051Y-9568180D01*
X21455051Y-9267888D01*
X21470854Y-9261359D01*
X21498029Y-9234231D01*
X21512754Y-9198768D01*
X21512788Y-9160370D01*
X21498124Y-9124883D01*
X21470997Y-9097707D01*
X21435534Y-9082982D01*
X21397136Y-9082949D01*
X21361648Y-9097612D01*
X21334473Y-9124740D01*
X21319748Y-9160202D01*
X21319714Y-9198600D01*
X21334378Y-9234088D01*
X21361505Y-9261263D01*
X21373771Y-9266356D01*
X21373771Y-9568180D01*
X21059800Y-9568180D01*
X21053358Y-9568815D01*
X21033918Y-9572681D01*
X21022015Y-9577612D01*
X21005534Y-9588624D01*
X20996424Y-9597734D01*
X20985412Y-9614215D01*
X20980481Y-9626118D01*
X20976615Y-9645558D01*
X20975980Y-9652000D01*
X20975980Y-10825266D01*
X20492365Y-10341650D01*
X20496503Y-10331683D01*
X20496537Y-10293285D01*
X20481873Y-10257797D01*
X20454746Y-10230622D01*
X20419283Y-10215897D01*
X20380885Y-10215863D01*
X20345397Y-10230527D01*
X20318222Y-10257654D01*
X20314474Y-10266680D01*
X18502020Y-10266680D01*
X18502020Y-8889707D01*
X18533399Y-8965649D01*
X18596221Y-9028581D01*
X18678344Y-9062681D01*
X18767266Y-9062759D01*
X18849449Y-9028802D01*
X18912381Y-8965979D01*
X18946481Y-8883856D01*
X18946559Y-8794934D01*
X18929728Y-8754200D01*
X19109133Y-8754200D01*
X19109133Y-8924200D01*
X19111436Y-8936437D01*
X19118667Y-8947675D01*
X19129702Y-8955214D01*
X19142800Y-8957867D01*
X19312800Y-8957867D01*
X19325037Y-8955564D01*
X19336275Y-8948333D01*
X19343814Y-8937298D01*
X19346467Y-8924200D01*
X19346467Y-8836888D01*
X19363780Y-8836888D01*
X19363780Y-8841512D01*
X19372764Y-8886676D01*
X19398347Y-8924965D01*
X19436636Y-8950548D01*
X19481800Y-8959532D01*
X19526964Y-8950548D01*
X19565253Y-8924965D01*
X19590836Y-8886676D01*
X19599820Y-8841512D01*
X19599820Y-8836888D01*
X19617780Y-8836888D01*
X19617780Y-8841512D01*
X19626764Y-8886676D01*
X19652347Y-8924965D01*
X19690636Y-8950548D01*
X19695160Y-8951448D01*
X19695160Y-9511196D01*
X19680191Y-9517381D01*
X19653016Y-9544509D01*
X19638291Y-9579971D01*
X19638257Y-9618369D01*
X19652920Y-9653857D01*
X19680048Y-9681032D01*
X19715511Y-9695758D01*
X19753909Y-9695791D01*
X19789397Y-9681128D01*
X19816572Y-9654000D01*
X19831297Y-9618538D01*
X19831331Y-9580140D01*
X19816667Y-9544652D01*
X19789539Y-9517476D01*
X19776440Y-9512037D01*
X19776440Y-8951448D01*
X19780964Y-8950548D01*
X19819253Y-8924965D01*
X19844836Y-8886676D01*
X19853820Y-8841512D01*
X19853820Y-8836888D01*
X19871780Y-8836888D01*
X19871780Y-8841512D01*
X19880764Y-8886676D01*
X19906347Y-8924965D01*
X19944636Y-8950548D01*
X19989800Y-8959532D01*
X20034964Y-8950548D01*
X20073253Y-8924965D01*
X20098836Y-8886676D01*
X20101156Y-8875013D01*
X20131343Y-8875013D01*
X20153609Y-8915322D01*
X20189605Y-8944043D01*
X20207987Y-8951655D01*
X20226020Y-8947515D01*
X20226020Y-8856980D01*
X20261580Y-8856980D01*
X20261580Y-8947515D01*
X20279613Y-8951655D01*
X20297995Y-8944043D01*
X20333992Y-8915322D01*
X20356257Y-8875013D01*
X20352220Y-8856980D01*
X20261580Y-8856980D01*
X20226020Y-8856980D01*
X20135380Y-8856980D01*
X20131343Y-8875013D01*
X20101156Y-8875013D01*
X20107820Y-8841512D01*
X20107820Y-8836888D01*
X20379780Y-8836888D01*
X20379780Y-8841512D01*
X20388764Y-8886676D01*
X20414347Y-8924965D01*
X20452636Y-8950548D01*
X20457160Y-8951448D01*
X20457160Y-9515397D01*
X20443925Y-9520865D01*
X20416750Y-9547993D01*
X20402025Y-9583455D01*
X20401991Y-9621853D01*
X20416655Y-9657341D01*
X20443782Y-9684516D01*
X20479245Y-9699242D01*
X20517643Y-9699275D01*
X20553131Y-9684612D01*
X20580306Y-9657484D01*
X20595031Y-9622022D01*
X20595065Y-9583624D01*
X20580401Y-9548136D01*
X20553274Y-9520961D01*
X20538440Y-9514801D01*
X20538440Y-9008200D01*
X22157133Y-9008200D01*
X22157133Y-9178200D01*
X22159436Y-9190437D01*
X22166667Y-9201675D01*
X22177702Y-9209214D01*
X22190800Y-9211867D01*
X22360800Y-9211867D01*
X22373036Y-9209564D01*
X22384275Y-9202333D01*
X22391814Y-9191298D01*
X22394467Y-9178200D01*
X22394467Y-9090888D01*
X22411780Y-9090888D01*
X22411780Y-9095512D01*
X22420764Y-9140676D01*
X22446347Y-9178965D01*
X22484636Y-9204548D01*
X22529800Y-9213532D01*
X22574964Y-9204548D01*
X22613253Y-9178965D01*
X22638836Y-9140676D01*
X22647820Y-9095512D01*
X22647820Y-9090888D01*
X22665780Y-9090888D01*
X22665780Y-9095512D01*
X22674764Y-9140676D01*
X22700347Y-9178965D01*
X22738636Y-9204548D01*
X22783800Y-9213532D01*
X22828964Y-9204548D01*
X22867253Y-9178965D01*
X22892836Y-9140676D01*
X22901820Y-9095512D01*
X22901820Y-9090888D01*
X22919780Y-9090888D01*
X22919780Y-9095512D01*
X22928764Y-9140676D01*
X22954347Y-9178965D01*
X22992636Y-9204548D01*
X23037800Y-9213532D01*
X23082964Y-9204548D01*
X23121253Y-9178965D01*
X23146836Y-9140676D01*
X23149156Y-9129013D01*
X23179343Y-9129013D01*
X23201608Y-9169322D01*
X23237605Y-9198043D01*
X23255987Y-9205655D01*
X23274020Y-9201515D01*
X23274020Y-9110980D01*
X23309580Y-9110980D01*
X23309580Y-9201515D01*
X23327613Y-9205655D01*
X23345995Y-9198043D01*
X23381991Y-9169322D01*
X23404257Y-9129013D01*
X23400220Y-9110980D01*
X23309580Y-9110980D01*
X23274020Y-9110980D01*
X23183380Y-9110980D01*
X23179343Y-9129013D01*
X23149156Y-9129013D01*
X23155820Y-9095512D01*
X23155820Y-9090888D01*
X23427780Y-9090888D01*
X23427780Y-9095512D01*
X23436764Y-9140676D01*
X23462347Y-9178965D01*
X23500636Y-9204548D01*
X23545800Y-9213532D01*
X23590964Y-9204548D01*
X23629253Y-9178965D01*
X23654836Y-9140676D01*
X23663820Y-9095512D01*
X23663820Y-9090888D01*
X23654836Y-9045724D01*
X23629253Y-9007435D01*
X23590964Y-8981852D01*
X23545800Y-8972868D01*
X23500636Y-8981852D01*
X23462347Y-9007435D01*
X23436764Y-9045724D01*
X23427780Y-9090888D01*
X23155820Y-9090888D01*
X23149156Y-9057387D01*
X23179343Y-9057387D01*
X23183380Y-9075420D01*
X23274020Y-9075420D01*
X23274020Y-8984885D01*
X23309580Y-8984885D01*
X23309580Y-9075420D01*
X23400220Y-9075420D01*
X23404257Y-9057387D01*
X23381991Y-9017078D01*
X23345995Y-8988357D01*
X23327613Y-8980745D01*
X23309580Y-8984885D01*
X23274020Y-8984885D01*
X23255987Y-8980745D01*
X23237605Y-8988357D01*
X23201608Y-9017078D01*
X23179343Y-9057387D01*
X23149156Y-9057387D01*
X23146836Y-9045724D01*
X23121253Y-9007435D01*
X23082964Y-8981852D01*
X23037800Y-8972868D01*
X22992636Y-8981852D01*
X22954347Y-9007435D01*
X22928764Y-9045724D01*
X22919780Y-9090888D01*
X22901820Y-9090888D01*
X22892836Y-9045724D01*
X22867253Y-9007435D01*
X22828964Y-8981852D01*
X22783800Y-8972868D01*
X22738636Y-8981852D01*
X22700347Y-9007435D01*
X22674764Y-9045724D01*
X22665780Y-9090888D01*
X22647820Y-9090888D01*
X22638836Y-9045724D01*
X22613253Y-9007435D01*
X22574964Y-8981852D01*
X22529800Y-8972868D01*
X22484636Y-8981852D01*
X22446347Y-9007435D01*
X22420764Y-9045724D01*
X22411780Y-9090888D01*
X22394467Y-9090888D01*
X22394467Y-9008200D01*
X22392164Y-8995964D01*
X22384933Y-8984725D01*
X22373898Y-8977186D01*
X22360800Y-8974533D01*
X22190800Y-8974533D01*
X22178564Y-8976836D01*
X22167325Y-8984067D01*
X22159786Y-8995102D01*
X22157133Y-9008200D01*
X20538440Y-9008200D01*
X20538440Y-8951448D01*
X20542964Y-8950548D01*
X20581253Y-8924965D01*
X20606836Y-8886676D01*
X20615820Y-8841512D01*
X20615820Y-8836888D01*
X22157780Y-8836888D01*
X22157780Y-8841512D01*
X22166764Y-8886676D01*
X22192347Y-8924965D01*
X22230636Y-8950548D01*
X22275800Y-8959532D01*
X22320964Y-8950548D01*
X22359253Y-8924965D01*
X22384836Y-8886676D01*
X22393820Y-8841512D01*
X22393820Y-8836888D01*
X22411780Y-8836888D01*
X22411780Y-8841512D01*
X22420764Y-8886676D01*
X22446347Y-8924965D01*
X22484636Y-8950548D01*
X22529800Y-8959532D01*
X22574964Y-8950548D01*
X22613253Y-8924965D01*
X22638836Y-8886676D01*
X22647820Y-8841512D01*
X22647820Y-8836888D01*
X22665780Y-8836888D01*
X22665780Y-8841512D01*
X22674764Y-8886676D01*
X22700347Y-8924965D01*
X22738636Y-8950548D01*
X22783800Y-8959532D01*
X22828964Y-8950548D01*
X22867253Y-8924965D01*
X22892836Y-8886676D01*
X22901820Y-8841512D01*
X22901820Y-8836888D01*
X22919780Y-8836888D01*
X22919780Y-8841512D01*
X22928764Y-8886676D01*
X22954347Y-8924965D01*
X22992636Y-8950548D01*
X23037800Y-8959532D01*
X23082964Y-8950548D01*
X23121253Y-8924965D01*
X23146836Y-8886676D01*
X23149156Y-8875013D01*
X23179343Y-8875013D01*
X23201608Y-8915322D01*
X23237605Y-8944043D01*
X23255987Y-8951655D01*
X23274020Y-8947515D01*
X23274020Y-8856980D01*
X23309580Y-8856980D01*
X23309580Y-8947515D01*
X23327613Y-8951655D01*
X23345995Y-8944043D01*
X23381991Y-8915322D01*
X23404257Y-8875013D01*
X23400220Y-8856980D01*
X23309580Y-8856980D01*
X23274020Y-8856980D01*
X23183380Y-8856980D01*
X23179343Y-8875013D01*
X23149156Y-8875013D01*
X23155820Y-8841512D01*
X23155820Y-8836888D01*
X23427780Y-8836888D01*
X23427780Y-8841512D01*
X23436764Y-8886676D01*
X23462347Y-8924965D01*
X23500636Y-8950548D01*
X23545800Y-8959532D01*
X23590964Y-8950548D01*
X23629253Y-8924965D01*
X23654836Y-8886676D01*
X23655475Y-8883466D01*
X24087441Y-8883466D01*
X24121398Y-8965649D01*
X24184221Y-9028581D01*
X24266344Y-9062681D01*
X24355266Y-9062759D01*
X24437448Y-9028802D01*
X24500380Y-8965979D01*
X24534481Y-8883856D01*
X24534559Y-8794934D01*
X24500601Y-8712752D01*
X24437779Y-8649820D01*
X24355656Y-8615719D01*
X24266734Y-8615641D01*
X24184551Y-8649599D01*
X24121619Y-8712421D01*
X24087519Y-8794544D01*
X24087441Y-8883466D01*
X23655475Y-8883466D01*
X23663820Y-8841512D01*
X23663820Y-8836888D01*
X23654836Y-8791724D01*
X23629253Y-8753435D01*
X23590964Y-8727852D01*
X23545800Y-8718868D01*
X23500636Y-8727852D01*
X23462347Y-8753435D01*
X23436764Y-8791724D01*
X23427780Y-8836888D01*
X23155820Y-8836888D01*
X23149156Y-8803387D01*
X23179343Y-8803387D01*
X23183380Y-8821420D01*
X23274020Y-8821420D01*
X23274020Y-8730885D01*
X23309580Y-8730885D01*
X23309580Y-8821420D01*
X23400220Y-8821420D01*
X23404257Y-8803387D01*
X23381991Y-8763078D01*
X23345995Y-8734357D01*
X23327613Y-8726745D01*
X23309580Y-8730885D01*
X23274020Y-8730885D01*
X23255987Y-8726745D01*
X23237605Y-8734357D01*
X23201608Y-8763078D01*
X23179343Y-8803387D01*
X23149156Y-8803387D01*
X23146836Y-8791724D01*
X23121253Y-8753435D01*
X23082964Y-8727852D01*
X23037800Y-8718868D01*
X22992636Y-8727852D01*
X22954347Y-8753435D01*
X22928764Y-8791724D01*
X22919780Y-8836888D01*
X22901820Y-8836888D01*
X22892836Y-8791724D01*
X22867253Y-8753435D01*
X22828964Y-8727852D01*
X22783800Y-8718868D01*
X22738636Y-8727852D01*
X22700347Y-8753435D01*
X22674764Y-8791724D01*
X22665780Y-8836888D01*
X22647820Y-8836888D01*
X22638836Y-8791724D01*
X22613253Y-8753435D01*
X22574964Y-8727852D01*
X22529800Y-8718868D01*
X22484636Y-8727852D01*
X22446347Y-8753435D01*
X22420764Y-8791724D01*
X22411780Y-8836888D01*
X22393820Y-8836888D01*
X22384836Y-8791724D01*
X22359253Y-8753435D01*
X22320964Y-8727852D01*
X22275800Y-8718868D01*
X22230636Y-8727852D01*
X22192347Y-8753435D01*
X22166764Y-8791724D01*
X22157780Y-8836888D01*
X20615820Y-8836888D01*
X20606836Y-8791724D01*
X20581253Y-8753435D01*
X20542964Y-8727852D01*
X20497800Y-8718868D01*
X20452636Y-8727852D01*
X20414347Y-8753435D01*
X20388764Y-8791724D01*
X20379780Y-8836888D01*
X20107820Y-8836888D01*
X20101156Y-8803387D01*
X20131343Y-8803387D01*
X20135380Y-8821420D01*
X20226020Y-8821420D01*
X20226020Y-8730885D01*
X20261580Y-8730885D01*
X20261580Y-8821420D01*
X20352220Y-8821420D01*
X20356257Y-8803387D01*
X20333992Y-8763078D01*
X20297995Y-8734357D01*
X20279613Y-8726745D01*
X20261580Y-8730885D01*
X20226020Y-8730885D01*
X20207987Y-8726745D01*
X20189605Y-8734357D01*
X20153609Y-8763078D01*
X20131343Y-8803387D01*
X20101156Y-8803387D01*
X20098836Y-8791724D01*
X20073253Y-8753435D01*
X20034964Y-8727852D01*
X19989800Y-8718868D01*
X19944636Y-8727852D01*
X19906347Y-8753435D01*
X19880764Y-8791724D01*
X19871780Y-8836888D01*
X19853820Y-8836888D01*
X19844836Y-8791724D01*
X19819253Y-8753435D01*
X19780964Y-8727852D01*
X19735800Y-8718868D01*
X19690636Y-8727852D01*
X19652347Y-8753435D01*
X19626764Y-8791724D01*
X19617780Y-8836888D01*
X19599820Y-8836888D01*
X19590836Y-8791724D01*
X19565253Y-8753435D01*
X19526964Y-8727852D01*
X19481800Y-8718868D01*
X19436636Y-8727852D01*
X19398347Y-8753435D01*
X19372764Y-8791724D01*
X19363780Y-8836888D01*
X19346467Y-8836888D01*
X19346467Y-8754200D01*
X19344164Y-8741964D01*
X19336933Y-8730725D01*
X19325898Y-8723186D01*
X19312800Y-8720533D01*
X19142800Y-8720533D01*
X19130564Y-8722836D01*
X19119325Y-8730067D01*
X19111786Y-8741102D01*
X19109133Y-8754200D01*
X18929728Y-8754200D01*
X18912602Y-8712752D01*
X18849779Y-8649820D01*
X18767656Y-8615719D01*
X18678734Y-8615641D01*
X18596552Y-8649599D01*
X18533620Y-8712421D01*
X18502020Y-8788521D01*
X18502020Y-8636000D01*
X18501386Y-8629558D01*
X18497519Y-8610118D01*
X18492588Y-8598215D01*
X18488984Y-8592820D01*
X25021449Y-8592820D01*
X25038667Y-8596245D01*
M02*
